<svg id="8266ebdc-4f85-4110-a92e-dc86963ae015" data-name="Слой 1" xmlns="http://www.w3.org/2000/svg" viewBox="0 0 490 526.66"><title>Cluster</title><rect x="129.5" y="0.5" width="230" height="50" rx="10" ry="10" fill="#2e3d4c" stroke="#0399ff" stroke-linecap="round" stroke-miterlimit="10"/><rect x="129.5" y="53.5" width="230" height="50" rx="10" ry="10" fill="#2e3d4c" stroke="#0399ff" stroke-linecap="round" stroke-miterlimit="10"/><rect x="129.5" y="106.5" width="230" height="50" rx="10" ry="10" fill="#2e3d4c" stroke="#0399ff" stroke-linecap="round" stroke-miterlimit="10"/><rect x="129.5" y="159.5" width="230" height="50" rx="10" ry="10" fill="#2e3d4c" stroke="#0399ff" stroke-linecap="round" stroke-miterlimit="10"/><path d="M184.57,22.77a3.33,3.33,0,0,1-1.17,2.74,5.16,5.16,0,0,1-3.34,1h-1.19v4.27H177V19.31h3.29a5,5,0,0,1,3.21.88A3.14,3.14,0,0,1,184.57,22.77Zm-5.7,2.13h1a3.56,3.56,0,0,0,2.11-.5,1.82,1.82,0,0,0,.67-1.56,1.78,1.78,0,0,0-.6-1.47,3,3,0,0,0-1.87-.48h-1.3Z" fill="#fff"/><path d="M191,21.94A4.45,4.45,0,0,1,192,22l-.18,1.71a3.47,3.47,0,0,0-.81-.09,2.35,2.35,0,0,0-1.79.72,2.6,2.6,0,0,0-.68,1.87v4.52h-1.84V22.09h1.44l.24,1.52h.09a3.42,3.42,0,0,1,1.12-1.23A2.67,2.67,0,0,1,191,21.94Z" fill="#fff"/><path d="M197.33,30.89a4.18,4.18,0,0,1-3.15-1.18A4.46,4.46,0,0,1,193,26.48a4.9,4.9,0,0,1,1.05-3.33,3.64,3.64,0,0,1,2.9-1.21,3.56,3.56,0,0,1,2.7,1,4,4,0,0,1,1,2.86v1h-5.76a2.83,2.83,0,0,0,.68,1.93,2.37,2.37,0,0,0,1.8.68,6.65,6.65,0,0,0,1.43-.14,7.48,7.48,0,0,0,1.42-.48V30.3a5.63,5.63,0,0,1-1.36.45A8.36,8.36,0,0,1,197.33,30.89ZM197,23.33a1.84,1.84,0,0,0-1.4.55A2.64,2.64,0,0,0,195,25.5h3.92a2.4,2.4,0,0,0-.52-1.62A1.76,1.76,0,0,0,197,23.33Z" fill="#fff"/><path d="M210.05,30.73h-1.84V25.41a2.42,2.42,0,0,0-.37-1.48,1.38,1.38,0,0,0-1.17-.49,1.79,1.79,0,0,0-1.56.69,4.05,4.05,0,0,0-.5,2.3v4.3h-1.84V22.09h1.44l.26,1.13h.09a2.39,2.39,0,0,1,1-1,3.37,3.37,0,0,1,1.5-.34,2.63,2.63,0,0,1,2.64,1.36h.13a2.63,2.63,0,0,1,1.08-1,3.42,3.42,0,0,1,1.59-.36,2.9,2.9,0,0,1,2.25.78,3.46,3.46,0,0,1,.71,2.38v5.63h-1.84V25.41a2.4,2.4,0,0,0-.38-1.48,1.4,1.4,0,0,0-1.18-.49,1.82,1.82,0,0,0-1.57.67,3.44,3.44,0,0,0-.5,2.05Z" fill="#fff"/><path d="M218,19.8a1,1,0,0,1,.27-.76,1.05,1.05,0,0,1,.77-.27,1,1,0,0,1,.75.27,1,1,0,0,1,.27.76,1,1,0,0,1-.27.74,1,1,0,0,1-.75.27,1,1,0,0,1-.77-.27A1,1,0,0,1,218,19.8Zm1.95,10.93h-1.84V22.09h1.84Z" fill="#fff"/><path d="M228.63,30.73l-.26-1.13h-.09a2.61,2.61,0,0,1-1.09.95,3.65,3.65,0,0,1-1.61.34,3.17,3.17,0,0,1-2.34-.78,3.24,3.24,0,0,1-.77-2.37V22.09h1.85v5.33a2.31,2.31,0,0,0,.41,1.49,1.55,1.55,0,0,0,1.27.5,2,2,0,0,0,1.7-.69,3.81,3.81,0,0,0,.54-2.32v-4.3h1.84v8.64Z" fill="#fff"/><path d="M240,30.73h-1.84V25.41a2.42,2.42,0,0,0-.37-1.48,1.38,1.38,0,0,0-1.17-.49,1.79,1.79,0,0,0-1.56.69,4.05,4.05,0,0,0-.5,2.3v4.3h-1.84V22.09h1.44l.26,1.13h.09a2.39,2.39,0,0,1,1-1,3.37,3.37,0,0,1,1.5-.34,2.63,2.63,0,0,1,2.64,1.36h.13a2.63,2.63,0,0,1,1.08-1,3.42,3.42,0,0,1,1.59-.36,2.9,2.9,0,0,1,2.25.78,3.46,3.46,0,0,1,.71,2.38v5.63h-1.84V25.41a2.4,2.4,0,0,0-.38-1.48,1.4,1.4,0,0,0-1.18-.49,1.82,1.82,0,0,0-1.57.67,3.44,3.44,0,0,0-.5,2.05Z" fill="#fff"/><path d="M257.2,20.75a3.08,3.08,0,0,0-2.53,1.14,4.87,4.87,0,0,0-.92,3.15,4.9,4.9,0,0,0,.89,3.18,3.13,3.13,0,0,0,2.57,1.08,6.72,6.72,0,0,0,1.41-.14q.68-.14,1.41-.37v1.6a8.57,8.57,0,0,1-3,.51,4.87,4.87,0,0,1-3.85-1.52A6.35,6.35,0,0,1,251.77,25a7,7,0,0,1,.65-3.12,4.65,4.65,0,0,1,1.89-2,5.71,5.71,0,0,1,2.9-.71,7.2,7.2,0,0,1,3.23.73l-.67,1.55a10.11,10.11,0,0,0-1.22-.48A4.42,4.42,0,0,0,257.2,20.75Z" fill="#fff"/><path d="M271.77,24.91a5.69,5.69,0,0,1-1.57,4.32,6.31,6.31,0,0,1-4.52,1.5h-3.2V19.31H266a5.84,5.84,0,0,1,4.24,1.47A5.49,5.49,0,0,1,271.77,24.91Zm-2,.06q0-4.1-3.84-4.1h-1.62v8.29h1.33Q269.8,29.16,269.8,25Z" fill="#fff"/><path d="M283.73,30.73h-2.29l-5.62-9.1h-.06l0,.51q.11,1.45.11,2.66v5.94h-1.7V19.31h2.27l5.6,9.05h0q0-.18-.06-1.31t0-1.76v-6h1.71Z" fill="#fff"/><path d="M177,82.5V71.08h1.87V80.9h4.84v1.6Z" fill="#fff"/><path d="M189.26,82.66a4.18,4.18,0,0,1-3.15-1.18A4.46,4.46,0,0,1,185,78.24,4.9,4.9,0,0,1,186,74.91a3.64,3.64,0,0,1,2.9-1.21,3.56,3.56,0,0,1,2.7,1,4,4,0,0,1,1,2.86v1h-5.76a2.84,2.84,0,0,0,.68,1.93,2.37,2.37,0,0,0,1.8.68,6.64,6.64,0,0,0,1.43-.14,7.44,7.44,0,0,0,1.42-.48v1.49a5.63,5.63,0,0,1-1.36.45A8.3,8.3,0,0,1,189.26,82.66Zm-.34-7.56a1.85,1.85,0,0,0-1.4.55,2.64,2.64,0,0,0-.63,1.62h3.92a2.4,2.4,0,0,0-.52-1.62A1.76,1.76,0,0,0,188.92,75.09Z" fill="#fff"/><path d="M197.92,81.17a4.46,4.46,0,0,0,1.34-.21v1.38a3.67,3.67,0,0,1-.79.22,5.44,5.44,0,0,1-1,.09q-2.61,0-2.61-2.75V75.25H193.7v-.81l1.27-.67.63-1.83h1.13v1.92h2.46v1.39h-2.46v4.63a1.3,1.3,0,0,0,.33,1A1.21,1.21,0,0,0,197.92,81.17Z" fill="#fff"/><path d="M202.46,71.08l.12.17A22.69,22.69,0,0,1,201.2,75h-1.33q.54-2.26.78-3.91Z" fill="#fff"/><path d="M209.88,80A2.26,2.26,0,0,1,209,82a4.41,4.41,0,0,1-2.64.68,6.24,6.24,0,0,1-2.77-.52V80.55a6.81,6.81,0,0,0,2.84.7q1.69,0,1.7-1a.81.81,0,0,0-.19-.55,2.23,2.23,0,0,0-.62-.45,10.63,10.63,0,0,0-1.2-.53,5.52,5.52,0,0,1-2-1.16,2.14,2.14,0,0,1-.53-1.5,2,2,0,0,1,.89-1.72,4.25,4.25,0,0,1,2.43-.61,6.9,6.9,0,0,1,2.88.62l-.59,1.38a6.42,6.42,0,0,0-2.35-.58q-1.45,0-1.45.83a.83.83,0,0,0,.38.69,8.35,8.35,0,0,0,1.65.77,7.58,7.58,0,0,1,1.55.76,2.27,2.27,0,0,1,.72.79A2.3,2.3,0,0,1,209.88,80Z" fill="#fff"/><path d="M222.68,82.5h-6.46V71.08h6.46v1.58h-4.59v3.11h4.3v1.56h-4.3v3.59h4.59Z" fill="#fff"/><path d="M232.55,82.5h-1.84V77.19a2.32,2.32,0,0,0-.4-1.49A1.56,1.56,0,0,0,229,75.2a2,2,0,0,0-1.7.69,3.8,3.8,0,0,0-.54,2.3v4.3H225V73.86h1.44l.26,1.13h.09a2.56,2.56,0,0,1,1.11-1,3.72,3.72,0,0,1,1.59-.34q3.11,0,3.11,3.16Z" fill="#fff"/><path d="M238.59,82.66a3.78,3.78,0,0,1-3-1.14,5.8,5.8,0,0,1,0-6.64,4,4,0,0,1,3.08-1.17,5.78,5.78,0,0,1,2.46.51l-.55,1.48a5.57,5.57,0,0,0-1.92-.45q-2.24,0-2.24,3a3.57,3.57,0,0,0,.56,2.18,1.93,1.93,0,0,0,1.64.73,4.7,4.7,0,0,0,2.32-.61v1.6a3.62,3.62,0,0,1-1.05.41A6.32,6.32,0,0,1,238.59,82.66Z" fill="#fff"/><path d="M247.41,73.7a4.44,4.44,0,0,1,.91.08l-.18,1.71a3.47,3.47,0,0,0-.81-.09,2.35,2.35,0,0,0-1.79.72,2.6,2.6,0,0,0-.68,1.87V82.5H243V73.86h1.44l.24,1.52h.09a3.42,3.42,0,0,1,1.12-1.23A2.67,2.67,0,0,1,247.41,73.7Z" fill="#fff"/><path d="M248.62,73.86h2l1.76,4.9a9.32,9.32,0,0,1,.53,2H253a8.24,8.24,0,0,1,.26-1q.19-.61,2-5.82h2l-3.7,9.79q-1,2.7-3.36,2.7a5.27,5.27,0,0,1-1.19-.13V84.76a4.3,4.3,0,0,0,.95.09,1.94,1.94,0,0,0,1.87-1.54l.32-.81Z" fill="#fff"/><path d="M262.89,82.66a3,3,0,0,1-2.55-1.18h-.11q.11,1.09.11,1.33v3.54h-1.84V73.86H260q.06.24.26,1.16h.09a2.88,2.88,0,0,1,2.58-1.31,3,3,0,0,1,2.52,1.17,6.43,6.43,0,0,1,0,6.59A3,3,0,0,1,262.89,82.66Zm-.45-7.45a1.91,1.91,0,0,0-1.6.64,3.32,3.32,0,0,0-.5,2v.27a4,4,0,0,0,.5,2.29,1.86,1.86,0,0,0,1.63.71,1.66,1.66,0,0,0,1.47-.78,4,4,0,0,0,.52-2.23,3.9,3.9,0,0,0-.51-2.2A1.71,1.71,0,0,0,262.45,75.2Z" fill="#fff"/><path d="M271.7,81.17A4.46,4.46,0,0,0,273,81v1.38a3.67,3.67,0,0,1-.79.22,5.44,5.44,0,0,1-1,.09q-2.61,0-2.61-2.75V75.25h-1.18v-.81l1.27-.67.63-1.83h1.13v1.92H273v1.39h-2.46v4.63a1.3,1.3,0,0,0,.33,1A1.21,1.21,0,0,0,271.7,81.17Z" fill="#fff"/><path d="M285.7,79.4a2.87,2.87,0,0,1-1.1,2.39,4.79,4.79,0,0,1-3,.87,7.25,7.25,0,0,1-3.17-.6V80.29a8.59,8.59,0,0,0,1.66.58,7,7,0,0,0,1.64.21,2.6,2.6,0,0,0,1.64-.42,1.38,1.38,0,0,0,.53-1.13,1.42,1.42,0,0,0-.48-1.09,7.29,7.29,0,0,0-2-1.05,5.28,5.28,0,0,1-2.2-1.45,3.06,3.06,0,0,1-.64-2,2.74,2.74,0,0,1,1-2.25,4.21,4.21,0,0,1,2.73-.82,8,8,0,0,1,3.27.72l-.59,1.52a7.14,7.14,0,0,0-2.72-.64,2.09,2.09,0,0,0-1.37.39,1.3,1.3,0,0,0-.47,1,1.47,1.47,0,0,0,.19.76,1.92,1.92,0,0,0,.62.6,10.39,10.39,0,0,0,1.55.74,8.48,8.48,0,0,1,1.84,1,2.88,2.88,0,0,1,.86,1A3.07,3.07,0,0,1,285.7,79.4Z" fill="#fff"/><path d="M294.5,79.4a2.87,2.87,0,0,1-1.1,2.39,4.79,4.79,0,0,1-3,.87,7.25,7.25,0,0,1-3.17-.6V80.29a8.59,8.59,0,0,0,1.66.58,7,7,0,0,0,1.64.21,2.6,2.6,0,0,0,1.64-.42,1.38,1.38,0,0,0,.53-1.13,1.42,1.42,0,0,0-.48-1.09,7.29,7.29,0,0,0-2-1.05,5.28,5.28,0,0,1-2.2-1.45,3.06,3.06,0,0,1-.64-2,2.74,2.74,0,0,1,1-2.25,4.21,4.21,0,0,1,2.73-.82,8,8,0,0,1,3.27.72l-.59,1.52a7.14,7.14,0,0,0-2.72-.64,2.09,2.09,0,0,0-1.37.39,1.3,1.3,0,0,0-.47,1,1.47,1.47,0,0,0,.19.76,1.92,1.92,0,0,0,.62.6,10.39,10.39,0,0,0,1.55.74,8.48,8.48,0,0,1,1.84,1,2.88,2.88,0,0,1,.86,1A3.07,3.07,0,0,1,294.5,79.4Z" fill="#fff"/><path d="M296.71,82.5V71.08h1.87V80.9h4.84v1.6Z" fill="#fff"/><path d="M187.55,137.5h-2l-1.94-6.81q-.12-.45-.31-1.29t-.23-1.17q-.08.5-.25,1.3t-.29,1.19l-1.89,6.78h-2l-1.48-5.72-1.5-5.7h1.91l1.63,6.66q.38,1.6.55,2.83.09-.66.26-1.48t.31-1.33l1.86-6.67H184l1.91,6.7a25,25,0,0,1,.58,2.78,20.4,20.4,0,0,1,.56-2.84l1.63-6.64h1.89Z" fill="#fff"/><path d="M199.23,137.5l-1.14-3.17h-4.37l-1.12,3.17h-2L194.91,126h2l4.27,11.47Zm-1.63-4.78-1.07-3.11q-.12-.31-.32-1t-.29-1a17.56,17.56,0,0,1-.62,2.1l-1,3Z" fill="#fff"/><path d="M204.57,137.5h-1.85V126.08h6.45v1.58h-4.59v3.57h4.3v1.59h-4.3Z" fill="#fff"/><path d="M177,191.5V180.08h1.87v9.82h4.84v1.6Z" fill="#fff"/><path d="M185.38,180.57a1,1,0,0,1,.27-.76,1.05,1.05,0,0,1,.77-.27,1,1,0,0,1,.75.27,1,1,0,0,1,.27.76,1,1,0,0,1-.27.74,1,1,0,0,1-.75.27,1,1,0,0,1-.77-.27A1,1,0,0,1,185.38,180.57Zm1.95,10.93h-1.84v-8.64h1.84Z" fill="#fff"/><path d="M193.16,190.17a4.46,4.46,0,0,0,1.34-.21v1.38a3.67,3.67,0,0,1-.79.22,5.44,5.44,0,0,1-1,.09q-2.61,0-2.61-2.75v-4.66h-1.18v-.81l1.27-.67.63-1.83H192v1.92h2.46v1.39H192v4.63a1.3,1.3,0,0,0,.33,1A1.21,1.21,0,0,0,193.16,190.17Z" fill="#fff"/><path d="M200,191.66a4.18,4.18,0,0,1-3.15-1.18,4.46,4.46,0,0,1-1.14-3.24,4.9,4.9,0,0,1,1.05-3.33,3.64,3.64,0,0,1,2.9-1.21,3.56,3.56,0,0,1,2.7,1,4,4,0,0,1,1,2.86v1h-5.76a2.84,2.84,0,0,0,.68,1.93,2.36,2.36,0,0,0,1.8.68,6.64,6.64,0,0,0,1.43-.14,7.37,7.37,0,0,0,1.42-.48v1.49a5.6,5.6,0,0,1-1.36.45A8.3,8.3,0,0,1,200,191.66Zm-.34-7.56a1.85,1.85,0,0,0-1.4.55,2.64,2.64,0,0,0-.63,1.62h3.92a2.4,2.4,0,0,0-.52-1.62A1.76,1.76,0,0,0,199.67,184.09Z" fill="#fff"/><path d="M212.23,188.4a2.87,2.87,0,0,1-1.1,2.39,4.79,4.79,0,0,1-3,.87,7.25,7.25,0,0,1-3.17-.6v-1.77a8.59,8.59,0,0,0,1.66.58,7,7,0,0,0,1.64.21,2.6,2.6,0,0,0,1.64-.42,1.37,1.37,0,0,0,.53-1.13,1.42,1.42,0,0,0-.48-1.09,7.29,7.29,0,0,0-2-1.05,5.28,5.28,0,0,1-2.2-1.45,3.06,3.06,0,0,1-.64-2,2.74,2.74,0,0,1,1-2.25,4.21,4.21,0,0,1,2.73-.82,8,8,0,0,1,3.27.72l-.59,1.52a7.14,7.14,0,0,0-2.72-.64,2.09,2.09,0,0,0-1.37.39,1.3,1.3,0,0,0-.47,1,1.47,1.47,0,0,0,.19.76,1.92,1.92,0,0,0,.62.6,10.34,10.34,0,0,0,1.55.74,8.5,8.5,0,0,1,1.84,1,2.88,2.88,0,0,1,.86,1A3.08,3.08,0,0,1,212.23,188.4Z" fill="#fff"/><path d="M218.63,191.66a3,3,0,0,1-2.55-1.18H216q.11,1.09.11,1.33v3.54h-1.84V182.86h1.48q.06.24.26,1.16h.09a2.88,2.88,0,0,1,2.58-1.31,3,3,0,0,1,2.52,1.17,6.43,6.43,0,0,1,0,6.59A3,3,0,0,1,218.63,191.66Zm-.45-7.45a1.91,1.91,0,0,0-1.6.64,3.32,3.32,0,0,0-.5,2v.27a4,4,0,0,0,.5,2.29,1.86,1.86,0,0,0,1.63.71,1.66,1.66,0,0,0,1.47-.78,4,4,0,0,0,.52-2.23,3.9,3.9,0,0,0-.51-2.2A1.71,1.71,0,0,0,218.19,184.2Z" fill="#fff"/><path d="M228,191.66a4.18,4.18,0,0,1-3.15-1.18,4.46,4.46,0,0,1-1.14-3.24,4.9,4.9,0,0,1,1.05-3.33,3.64,3.64,0,0,1,2.9-1.21,3.56,3.56,0,0,1,2.7,1,4,4,0,0,1,1,2.86v1h-5.76a2.84,2.84,0,0,0,.68,1.93,2.36,2.36,0,0,0,1.8.68,6.64,6.64,0,0,0,1.43-.14,7.37,7.37,0,0,0,1.42-.48v1.49a5.6,5.6,0,0,1-1.36.45A8.3,8.3,0,0,1,228,191.66Zm-.34-7.56a1.85,1.85,0,0,0-1.4.55,2.64,2.64,0,0,0-.63,1.62h3.92a2.4,2.4,0,0,0-.52-1.62A1.76,1.76,0,0,0,227.66,184.09Z" fill="#fff"/><path d="M237.21,191.66a4.18,4.18,0,0,1-3.15-1.18,4.46,4.46,0,0,1-1.14-3.24,4.9,4.9,0,0,1,1.05-3.33,3.64,3.64,0,0,1,2.9-1.21,3.56,3.56,0,0,1,2.7,1,4,4,0,0,1,1,2.86v1h-5.76a2.84,2.84,0,0,0,.68,1.93,2.36,2.36,0,0,0,1.8.68,6.64,6.64,0,0,0,1.43-.14,7.37,7.37,0,0,0,1.42-.48v1.49a5.6,5.6,0,0,1-1.36.45A8.3,8.3,0,0,1,237.21,191.66Zm-.34-7.56a1.85,1.85,0,0,0-1.4.55,2.64,2.64,0,0,0-.63,1.62h3.92a2.4,2.4,0,0,0-.52-1.62A1.76,1.76,0,0,0,236.88,184.09Z" fill="#fff"/><path d="M245.57,191.66a3,3,0,0,1-2.52-1.17,6.42,6.42,0,0,1,0-6.6,3,3,0,0,1,2.54-1.18A3,3,0,0,1,248.2,184h.09a10.94,10.94,0,0,1-.13-1.47v-3.15H250V191.5h-1.44l-.32-1.13h-.09A2.94,2.94,0,0,1,245.57,191.66Zm.49-1.48a2,2,0,0,0,1.65-.64,3.35,3.35,0,0,0,.53-2.07v-.26a3.87,3.87,0,0,0-.53-2.32,2,2,0,0,0-1.66-.69,1.69,1.69,0,0,0-1.49.79,4,4,0,0,0-.52,2.24,3.92,3.92,0,0,0,.51,2.19A1.71,1.71,0,0,0,246.06,190.17Z" fill="#fff"/><path d="M267.52,191.5h-2l-1.94-6.81q-.12-.45-.31-1.29t-.23-1.17q-.08.5-.25,1.3t-.29,1.19l-1.89,6.78h-2l-1.48-5.72-1.5-5.7h1.91l1.63,6.66q.38,1.6.55,2.83.09-.66.26-1.48t.31-1.33l1.86-6.67h1.85l1.91,6.7a25,25,0,0,1,.58,2.78,20.42,20.42,0,0,1,.56-2.84l1.63-6.64h1.89Z" fill="#fff"/><path d="M275.69,191.66a4.18,4.18,0,0,1-3.15-1.18,4.46,4.46,0,0,1-1.14-3.24,4.9,4.9,0,0,1,1.05-3.33,3.64,3.64,0,0,1,2.9-1.21,3.56,3.56,0,0,1,2.7,1,4,4,0,0,1,1,2.86v1h-5.76a2.84,2.84,0,0,0,.68,1.93,2.36,2.36,0,0,0,1.8.68,6.64,6.64,0,0,0,1.43-.14,7.37,7.37,0,0,0,1.42-.48v1.49a5.6,5.6,0,0,1-1.36.45A8.3,8.3,0,0,1,275.69,191.66Zm-.34-7.56a1.85,1.85,0,0,0-1.4.55,2.64,2.64,0,0,0-.63,1.62h3.92a2.4,2.4,0,0,0-.52-1.62A1.76,1.76,0,0,0,275.35,184.09Z" fill="#fff"/><path d="M285.55,182.7a3,3,0,0,1,2.52,1.17,6.45,6.45,0,0,1,0,6.6,3.33,3.33,0,0,1-5.09,0h-.12l-.34,1h-1.37V179.34H283v2.89q0,.32,0,1t0,.8H283A2.91,2.91,0,0,1,285.55,182.7Zm-.48,1.5a1.87,1.87,0,0,0-1.6.65A3.8,3.8,0,0,0,283,187v.13a4,4,0,0,0,.5,2.29,1.86,1.86,0,0,0,1.63.71,1.65,1.65,0,0,0,1.48-.77,4.1,4.1,0,0,0,.5-2.23Q287.09,184.2,285.07,184.2Z" fill="#fff"/><path d="M302.54,191.5l-1.14-3.17H297l-1.12,3.17h-2L298.22,180h2l4.27,11.47Zm-1.63-4.78-1.07-3.11q-.12-.31-.32-1t-.29-1a17.53,17.53,0,0,1-.62,2.1l-1,3Z" fill="#fff"/><path d="M315.32,185.68a5.69,5.69,0,0,1-1.57,4.32,6.3,6.3,0,0,1-4.52,1.5H306V180.08h3.53a5.84,5.84,0,0,1,4.24,1.47A5.49,5.49,0,0,1,315.32,185.68Zm-2,.06q0-4.1-3.84-4.1H307.9v8.29h1.33Q313.35,189.93,313.35,185.74Z" fill="#fff"/><path d="M322.63,181.52a3.08,3.08,0,0,0-2.53,1.14,6,6,0,0,0,0,6.33,3.13,3.13,0,0,0,2.57,1.08,6.72,6.72,0,0,0,1.41-.14q.68-.14,1.41-.37v1.6a8.56,8.56,0,0,1-3,.51,4.87,4.87,0,0,1-3.85-1.52,6.36,6.36,0,0,1-1.34-4.35,7,7,0,0,1,.65-3.12,4.65,4.65,0,0,1,1.89-2,5.71,5.71,0,0,1,2.9-.71,7.2,7.2,0,0,1,3.23.73l-.67,1.55a10.27,10.27,0,0,0-1.22-.48A4.42,4.42,0,0,0,322.63,181.52Z" fill="#fff"/><rect x="129.5" y="368.5" width="230" height="50" rx="10" ry="10" fill="#2e3d4c" stroke="#0399ff" stroke-linecap="round" stroke-miterlimit="10"/><rect x="219.25" y="453" width="50" height="50" rx="4.66" ry="4.66" fill="#2e3d4c" stroke="#0399ff" stroke-linecap="round" stroke-miterlimit="10"/><path d="M208.59,397.4a2.87,2.87,0,0,1-1.1,2.39,4.79,4.79,0,0,1-3,.87,7.25,7.25,0,0,1-3.17-.6v-1.77a8.59,8.59,0,0,0,1.66.58,7,7,0,0,0,1.64.21,2.6,2.6,0,0,0,1.64-.42,1.37,1.37,0,0,0,.53-1.13,1.42,1.42,0,0,0-.48-1.09,7.29,7.29,0,0,0-2-1.05,5.28,5.28,0,0,1-2.2-1.45,3.06,3.06,0,0,1-.64-2,2.74,2.74,0,0,1,1-2.25,4.21,4.21,0,0,1,2.73-.82,8,8,0,0,1,3.27.72l-.59,1.52a7.14,7.14,0,0,0-2.72-.64,2.09,2.09,0,0,0-1.37.39,1.3,1.3,0,0,0-.47,1,1.47,1.47,0,0,0,.19.76,1.92,1.92,0,0,0,.62.6,10.34,10.34,0,0,0,1.55.74,8.5,8.5,0,0,1,1.84,1,2.88,2.88,0,0,1,.86,1A3.08,3.08,0,0,1,208.59,397.4Z" fill="#fff"/><path d="M218.21,400.5h-1.84v-5.31a2.32,2.32,0,0,0-.4-1.49,1.56,1.56,0,0,0-1.28-.49,2,2,0,0,0-1.7.69,3.81,3.81,0,0,0-.54,2.32v4.29h-1.84V388.34h1.84v3.09a14.4,14.4,0,0,1-.09,1.59h.12a2.56,2.56,0,0,1,1-1,3.37,3.37,0,0,1,1.56-.34q3.14,0,3.14,3.16Z" fill="#fff"/><path d="M226.17,400.5l-.37-1.2h-.06a3.53,3.53,0,0,1-1.26,1.07,4,4,0,0,1-1.62.29,2.75,2.75,0,0,1-2-.69,2.57,2.57,0,0,1-.71-1.95,2.28,2.28,0,0,1,1-2,5.72,5.72,0,0,1,3-.74l1.49,0v-.46a1.75,1.75,0,0,0-.39-1.24,1.58,1.58,0,0,0-1.2-.41,4.16,4.16,0,0,0-1.27.2,9.77,9.77,0,0,0-1.17.46l-.59-1.31a6.43,6.43,0,0,1,1.54-.56,7.12,7.12,0,0,1,1.58-.19,3.74,3.74,0,0,1,2.49.72,2.82,2.82,0,0,1,.84,2.26v5.82Zm-2.73-1.25a2.27,2.27,0,0,0,1.61-.56,2,2,0,0,0,.61-1.57v-.75l-1.11,0a3.8,3.8,0,0,0-1.89.43,1.32,1.32,0,0,0-.59,1.18,1.15,1.15,0,0,0,.34.89A1.48,1.48,0,0,0,223.44,399.25Z" fill="#fff"/><path d="M234.43,391.7a4.44,4.44,0,0,1,.91.08l-.18,1.71a3.47,3.47,0,0,0-.81-.09,2.35,2.35,0,0,0-1.79.72,2.6,2.6,0,0,0-.68,1.87v4.52H230v-8.64h1.44l.24,1.52h.09a3.43,3.43,0,0,1,1.12-1.23A2.67,2.67,0,0,1,234.43,391.7Z" fill="#fff"/><path d="M240.72,400.66a4.18,4.18,0,0,1-3.15-1.18,4.46,4.46,0,0,1-1.14-3.24,4.9,4.9,0,0,1,1.05-3.33,3.64,3.64,0,0,1,2.9-1.21,3.56,3.56,0,0,1,2.7,1,4,4,0,0,1,1,2.86v1h-5.76a2.84,2.84,0,0,0,.68,1.93,2.36,2.36,0,0,0,1.8.68,6.64,6.64,0,0,0,1.43-.14,7.37,7.37,0,0,0,1.42-.48v1.49a5.6,5.6,0,0,1-1.36.45A8.3,8.3,0,0,1,240.72,400.66Zm-.34-7.56a1.85,1.85,0,0,0-1.4.55,2.64,2.64,0,0,0-.63,1.62h3.92a2.4,2.4,0,0,0-.52-1.62A1.76,1.76,0,0,0,240.38,393.09Z" fill="#fff"/><path d="M249.08,400.66a3,3,0,0,1-2.52-1.17,6.42,6.42,0,0,1,0-6.6,3,3,0,0,1,2.54-1.18A3,3,0,0,1,251.7,393h.09a10.94,10.94,0,0,1-.13-1.47v-3.15h1.84V400.5h-1.44l-.32-1.13h-.09A2.94,2.94,0,0,1,249.08,400.66Zm.49-1.48a2,2,0,0,0,1.65-.64,3.35,3.35,0,0,0,.53-2.07v-.26a3.87,3.87,0,0,0-.53-2.32,2,2,0,0,0-1.66-.69,1.69,1.69,0,0,0-1.49.79,4,4,0,0,0-.52,2.24,3.92,3.92,0,0,0,.51,2.19A1.71,1.71,0,0,0,249.57,399.17Z" fill="#fff"/><path d="M267.07,397.4a2.87,2.87,0,0,1-1.1,2.39,4.79,4.79,0,0,1-3,.87,7.25,7.25,0,0,1-3.17-.6v-1.77a8.59,8.59,0,0,0,1.66.58,7,7,0,0,0,1.64.21,2.6,2.6,0,0,0,1.64-.42,1.37,1.37,0,0,0,.53-1.13,1.42,1.42,0,0,0-.48-1.09,7.29,7.29,0,0,0-2-1.05,5.28,5.28,0,0,1-2.2-1.45,3.06,3.06,0,0,1-.64-2,2.74,2.74,0,0,1,1-2.25,4.21,4.21,0,0,1,2.73-.82,8,8,0,0,1,3.27.72l-.59,1.52a7.14,7.14,0,0,0-2.72-.64,2.09,2.09,0,0,0-1.37.39,1.3,1.3,0,0,0-.47,1,1.47,1.47,0,0,0,.19.76,1.92,1.92,0,0,0,.62.6,10.34,10.34,0,0,0,1.55.74,8.5,8.5,0,0,1,1.84,1,2.88,2.88,0,0,1,.86,1A3.08,3.08,0,0,1,267.07,397.4Z" fill="#fff"/><path d="M272.3,399.17a4.46,4.46,0,0,0,1.34-.21v1.38a3.67,3.67,0,0,1-.79.22,5.44,5.44,0,0,1-1,.09q-2.61,0-2.61-2.75v-4.66h-1.18v-.81l1.27-.67.63-1.83h1.13v1.92h2.46v1.39H271.1v4.63a1.3,1.3,0,0,0,.33,1A1.21,1.21,0,0,0,272.3,399.17Z" fill="#fff"/><path d="M283,396.16a4.72,4.72,0,0,1-1.09,3.3,3.89,3.89,0,0,1-3,1.19,4.14,4.14,0,0,1-2.14-.55,3.6,3.6,0,0,1-1.43-1.57,5.35,5.35,0,0,1-.5-2.37,4.69,4.69,0,0,1,1.08-3.28,3.91,3.91,0,0,1,3-1.18,3.81,3.81,0,0,1,3,1.21A4.66,4.66,0,0,1,283,396.16Zm-6.29,0q0,3,2.21,3t2.19-3q0-3-2.2-3a1.88,1.88,0,0,0-1.68.77A3.89,3.89,0,0,0,276.75,396.16Z" fill="#fff"/><path d="M289.53,391.7a4.44,4.44,0,0,1,.91.08l-.18,1.71a3.47,3.47,0,0,0-.81-.09,2.35,2.35,0,0,0-1.79.72A2.6,2.6,0,0,0,287,396v4.52h-1.84v-8.64h1.44l.24,1.52h.09a3.43,3.43,0,0,1,1.12-1.23A2.67,2.67,0,0,1,289.53,391.7Z" fill="#fff"/><path d="M297.45,400.5l-.37-1.2H297a3.53,3.53,0,0,1-1.26,1.07,4,4,0,0,1-1.62.29,2.75,2.75,0,0,1-2-.69,2.57,2.57,0,0,1-.71-1.95,2.28,2.28,0,0,1,1-2,5.72,5.72,0,0,1,3-.74l1.49,0v-.46a1.75,1.75,0,0,0-.39-1.24,1.58,1.58,0,0,0-1.2-.41,4.16,4.16,0,0,0-1.27.2,9.77,9.77,0,0,0-1.17.46l-.59-1.31a6.43,6.43,0,0,1,1.54-.56,7.12,7.12,0,0,1,1.58-.19,3.74,3.74,0,0,1,2.49.72,2.82,2.82,0,0,1,.84,2.26v5.82Zm-2.73-1.25a2.27,2.27,0,0,0,1.61-.56,2,2,0,0,0,.61-1.57v-.75l-1.11,0a3.8,3.8,0,0,0-1.89.43,1.32,1.32,0,0,0-.59,1.18,1.15,1.15,0,0,0,.34.89A1.48,1.48,0,0,0,294.72,399.25Z" fill="#fff"/><path d="M308.63,391.86v1l-1.48.27a2.39,2.39,0,0,1,.34.67,2.64,2.64,0,0,1,.13.84,2.59,2.59,0,0,1-.92,2.1,3.86,3.86,0,0,1-2.54.77,4.08,4.08,0,0,1-.75-.06,1,1,0,0,0-.59.86.48.48,0,0,0,.28.45,2.39,2.39,0,0,0,1,.15h1.51a3.35,3.35,0,0,1,2.17.61,2.14,2.14,0,0,1,.74,1.76,2.56,2.56,0,0,1-1.21,2.27,6.38,6.38,0,0,1-3.5.8,4.83,4.83,0,0,1-2.7-.62,2,2,0,0,1-.93-1.78,1.9,1.9,0,0,1,.5-1.34,2.7,2.7,0,0,1,1.41-.75,1.37,1.37,0,0,1-.61-.5,1.3,1.3,0,0,1,0-1.55,3.17,3.17,0,0,1,.81-.66,2.4,2.4,0,0,1-1.09-.94,2.77,2.77,0,0,1-.42-1.53,2.74,2.74,0,0,1,.89-2.18,3.73,3.73,0,0,1,2.53-.77,6.28,6.28,0,0,1,.77.05,5,5,0,0,1,.61.11Zm-6.79,10a1,1,0,0,0,.54.91,2.94,2.94,0,0,0,1.5.32,4.55,4.55,0,0,0,2.23-.43,1.29,1.29,0,0,0,.73-1.14.86.86,0,0,0-.4-.8,3.23,3.23,0,0,0-1.5-.24h-1.39a2,2,0,0,0-1.25.37A1.22,1.22,0,0,0,301.84,401.84Zm.79-7.19a1.74,1.74,0,0,0,.42,1.25,1.58,1.58,0,0,0,1.2.44q1.59,0,1.59-1.7a1.93,1.93,0,0,0-.39-1.3,1.5,1.5,0,0,0-1.2-.46,1.55,1.55,0,0,0-1.21.45A1.91,1.91,0,0,0,302.63,394.66Z" fill="#fff"/><path d="M314,400.66a4.18,4.18,0,0,1-3.15-1.18,4.46,4.46,0,0,1-1.14-3.24,4.9,4.9,0,0,1,1.05-3.33,3.64,3.64,0,0,1,2.9-1.21,3.56,3.56,0,0,1,2.7,1,4,4,0,0,1,1,2.86v1H311.6a2.84,2.84,0,0,0,.68,1.93,2.36,2.36,0,0,0,1.8.68,6.64,6.64,0,0,0,1.43-.14,7.37,7.37,0,0,0,1.42-.48v1.49a5.6,5.6,0,0,1-1.36.45A8.3,8.3,0,0,1,314,400.66Zm-.34-7.56a1.85,1.85,0,0,0-1.4.55,2.64,2.64,0,0,0-.63,1.62h3.92a2.4,2.4,0,0,0-.52-1.62A1.76,1.76,0,0,0,313.66,393.09Z" fill="#fff"/><path d="M179,390.11a2.39,2.39,0,1,0,2.39,2.39A2.39,2.39,0,0,0,179,390.11Zm0,4.07a1.68,1.68,0,1,1,1.68-1.68A1.68,1.68,0,0,1,179,394.17Z" fill="#95aace"/><path d="M185.75,382.31H172.23a1.41,1.41,0,0,0-1.41,1.41v20.37a1.41,1.41,0,0,0,1.41,1.41h13.52a1.41,1.41,0,0,0,1.41-1.41V383.72A1.41,1.41,0,0,0,185.75,382.31Zm-12.69,1.53a.71.71,0,1,1-.71.71A.71.71,0,0,1,173.06,383.84Zm0,20.13a.71.71,0,1,1,.71-.71A.71.71,0,0,1,173.06,404Zm6.67-5.17v-2a.35.35,0,0,0-.71,0v2.93a.35.35,0,0,1-.1.24l-1.55,1.62a.35.35,0,0,1-.51-.49l1.46-1.52v-.74a6.35,6.35,0,1,1,1.41,0Zm5.2,5.17a.71.71,0,1,1,.71-.71A.71.71,0,0,1,184.92,404Zm0-18.72a.71.71,0,1,1,.71-.71A.71.71,0,0,1,184.92,385.25Z" fill="#95aace"/><path d="M165.07,184.81l-6.74-6.74-2.87,3.64,3.09,3.09a.74.74,0,0,1,0,1l-.9.9s.6.9.63,1a1.1,1.1,0,0,1-.22,1.23l-7,5.4c0,1.81,0,5.54,0,5.54l14-14A.74.74,0,0,0,165.07,184.81Z" fill="#5e8cda"/><path d="M149.42,185.66a.74.74,0,0,1,0-1l.9-.9-.61-.88a1,1,0,0,1,.2-1.31l7-5.4v-5.54h0l-14,14a.73.73,0,0,0,0,1l6.74,6.74,2.87-3.64Z" fill="#093071"/><polygon points="154.11 190.1 154.11 190.1 150.85 193.36 154.11 190.1" fill="#fff"/><path d="M160.49,174a.27.27,0,0,1,.23.14c.07.15,0,.3-.12.42l-6.17,7.83a.43.43,0,0,0,0,.45l3.44,5a.82.82,0,0,1-.15.94l-9.92,7.61a.51.51,0,0,1-.32.14.28.28,0,0,1-.22-.14c-.07-.15,0-.3.12-.42l6.17-7.83a.43.43,0,0,0,0-.45l-3.44-5a.72.72,0,0,1,.15-1l9.92-7.61a.49.49,0,0,1,.31-.14m0-.13a.62.62,0,0,0-.39.17l-9.92,7.61a.85.85,0,0,0-.18,1.16l3.44,4.95a.3.3,0,0,1,0,.3l-6.17,7.83a.53.53,0,0,0-.13.56.41.41,0,0,0,.32.21.64.64,0,0,0,.4-.17l9.92-7.61a1,1,0,0,0,.18-1.11l-3.44-5a.3.3,0,0,1,0-.3l6.17-7.83a.52.52,0,0,0,.14-.55.39.39,0,0,0-.34-.21Z" fill="#5e8cda"/><path d="M157.61,187.82c.08.12.15.58,0,.73l-9.92,7.61c-.08.06-.14.1-.16.09s0-.06.08-.18l6.16-7.82a.66.66,0,0,0,0-.74l-3.44-5S157.53,187.7,157.61,187.82Z" fill="#f5cd21"/><path d="M157.61,187.82l-3.39-4.87a.66.66,0,0,1,0-.74l6.17-7.83c.09-.12.12-.18.08-.18a.38.38,0,0,0-.16.09l-9.92,7.61a.48.48,0,0,0-.1.65Z" fill="#fddd75"/><path d="M166.23,132.64A12.25,12.25,0,1,1,154,120.39,12.25,12.25,0,0,1,166.23,132.64Z" fill="#58596c"/><path d="M165.33,128H142.64a12.25,12.25,0,1,0,22.68,0Z" fill="#ff5856"/><path d="M166.21,131.93q0-.43-.08-.86h-7.41v-2.63h6.77q-.16-.44-.35-.86H142.83q-.19.42-.35.86h6.77v2.63h-7.41q-.05.43-.08.86h3.17v2.63h-3q.07.44.17.86h7.19v2.63H143q.22.44.47.86h1.47v2a12.33,12.33,0,0,0,1.66,1.51h2.65v1.53q.42.18.86.32V142.4h7.76v1.86q.44-.15.86-.32V142.4h2.65a12.33,12.33,0,0,0,1.66-1.51v-2h1.47q.25-.42.47-.86h-6.25v-2.63h7.19q.1-.42.17-.86h-3v-2.63Zm-16.11-3.49h7.76v2.63H150.1Zm-4.31,6.12v-2.63h7.76v2.63Zm7.76,7h-7.76v-2.63h7.76Zm-3.45-3.49v-2.63h7.76v2.63Zm12.07.86v2.63h-7.76v-2.63Zm0-4.35h-7.76v-2.63h7.76Z" fill="#db4040"/><path d="M147.43,128.21a.93.93,0,0,1,0-.2h-4.81a12.26,12.26,0,0,0,4.78,15Z" fill="#db4040"/><path d="M147.43,135.42v-.86h-1.64v-2.63h1.64v-.86h-5.59q-.05.43-.08.86h3.17v2.63h-3q.07.44.17.86Z" fill="#cc3636"/><path d="M147.43,128.21a.93.93,0,0,1,.25-.63h-4.85q-.19.42-.35.86h5Z" fill="#cc3636"/><path d="M147.43,141.54h-1.64v-2.63h1.64v-.86H143q.22.44.47.86h1.47v2a12.33,12.33,0,0,0,1.66,1.51h.84Z" fill="#cc3636"/><path d="M161.07,131.35l-1.79.56a3.82,3.82,0,0,0,.2-4.82,5.28,5.28,0,0,1-1.15-2.82.31.31,0,0,0-.56-.14,7.36,7.36,0,0,0-.89,1.9h0a5.22,5.22,0,0,0-1.45-3.89,3.6,3.6,0,0,1-1-3.18.31.31,0,0,0-.47-.32,9.47,9.47,0,0,0-4.46,9.61h0c0,.27-.16.19-.22.14a7.71,7.71,0,0,1-1.2-1.28.31.31,0,0,0-.54.08,9.44,9.44,0,0,0,.68,7.9,6.65,6.65,0,0,0,6,3c4.46,0,6.9-2.7,7.36-6.4A.31.31,0,0,0,161.07,131.35Z" fill="#ffdc67"/><path d="M149.12,128.55a.31.31,0,0,1,.12-.15l0,0a7.71,7.71,0,0,1-1.2-1.28.31.31,0,0,0-.54.08c-1.27,3.55-.43,8.14,2.87,10A9.09,9.09,0,0,1,149.12,128.55Z" fill="#ffb456"/><path d="M149.42,128.24a.41.41,0,0,1,0,.1.31.31,0,0,1,.25.12,7.7,7.7,0,0,0,1.2,1.28c.07,0,.22.13.22-.14h0a9.47,9.47,0,0,1,3.43-8.88,3.32,3.32,0,0,1-.15-1.78.31.31,0,0,0-.47-.32,9.47,9.47,0,0,0-4.46,9.61Z" fill="#ffb456"/><path d="M158.11,134.19l-1.06.34a2.27,2.27,0,0,0,.12-2.87,3.14,3.14,0,0,1-.68-1.68.18.18,0,0,0-.33-.08,4.39,4.39,0,0,0-.53,1.13h0a3.11,3.11,0,0,0-.86-2.31,2.14,2.14,0,0,1-.62-1.89.18.18,0,0,0-.28-.19,5.64,5.64,0,0,0-2.65,5.73h0c0,.16-.11.08-.13.07a4.58,4.58,0,0,1-.71-.76.18.18,0,0,0-.32,0c-.82,2.29-.17,5.21,2.13,6.15a8.84,8.84,0,0,0,2,.21,9.87,9.87,0,0,0,1.43-.1,4,4,0,0,0,2.81-3.59A.18.18,0,0,0,158.11,134.19Z" fill="#ffb456"/><path d="M151.41,137.25a5.62,5.62,0,0,1-.41-4.7.19.19,0,0,1,.09-.1l0,0a4.58,4.58,0,0,1-.71-.76.18.18,0,0,0-.32,0c-.76,2.11-.26,4.82,1.68,5.93A3.93,3.93,0,0,1,151.41,137.25Z" fill="#fc974d"/><path d="M151.18,132.36a.14.14,0,0,1,0,.07.18.18,0,0,1,.16.07,4.58,4.58,0,0,0,.71.76s.14.09.13-.07a5.64,5.64,0,0,1,2-5.3,2,2,0,0,1-.1-1.08.18.18,0,0,0-.28-.19,5.64,5.64,0,0,0-2.65,5.73Z" fill="#fc974d"/><path d="M154.24,133.73a.53.53,0,0,0-.69,0,2.88,2.88,0,0,0,0,4.31l0,0h.59l.06,0a2.88,2.88,0,0,0,0-4.31Z" fill="#fc974d"/><path d="M153.74,136a2.85,2.85,0,0,1,.77-2,2.7,2.7,0,0,0-.27-.27.53.53,0,0,0-.69,0,2.88,2.88,0,0,0,0,4.31l0,0h.59l.06,0,.19-.19A2.85,2.85,0,0,1,153.74,136Z" fill="#f47f31"/><path d="M160.36,78.57h-3.63V76.69a2.72,2.72,0,1,0-5.43,0v1.87h-3.63V76.69a6.35,6.35,0,1,1,12.7,0Z" fill="#ffa400"/><path d="M161.85,78.57H146.17a1.21,1.21,0,0,0-1.22,1.22V91.38a1.21,1.21,0,0,0,1.22,1.22h15.68a1.21,1.21,0,0,0,1.22-1.22V79.79A1.26,1.26,0,0,0,161.85,78.57Zm-7.08,7.61v1.57a.8.8,0,1,1-1.61,0V86.18a1.58,1.58,0,0,1-.8-1.42,1.61,1.61,0,1,1,3.21,0A1.51,1.51,0,0,1,154.77,86.18Z" fill="#fff"/><path d="M144.56,76.85h-3.79a1.11,1.11,0,1,1,0-2.22h3.79a1.11,1.11,0,1,1,0,2.22Z" fill="#ffa400"/><path d="M147.24,70.88a1,1,0,0,1-.69-.27l-3-2.45A1.11,1.11,0,0,1,145,66.44l3,2.45a1.13,1.13,0,0,1,.15,1.57A1.27,1.27,0,0,1,147.24,70.88Z" fill="#ffa400"/><path d="M154,68.28a1.11,1.11,0,0,1-1.11-1.11V63.34a1.11,1.11,0,1,1,2.22,0v3.83A1.11,1.11,0,0,1,154,68.28Z" fill="#ffa400"/><path d="M160.74,70.88a1.07,1.07,0,0,1-.84-.42,1.14,1.14,0,0,1,.15-1.57l3-2.45a1.11,1.11,0,1,1,1.42,1.72l-3,2.45A1.07,1.07,0,0,1,160.74,70.88Z" fill="#ffa400"/><path d="M167.21,76.85h-3.83a1.11,1.11,0,0,1,0-2.22h3.83a1.11,1.11,0,0,1,0,2.22Z" fill="#ffa400"/><path d="M148.08,22.14a2.44,2.44,0,0,1,.72.11,19.78,19.78,0,0,1,2.85-2.62,2.4,2.4,0,0,1,.06-1.34A17.94,17.94,0,0,0,148,16.21a11.55,11.55,0,0,0-3.23,3,18.09,18.09,0,0,0,2.3,3.2A2.43,2.43,0,0,1,148.08,22.14Zm-2.45,2.45a2.44,2.44,0,0,1,.2-1,19.72,19.72,0,0,1-2.12-2.78,11.49,11.49,0,0,0,.39,11,19.49,19.49,0,0,1,2-5.82A2.43,2.43,0,0,1,145.64,24.59Zm8.4-8a2.43,2.43,0,0,1,1.67.66,19.49,19.49,0,0,1,4-1.24,11.5,11.5,0,0,0-9.78-.8A19.71,19.71,0,0,1,152.79,17,2.43,2.43,0,0,1,154,16.61Zm3.66,11.52a2.45,2.45,0,0,1,.64-.82,17.9,17.9,0,0,0-3.34-6,2.44,2.44,0,0,1-2.38-.26,18,18,0,0,0-2.45,2.25,2.44,2.44,0,0,1,.26,2A17.79,17.79,0,0,0,157.69,28.13Zm3.17,3.3q.05.69.05,1.4a19.83,19.83,0,0,1-.15,2.45,11.52,11.52,0,0,0,4.18-5.8,19.54,19.54,0,0,1-2.73.46A2.45,2.45,0,0,1,160.87,31.44Zm-3.75-1.66a19.51,19.51,0,0,1-7.76-3.11,2.43,2.43,0,0,1-1.28.36,2.46,2.46,0,0,1-.5-.05,17.79,17.79,0,0,0-2,6.86,11.52,11.52,0,0,0,3.93,2.75A19.57,19.57,0,0,1,157.12,29.78Zm4.59-12.3a17.78,17.78,0,0,0-5.24,1.34,2.27,2.27,0,0,1,0,.24,2.44,2.44,0,0,1-.25,1.08,19.61,19.61,0,0,1,3.71,6.61,2.45,2.45,0,0,1,2.21,1.49,17.77,17.77,0,0,0,3.22-.63,11.62,11.62,0,0,0,.11-1.61A11.47,11.47,0,0,0,161.71,17.48Zm-3.36,13.61a17.87,17.87,0,0,0-7.15,6.07,11.51,11.51,0,0,0,7.65-.73,17.89,17.89,0,0,0,.36-3.59c0-.44,0-.88-.05-1.32A2.45,2.45,0,0,1,158.35,31.09Z" fill="#0399ff"/><line x1="244.5" y1="211.5" x2="244.5" y2="226.5" fill="none" stroke="#0399ff" stroke-miterlimit="10"/><line x1="154.5" y1="226.5" x2="154.5" y2="241.5" fill="none" stroke="#0399ff" stroke-miterlimit="10"/><rect x="259.5" y="244" width="230" height="90" rx="13.42" ry="13.42" fill="#2e3d4c" stroke="#0399ff" stroke-linecap="round" stroke-miterlimit="10"/><path d="M310,272.5V261.08h1.87v9.82h4.84v1.6Z" fill="#fff"/><path d="M318.38,261.57a1,1,0,0,1,.27-.76,1.05,1.05,0,0,1,.77-.27,1,1,0,0,1,.75.27,1,1,0,0,1,.27.76,1,1,0,0,1-.27.74,1,1,0,0,1-.75.27,1,1,0,0,1-.77-.27A1,1,0,0,1,318.38,261.57Zm1.95,10.93h-1.84v-8.64h1.84Z" fill="#fff"/><path d="M326.16,271.17a4.46,4.46,0,0,0,1.34-.21v1.38a3.67,3.67,0,0,1-.79.22,5.44,5.44,0,0,1-1,.09q-2.61,0-2.61-2.75v-4.66h-1.18v-.81l1.27-.67.63-1.83H325v1.92h2.46v1.39H325v4.63a1.3,1.3,0,0,0,.33,1A1.21,1.21,0,0,0,326.16,271.17Z" fill="#fff"/><path d="M333,272.66a4.18,4.18,0,0,1-3.15-1.18,4.46,4.46,0,0,1-1.14-3.24,4.9,4.9,0,0,1,1.05-3.33,3.64,3.64,0,0,1,2.9-1.21,3.56,3.56,0,0,1,2.7,1,4,4,0,0,1,1,2.86v1h-5.76a2.84,2.84,0,0,0,.68,1.93,2.36,2.36,0,0,0,1.8.68,6.64,6.64,0,0,0,1.43-.14,7.37,7.37,0,0,0,1.42-.48v1.49a5.6,5.6,0,0,1-1.36.45A8.3,8.3,0,0,1,333,272.66Zm-.34-7.56a1.85,1.85,0,0,0-1.4.55,2.64,2.64,0,0,0-.63,1.62h3.92a2.4,2.4,0,0,0-.52-1.62A1.76,1.76,0,0,0,332.67,265.09Z" fill="#fff"/><path d="M345.23,269.4a2.87,2.87,0,0,1-1.1,2.39,4.79,4.79,0,0,1-3,.87,7.25,7.25,0,0,1-3.17-.6v-1.77a8.59,8.59,0,0,0,1.66.58,7,7,0,0,0,1.64.21,2.6,2.6,0,0,0,1.64-.42,1.37,1.37,0,0,0,.53-1.13,1.42,1.42,0,0,0-.48-1.09,7.29,7.29,0,0,0-2-1.05,5.28,5.28,0,0,1-2.2-1.45,3.06,3.06,0,0,1-.64-2,2.74,2.74,0,0,1,1-2.25,4.21,4.21,0,0,1,2.73-.82,8,8,0,0,1,3.27.72l-.59,1.52a7.14,7.14,0,0,0-2.72-.64,2.09,2.09,0,0,0-1.37.39,1.3,1.3,0,0,0-.47,1,1.47,1.47,0,0,0,.19.76,1.92,1.92,0,0,0,.62.6,10.34,10.34,0,0,0,1.55.74,8.5,8.5,0,0,1,1.84,1,2.88,2.88,0,0,1,.86,1A3.08,3.08,0,0,1,345.23,269.4Z" fill="#fff"/><path d="M351.63,272.66a3,3,0,0,1-2.55-1.18H349q.11,1.09.11,1.33v3.54h-1.84V263.86h1.48q.06.24.26,1.16h.09a2.88,2.88,0,0,1,2.58-1.31,3,3,0,0,1,2.52,1.17,6.43,6.43,0,0,1,0,6.59A3,3,0,0,1,351.63,272.66Zm-.45-7.45a1.91,1.91,0,0,0-1.6.64,3.32,3.32,0,0,0-.5,2v.27a4,4,0,0,0,.5,2.29,1.86,1.86,0,0,0,1.63.71,1.66,1.66,0,0,0,1.47-.78,4,4,0,0,0,.52-2.23,3.9,3.9,0,0,0-.51-2.2A1.71,1.71,0,0,0,351.19,265.2Z" fill="#fff"/><path d="M361,272.66a4.18,4.18,0,0,1-3.15-1.18,4.46,4.46,0,0,1-1.14-3.24,4.9,4.9,0,0,1,1.05-3.33,3.64,3.64,0,0,1,2.9-1.21,3.56,3.56,0,0,1,2.7,1,4,4,0,0,1,1,2.86v1h-5.76a2.84,2.84,0,0,0,.68,1.93,2.36,2.36,0,0,0,1.8.68,6.64,6.64,0,0,0,1.43-.14,7.37,7.37,0,0,0,1.42-.48v1.49a5.6,5.6,0,0,1-1.36.45A8.3,8.3,0,0,1,361,272.66Zm-.34-7.56a1.85,1.85,0,0,0-1.4.55,2.64,2.64,0,0,0-.63,1.62h3.92a2.4,2.4,0,0,0-.52-1.62A1.76,1.76,0,0,0,360.66,265.09Z" fill="#fff"/><path d="M370.21,272.66a4.18,4.18,0,0,1-3.15-1.18,4.46,4.46,0,0,1-1.14-3.24,4.9,4.9,0,0,1,1.05-3.33,3.64,3.64,0,0,1,2.9-1.21,3.56,3.56,0,0,1,2.7,1,4,4,0,0,1,1,2.86v1h-5.76a2.84,2.84,0,0,0,.68,1.93,2.36,2.36,0,0,0,1.8.68,6.64,6.64,0,0,0,1.43-.14,7.37,7.37,0,0,0,1.42-.48v1.49a5.6,5.6,0,0,1-1.36.45A8.3,8.3,0,0,1,370.21,272.66Zm-.34-7.56a1.85,1.85,0,0,0-1.4.55,2.64,2.64,0,0,0-.63,1.62h3.92a2.4,2.4,0,0,0-.52-1.62A1.76,1.76,0,0,0,369.88,265.09Z" fill="#fff"/><path d="M378.57,272.66a3,3,0,0,1-2.52-1.17,6.42,6.42,0,0,1,0-6.6,3,3,0,0,1,2.54-1.18A3,3,0,0,1,381.2,265h.09a10.94,10.94,0,0,1-.13-1.47v-3.15H383V272.5h-1.44l-.32-1.13h-.09A2.94,2.94,0,0,1,378.57,272.66Zm.49-1.48a2,2,0,0,0,1.65-.64,3.35,3.35,0,0,0,.53-2.07v-.26a3.87,3.87,0,0,0-.53-2.32,2,2,0,0,0-1.66-.69,1.69,1.69,0,0,0-1.49.79,4,4,0,0,0-.52,2.24,3.92,3.92,0,0,0,.51,2.19A1.71,1.71,0,0,0,379.06,271.17Z" fill="#fff"/><path d="M400.52,272.5h-2l-1.94-6.81q-.12-.45-.31-1.29t-.23-1.17q-.08.5-.25,1.3t-.29,1.19l-1.89,6.78h-2l-1.48-5.72-1.5-5.7h1.91l1.63,6.66q.38,1.6.55,2.83.09-.66.26-1.48t.31-1.33l1.86-6.67h1.85l1.91,6.7a25,25,0,0,1,.58,2.78,20.42,20.42,0,0,1,.56-2.84l1.63-6.64h1.89Z" fill="#fff"/><path d="M408.69,272.66a4.18,4.18,0,0,1-3.15-1.18,4.46,4.46,0,0,1-1.14-3.24,4.9,4.9,0,0,1,1.05-3.33,3.64,3.64,0,0,1,2.9-1.21,3.56,3.56,0,0,1,2.7,1,4,4,0,0,1,1,2.86v1h-5.76a2.84,2.84,0,0,0,.68,1.93,2.36,2.36,0,0,0,1.8.68,6.64,6.64,0,0,0,1.43-.14,7.37,7.37,0,0,0,1.42-.48v1.49a5.6,5.6,0,0,1-1.36.45A8.3,8.3,0,0,1,408.69,272.66Zm-.34-7.56a1.85,1.85,0,0,0-1.4.55,2.64,2.64,0,0,0-.63,1.62h3.92a2.4,2.4,0,0,0-.52-1.62A1.76,1.76,0,0,0,408.35,265.09Z" fill="#fff"/><path d="M418.55,263.7a3,3,0,0,1,2.52,1.17,6.45,6.45,0,0,1,0,6.6,3.33,3.33,0,0,1-5.09,0h-.12l-.34,1h-1.37V260.34H416v2.89q0,.32,0,1t0,.8H416A2.91,2.91,0,0,1,418.55,263.7Zm-.48,1.5a1.87,1.87,0,0,0-1.6.65A3.8,3.8,0,0,0,416,268v.13a4,4,0,0,0,.5,2.29,1.86,1.86,0,0,0,1.63.71,1.65,1.65,0,0,0,1.48-.77,4.1,4.1,0,0,0,.5-2.23Q420.09,265.2,418.07,265.2Z" fill="#fff"/><path d="M435,269.4a2.87,2.87,0,0,1-1.1,2.39,4.79,4.79,0,0,1-3,.87,7.25,7.25,0,0,1-3.17-.6v-1.77a8.59,8.59,0,0,0,1.66.58,7,7,0,0,0,1.64.21,2.6,2.6,0,0,0,1.64-.42,1.37,1.37,0,0,0,.53-1.13,1.42,1.42,0,0,0-.48-1.09,7.29,7.29,0,0,0-2-1.05,5.28,5.28,0,0,1-2.2-1.45,3.06,3.06,0,0,1-.64-2,2.74,2.74,0,0,1,1-2.25,4.21,4.21,0,0,1,2.73-.82,8,8,0,0,1,3.27.72l-.59,1.52a7.14,7.14,0,0,0-2.72-.64,2.09,2.09,0,0,0-1.37.39,1.3,1.3,0,0,0-.47,1,1.47,1.47,0,0,0,.19.76,1.92,1.92,0,0,0,.62.6,10.34,10.34,0,0,0,1.55.74,8.5,8.5,0,0,1,1.84,1,2.88,2.88,0,0,1,.86,1A3.08,3.08,0,0,1,435,269.4Z" fill="#fff"/><path d="M440.83,272.66a4.18,4.18,0,0,1-3.15-1.18,4.46,4.46,0,0,1-1.14-3.24,4.9,4.9,0,0,1,1.05-3.33,3.64,3.64,0,0,1,2.9-1.21,3.56,3.56,0,0,1,2.7,1,4,4,0,0,1,1,2.86v1h-5.76a2.84,2.84,0,0,0,.68,1.93,2.36,2.36,0,0,0,1.8.68,6.64,6.64,0,0,0,1.43-.14,7.37,7.37,0,0,0,1.42-.48v1.49a5.6,5.6,0,0,1-1.36.45A8.3,8.3,0,0,1,440.83,272.66Zm-.34-7.56a1.85,1.85,0,0,0-1.4.55,2.64,2.64,0,0,0-.63,1.62h3.92a2.4,2.4,0,0,0-.52-1.62A1.76,1.76,0,0,0,440.49,265.09Z" fill="#fff"/><path d="M450.66,263.7a4.44,4.44,0,0,1,.91.08l-.18,1.71a3.47,3.47,0,0,0-.81-.09,2.35,2.35,0,0,0-1.79.72,2.6,2.6,0,0,0-.68,1.87v4.52h-1.84v-8.64h1.44l.24,1.52H448a3.43,3.43,0,0,1,1.12-1.23A2.67,2.67,0,0,1,450.66,263.7Z" fill="#fff"/><path d="M455.14,272.5l-3.28-8.64h1.94l1.76,5a10,10,0,0,1,.55,2h.06a13.81,13.81,0,0,1,.55-2l1.76-5h2l-3.3,8.64Z" fill="#fff"/><path d="M465.51,272.66a4.18,4.18,0,0,1-3.15-1.18,4.46,4.46,0,0,1-1.14-3.24,4.9,4.9,0,0,1,1.05-3.33,3.64,3.64,0,0,1,2.9-1.21,3.56,3.56,0,0,1,2.7,1,4,4,0,0,1,1,2.86v1h-5.76a2.84,2.84,0,0,0,.68,1.93,2.36,2.36,0,0,0,1.8.68,6.64,6.64,0,0,0,1.43-.14,7.37,7.37,0,0,0,1.42-.48v1.49a5.6,5.6,0,0,1-1.36.45A8.3,8.3,0,0,1,465.51,272.66Zm-.34-7.56a1.85,1.85,0,0,0-1.4.55,2.64,2.64,0,0,0-.63,1.62h3.92a2.4,2.4,0,0,0-.52-1.62A1.76,1.76,0,0,0,465.17,265.09Z" fill="#fff"/><path d="M475.34,263.7a4.44,4.44,0,0,1,.91.08l-.18,1.71a3.47,3.47,0,0,0-.81-.09,2.35,2.35,0,0,0-1.79.72,2.6,2.6,0,0,0-.68,1.87v4.52H471v-8.64h1.44l.24,1.52h.09a3.43,3.43,0,0,1,1.12-1.23A2.67,2.67,0,0,1,475.34,263.7Z" fill="#fff"/><path d="M311.88,312.94v4.56H310V306.08h3.23a5.3,5.3,0,0,1,3.27.83,3,3,0,0,1,1.06,2.5,3.12,3.12,0,0,1-2.22,3l3.23,5.05h-2.12l-2.73-4.56Zm0-1.55h1.3a3,3,0,0,0,1.89-.48,1.76,1.76,0,0,0,.59-1.44,1.55,1.55,0,0,0-.63-1.39,3.47,3.47,0,0,0-1.91-.42h-1.23Z" fill="#fff"/><path d="M323.81,317.66a4.18,4.18,0,0,1-3.15-1.18,4.46,4.46,0,0,1-1.14-3.24,4.9,4.9,0,0,1,1.05-3.33,3.64,3.64,0,0,1,2.9-1.21,3.56,3.56,0,0,1,2.7,1,4,4,0,0,1,1,2.86v1h-5.76a2.84,2.84,0,0,0,.68,1.93,2.36,2.36,0,0,0,1.8.68,6.64,6.64,0,0,0,1.43-.14,7.37,7.37,0,0,0,1.42-.48v1.49a5.6,5.6,0,0,1-1.36.45A8.3,8.3,0,0,1,323.81,317.66Zm-.34-7.56a1.85,1.85,0,0,0-1.4.55,2.64,2.64,0,0,0-.63,1.62h3.92a2.4,2.4,0,0,0-.52-1.62A1.76,1.76,0,0,0,323.48,310.09Z" fill="#fff"/><path d="M332.17,317.66a3,3,0,0,1-2.52-1.17,6.42,6.42,0,0,1,0-6.6,3,3,0,0,1,2.54-1.18A3,3,0,0,1,334.8,310h.09a10.94,10.94,0,0,1-.13-1.47v-3.15h1.84V317.5h-1.44l-.32-1.13h-.09A2.94,2.94,0,0,1,332.17,317.66Zm.49-1.48a2,2,0,0,0,1.65-.64,3.35,3.35,0,0,0,.53-2.07v-.26a3.87,3.87,0,0,0-.53-2.32,2,2,0,0,0-1.66-.69,1.69,1.69,0,0,0-1.49.79,4,4,0,0,0-.52,2.24,3.92,3.92,0,0,0,.51,2.19A1.71,1.71,0,0,0,332.66,316.17Z" fill="#fff"/><path d="M339.12,306.57a1,1,0,0,1,.27-.76,1.05,1.05,0,0,1,.77-.27,1,1,0,0,1,.75.27,1,1,0,0,1,.27.76,1,1,0,0,1-.27.74,1,1,0,0,1-.75.27,1,1,0,0,1-.77-.27A1,1,0,0,1,339.12,306.57Zm1.95,10.93h-1.84v-8.64h1.84Z" fill="#fff"/><path d="M349.49,315a2.26,2.26,0,0,1-.92,1.94,4.41,4.41,0,0,1-2.64.68,6.23,6.23,0,0,1-2.77-.52v-1.59a6.81,6.81,0,0,0,2.84.7q1.69,0,1.7-1a.81.81,0,0,0-.19-.55,2.23,2.23,0,0,0-.62-.45,10.63,10.63,0,0,0-1.2-.53,5.51,5.51,0,0,1-2-1.16,2.14,2.14,0,0,1-.53-1.5,2,2,0,0,1,.89-1.72,4.25,4.25,0,0,1,2.43-.61,6.9,6.9,0,0,1,2.88.62l-.59,1.38a6.43,6.43,0,0,0-2.35-.58q-1.45,0-1.45.83a.83.83,0,0,0,.38.69,8.35,8.35,0,0,0,1.65.77,7.6,7.6,0,0,1,1.55.76,2.27,2.27,0,0,1,.72.79A2.3,2.3,0,0,1,349.49,315Z" fill="#fff"/><line x1="260.5" y1="289" x2="489" y2="289" fill="none" stroke="#0399ff" stroke-miterlimit="10"/><path d="M299.61,318.64c-1.36.71-8.41,3.61-9.91,4.39a3.35,3.35,0,0,1-3.52.21c-1.19-.57-8.69-3.6-10-4.24-.68-.32-1-.6-1-.85v-2.58s9.77-2.13,11.35-2.69a4,4,0,0,1,3.47-.09c1.34.49,9.37,1.94,10.69,2.43,0,0,0,2.3,0,2.54s-.31.53-1,.9" fill="#912626"/><path d="M299.61,316.08c-1.36.71-8.41,3.61-9.91,4.39a3.35,3.35,0,0,1-3.52.21c-1.19-.57-8.69-3.6-10-4.24s-1.38-1.09-.05-1.61,8.79-3.45,10.37-4a4,4,0,0,1,3.47-.09c1.34.49,8.35,3.28,9.68,3.77s1.38.89,0,1.6" fill="#c6302b"/><path d="M299.61,314.47c-1.36.71-8.41,3.61-9.91,4.39a3.35,3.35,0,0,1-3.52.21c-1.19-.57-8.69-3.6-10-4.24-.68-.32-1-.6-1-.85v-2.58s9.77-2.13,11.35-2.69a4,4,0,0,1,3.47-.09c1.34.49,9.37,1.94,10.69,2.43,0,0,0,2.3,0,2.54s-.31.53-1,.9" fill="#912626"/><path d="M299.61,311.91c-1.36.71-8.41,3.61-9.91,4.39a3.35,3.35,0,0,1-3.52.21c-1.19-.57-8.69-3.6-10-4.24s-1.38-1.09-.05-1.61,8.79-3.45,10.37-4a4,4,0,0,1,3.47-.09c1.34.49,8.35,3.28,9.68,3.77s1.38.89,0,1.6h0" fill="#c6302b"/><path d="M299.61,310.14c-1.36.71-8.41,3.61-9.91,4.39a3.35,3.35,0,0,1-3.52.21c-1.19-.57-8.69-3.6-10-4.24-.68-.32-1-.6-1-.85v-2.58s9.77-2.13,11.35-2.69a4,4,0,0,1,3.47-.09c1.34.49,9.37,1.94,10.69,2.43,0,0,0,2.3,0,2.54s-.31.53-1,.9" fill="#912626"/><path d="M299.61,307.58c-1.36.71-8.41,3.61-9.91,4.39a3.35,3.35,0,0,1-3.52.21c-1.19-.57-8.69-3.6-10-4.24s-1.38-1.09-.05-1.61,8.79-3.45,10.37-4a4,4,0,0,1,3.47-.09c1.34.49,8.35,3.28,9.68,3.77s1.38.89,0,1.6" fill="#c6302b"/><path d="M291,305.07l-2.19.23-.49,1.18-.79-1.32-2.53-.23,1.89-.68-.57-1,1.77.69,1.67-.55-.45,1.08,1.7.64" fill="#fff"/><path d="M288.15,310.8l-4.09-1.7,5.86-.9-1.77,2.6" fill="#fff"/><path d="M282.48,305.73c1.73,0,3.13.54,3.13,1.22s-1.4,1.22-3.13,1.22-3.13-.54-3.13-1.22,1.4-1.22,3.13-1.22" fill="#fff"/><path d="M293.56,305.4l3.47,1.37-3.47,1.37V305.4" fill="#621b1c"/><path d="M289.72,306.91l3.84-1.52v2.74l-.38.15-3.47-1.37" fill="#9a2928"/><path d="M298.62,266.81l-6.74-6.74L289,263.71l3.09,3.09a.74.74,0,0,1,0,1l-.9.9s.6.9.63,1a1.1,1.1,0,0,1-.22,1.23l-7,5.4c0,1.81,0,5.54,0,5.54l14-14A.74.74,0,0,0,298.62,266.81Z" fill="#5e8cda"/><path d="M283,267.66a.74.74,0,0,1,0-1l.9-.9-.61-.88a1,1,0,0,1,.2-1.31l7-5.4v-5.54h0l-14,14a.73.73,0,0,0,0,1l6.74,6.74,2.87-3.64Z" fill="#093071"/><polygon points="287.66 272.11 287.66 272.11 284.4 275.36 287.66 272.11" fill="#fff"/><path d="M294,256a.27.27,0,0,1,.23.14c.07.15,0,.3-.12.42L288,264.36a.43.43,0,0,0,0,.45l3.44,5a.82.82,0,0,1-.15.94l-9.92,7.61a.51.51,0,0,1-.32.14.28.28,0,0,1-.22-.14c-.07-.15,0-.3.12-.42l6.17-7.83a.43.43,0,0,0,0-.45l-3.44-5a.72.72,0,0,1,.15-1l9.92-7.61A.49.49,0,0,1,294,256m0-.13a.62.62,0,0,0-.39.17l-9.92,7.61a.85.85,0,0,0-.18,1.16l3.44,4.95a.3.3,0,0,1,0,.3l-6.17,7.83a.53.53,0,0,0-.13.56.41.41,0,0,0,.32.21.64.64,0,0,0,.4-.17l9.92-7.61a1,1,0,0,0,.18-1.11l-3.44-5a.3.3,0,0,1,0-.3l6.17-7.83a.52.52,0,0,0,.14-.55.39.39,0,0,0-.34-.21Z" fill="#5e8cda"/><path d="M291.17,269.82c.08.12.15.58,0,.73l-9.92,7.61c-.08.06-.14.1-.16.09s0-.06.08-.18l6.16-7.82a.66.66,0,0,0,0-.74l-3.44-5S291.09,269.7,291.17,269.82Z" fill="#f5cd21"/><path d="M291.17,269.82l-3.39-4.87a.66.66,0,0,1,0-.74l6.17-7.83c.09-.12.12-.18.08-.18a.38.38,0,0,0-.16.09L284,263.92a.48.48,0,0,0-.1.65Z" fill="#fddd75"/><rect x="0.5" y="244" width="230" height="90" rx="13.42" ry="13.42" fill="#2e3d4c" stroke="#0399ff" stroke-linecap="round" stroke-miterlimit="10"/><path d="M51,272.5V261.08h1.87v9.82h4.84v1.6Z" fill="#fff"/><path d="M59.38,261.57a1,1,0,0,1,.27-.76,1.05,1.05,0,0,1,.77-.27,1,1,0,0,1,.75.27,1,1,0,0,1,.27.76,1,1,0,0,1-.27.74,1,1,0,0,1-.75.27,1,1,0,0,1-.77-.27A1,1,0,0,1,59.38,261.57Zm1.95,10.93H59.48v-8.64h1.84Z" fill="#fff"/><path d="M67.16,271.17a4.46,4.46,0,0,0,1.34-.21v1.38a3.67,3.67,0,0,1-.79.22,5.44,5.44,0,0,1-1,.09q-2.61,0-2.61-2.75v-4.66H62.94v-.81l1.27-.67.63-1.83H66v1.92h2.46v1.39H66v4.63a1.3,1.3,0,0,0,.33,1A1.21,1.21,0,0,0,67.16,271.17Z" fill="#fff"/><path d="M74,272.66a4.18,4.18,0,0,1-3.15-1.18,4.46,4.46,0,0,1-1.14-3.24,4.9,4.9,0,0,1,1.05-3.33,3.64,3.64,0,0,1,2.9-1.21,3.56,3.56,0,0,1,2.7,1,4,4,0,0,1,1,2.86v1H71.61a2.84,2.84,0,0,0,.68,1.93,2.36,2.36,0,0,0,1.8.68,6.64,6.64,0,0,0,1.43-.14,7.37,7.37,0,0,0,1.42-.48v1.49a5.6,5.6,0,0,1-1.36.45A8.3,8.3,0,0,1,74,272.66Zm-.34-7.56a1.85,1.85,0,0,0-1.4.55,2.64,2.64,0,0,0-.63,1.62h3.92a2.4,2.4,0,0,0-.52-1.62A1.76,1.76,0,0,0,73.67,265.09Z" fill="#fff"/><path d="M86.23,269.4a2.87,2.87,0,0,1-1.1,2.39,4.79,4.79,0,0,1-3,.87,7.25,7.25,0,0,1-3.17-.6v-1.77a8.59,8.59,0,0,0,1.66.58,7,7,0,0,0,1.64.21,2.6,2.6,0,0,0,1.64-.42,1.37,1.37,0,0,0,.53-1.13,1.42,1.42,0,0,0-.48-1.09,7.29,7.29,0,0,0-2-1.05,5.28,5.28,0,0,1-2.2-1.45,3.06,3.06,0,0,1-.64-2,2.74,2.74,0,0,1,1-2.25,4.21,4.21,0,0,1,2.73-.82,8,8,0,0,1,3.27.72l-.59,1.52a7.14,7.14,0,0,0-2.72-.64,2.09,2.09,0,0,0-1.37.39,1.3,1.3,0,0,0-.47,1,1.47,1.47,0,0,0,.19.76,1.92,1.92,0,0,0,.62.6,10.34,10.34,0,0,0,1.55.74,8.5,8.5,0,0,1,1.84,1,2.88,2.88,0,0,1,.86,1A3.08,3.08,0,0,1,86.23,269.4Z" fill="#fff"/><path d="M92.63,272.66a3,3,0,0,1-2.55-1.18H90q.11,1.09.11,1.33v3.54H88.25V263.86h1.48q.06.24.26,1.16h.09a2.88,2.88,0,0,1,2.58-1.31,3,3,0,0,1,2.52,1.17,6.43,6.43,0,0,1,0,6.59A3,3,0,0,1,92.63,272.66Zm-.45-7.45a1.91,1.91,0,0,0-1.6.64,3.32,3.32,0,0,0-.5,2v.27a4,4,0,0,0,.5,2.29,1.86,1.86,0,0,0,1.63.71,1.66,1.66,0,0,0,1.47-.78,4,4,0,0,0,.52-2.23,3.9,3.9,0,0,0-.51-2.2A1.71,1.71,0,0,0,92.19,265.2Z" fill="#fff"/><path d="M102,272.66a4.18,4.18,0,0,1-3.15-1.18,4.46,4.46,0,0,1-1.14-3.24,4.9,4.9,0,0,1,1.05-3.33,3.64,3.64,0,0,1,2.9-1.21,3.56,3.56,0,0,1,2.7,1,4,4,0,0,1,1,2.86v1H99.59a2.84,2.84,0,0,0,.68,1.93,2.36,2.36,0,0,0,1.8.68,6.64,6.64,0,0,0,1.43-.14,7.37,7.37,0,0,0,1.42-.48v1.49a5.6,5.6,0,0,1-1.36.45A8.3,8.3,0,0,1,102,272.66Zm-.34-7.56a1.85,1.85,0,0,0-1.4.55,2.64,2.64,0,0,0-.63,1.62h3.92a2.4,2.4,0,0,0-.52-1.62A1.76,1.76,0,0,0,101.66,265.09Z" fill="#fff"/><path d="M111.21,272.66a4.18,4.18,0,0,1-3.15-1.18,4.46,4.46,0,0,1-1.14-3.24,4.9,4.9,0,0,1,1.05-3.33,3.64,3.64,0,0,1,2.9-1.21,3.56,3.56,0,0,1,2.7,1,4,4,0,0,1,1,2.86v1h-5.76a2.84,2.84,0,0,0,.68,1.93,2.36,2.36,0,0,0,1.8.68,6.64,6.64,0,0,0,1.43-.14,7.37,7.37,0,0,0,1.42-.48v1.49a5.6,5.6,0,0,1-1.36.45A8.3,8.3,0,0,1,111.21,272.66Zm-.34-7.56a1.85,1.85,0,0,0-1.4.55,2.64,2.64,0,0,0-.63,1.62h3.92a2.4,2.4,0,0,0-.52-1.62A1.76,1.76,0,0,0,110.88,265.09Z" fill="#fff"/><path d="M119.57,272.66a3,3,0,0,1-2.52-1.17,6.42,6.42,0,0,1,0-6.6,3,3,0,0,1,2.54-1.18A3,3,0,0,1,122.2,265h.09a10.94,10.94,0,0,1-.13-1.47v-3.15H124V272.5h-1.44l-.32-1.13h-.09A2.94,2.94,0,0,1,119.57,272.66Zm.49-1.48a2,2,0,0,0,1.65-.64,3.35,3.35,0,0,0,.53-2.07v-.26a3.87,3.87,0,0,0-.53-2.32,2,2,0,0,0-1.66-.69,1.69,1.69,0,0,0-1.49.79,4,4,0,0,0-.52,2.24,3.92,3.92,0,0,0,.51,2.19A1.71,1.71,0,0,0,120.06,271.17Z" fill="#fff"/><path d="M141.52,272.5h-2l-1.94-6.81q-.12-.45-.31-1.29t-.23-1.17q-.08.5-.25,1.3t-.29,1.19l-1.89,6.78h-2l-1.48-5.72-1.5-5.7h1.91l1.63,6.66q.38,1.6.55,2.83.09-.66.26-1.48t.31-1.33l1.86-6.67h1.85l1.91,6.7a25,25,0,0,1,.58,2.78,20.42,20.42,0,0,1,.56-2.84l1.63-6.64h1.89Z" fill="#fff"/><path d="M149.69,272.66a4.18,4.18,0,0,1-3.15-1.18,4.46,4.46,0,0,1-1.14-3.24,4.9,4.9,0,0,1,1.05-3.33,3.64,3.64,0,0,1,2.9-1.21,3.56,3.56,0,0,1,2.7,1,4,4,0,0,1,1,2.86v1h-5.76a2.84,2.84,0,0,0,.68,1.93,2.36,2.36,0,0,0,1.8.68,6.64,6.64,0,0,0,1.43-.14,7.37,7.37,0,0,0,1.42-.48v1.49a5.6,5.6,0,0,1-1.36.45A8.3,8.3,0,0,1,149.69,272.66Zm-.34-7.56a1.85,1.85,0,0,0-1.4.55,2.64,2.64,0,0,0-.63,1.62h3.92a2.4,2.4,0,0,0-.52-1.62A1.76,1.76,0,0,0,149.35,265.09Z" fill="#fff"/><path d="M159.55,263.7a3,3,0,0,1,2.52,1.17,6.45,6.45,0,0,1,0,6.6,3.33,3.33,0,0,1-5.09,0h-.12l-.34,1h-1.37V260.34H157v2.89q0,.32,0,1t0,.8H157A2.91,2.91,0,0,1,159.55,263.7Zm-.48,1.5a1.87,1.87,0,0,0-1.6.65A3.8,3.8,0,0,0,157,268v.13a4,4,0,0,0,.5,2.29,1.86,1.86,0,0,0,1.63.71,1.65,1.65,0,0,0,1.48-.77,4.1,4.1,0,0,0,.5-2.23Q161.09,265.2,159.07,265.2Z" fill="#fff"/><path d="M176,269.4a2.87,2.87,0,0,1-1.1,2.39,4.79,4.79,0,0,1-3,.87,7.25,7.25,0,0,1-3.17-.6v-1.77a8.59,8.59,0,0,0,1.66.58,7,7,0,0,0,1.64.21,2.6,2.6,0,0,0,1.64-.42,1.37,1.37,0,0,0,.53-1.13,1.42,1.42,0,0,0-.48-1.09,7.29,7.29,0,0,0-2-1.05,5.28,5.28,0,0,1-2.2-1.45,3.06,3.06,0,0,1-.64-2,2.74,2.74,0,0,1,1-2.25,4.21,4.21,0,0,1,2.73-.82,8,8,0,0,1,3.27.72l-.59,1.52a7.14,7.14,0,0,0-2.72-.64,2.09,2.09,0,0,0-1.37.39,1.3,1.3,0,0,0-.47,1,1.47,1.47,0,0,0,.19.76,1.92,1.92,0,0,0,.62.6,10.34,10.34,0,0,0,1.55.74,8.5,8.5,0,0,1,1.84,1,2.88,2.88,0,0,1,.86,1A3.08,3.08,0,0,1,176,269.4Z" fill="#fff"/><path d="M181.83,272.66a4.18,4.18,0,0,1-3.15-1.18,4.46,4.46,0,0,1-1.14-3.24,4.9,4.9,0,0,1,1.05-3.33,3.64,3.64,0,0,1,2.9-1.21,3.56,3.56,0,0,1,2.7,1,4,4,0,0,1,1,2.86v1h-5.76a2.84,2.84,0,0,0,.68,1.93,2.36,2.36,0,0,0,1.8.68,6.64,6.64,0,0,0,1.43-.14,7.37,7.37,0,0,0,1.42-.48v1.49a5.6,5.6,0,0,1-1.36.45A8.3,8.3,0,0,1,181.83,272.66Zm-.34-7.56a1.85,1.85,0,0,0-1.4.55,2.64,2.64,0,0,0-.63,1.62h3.92a2.4,2.4,0,0,0-.52-1.62A1.76,1.76,0,0,0,181.49,265.09Z" fill="#fff"/><path d="M191.66,263.7a4.44,4.44,0,0,1,.91.08l-.18,1.71a3.47,3.47,0,0,0-.81-.09,2.35,2.35,0,0,0-1.79.72,2.6,2.6,0,0,0-.68,1.87v4.52h-1.84v-8.64h1.44l.24,1.52H189a3.43,3.43,0,0,1,1.12-1.23A2.67,2.67,0,0,1,191.66,263.7Z" fill="#fff"/><path d="M196.14,272.5l-3.28-8.64h1.94l1.76,5a10,10,0,0,1,.55,2h.06a13.81,13.81,0,0,1,.55-2l1.76-5h2l-3.3,8.64Z" fill="#fff"/><path d="M206.51,272.66a4.18,4.18,0,0,1-3.15-1.18,4.46,4.46,0,0,1-1.14-3.24,4.9,4.9,0,0,1,1.05-3.33,3.64,3.64,0,0,1,2.9-1.21,3.56,3.56,0,0,1,2.7,1,4,4,0,0,1,1,2.86v1h-5.76a2.84,2.84,0,0,0,.68,1.93,2.36,2.36,0,0,0,1.8.68,6.64,6.64,0,0,0,1.43-.14,7.37,7.37,0,0,0,1.42-.48v1.49a5.6,5.6,0,0,1-1.36.45A8.3,8.3,0,0,1,206.51,272.66Zm-.34-7.56a1.85,1.85,0,0,0-1.4.55,2.64,2.64,0,0,0-.63,1.62h3.92a2.4,2.4,0,0,0-.52-1.62A1.76,1.76,0,0,0,206.17,265.09Z" fill="#fff"/><path d="M216.34,263.7a4.44,4.44,0,0,1,.91.08l-.18,1.71a3.47,3.47,0,0,0-.81-.09,2.35,2.35,0,0,0-1.79.72,2.6,2.6,0,0,0-.68,1.87v4.52H212v-8.64h1.44l.24,1.52h.09a3.43,3.43,0,0,1,1.12-1.23A2.67,2.67,0,0,1,216.34,263.7Z" fill="#fff"/><path d="M52.88,312.94v4.56H51V306.08h3.23a5.3,5.3,0,0,1,3.27.83,3,3,0,0,1,1.06,2.5,3.12,3.12,0,0,1-2.22,3l3.23,5.05H57.45l-2.73-4.56Zm0-1.55h1.3a3,3,0,0,0,1.89-.48,1.76,1.76,0,0,0,.59-1.44,1.55,1.55,0,0,0-.63-1.39,3.47,3.47,0,0,0-1.91-.42H52.88Z" fill="#fff"/><path d="M64.81,317.66a4.18,4.18,0,0,1-3.15-1.18,4.46,4.46,0,0,1-1.14-3.24,4.9,4.9,0,0,1,1.05-3.33,3.64,3.64,0,0,1,2.9-1.21,3.56,3.56,0,0,1,2.7,1,4,4,0,0,1,1,2.86v1H62.41a2.84,2.84,0,0,0,.68,1.93,2.36,2.36,0,0,0,1.8.68,6.64,6.64,0,0,0,1.43-.14,7.37,7.37,0,0,0,1.42-.48v1.49a5.6,5.6,0,0,1-1.36.45A8.3,8.3,0,0,1,64.81,317.66Zm-.34-7.56a1.85,1.85,0,0,0-1.4.55,2.64,2.64,0,0,0-.63,1.62h3.92a2.4,2.4,0,0,0-.52-1.62A1.76,1.76,0,0,0,64.48,310.09Z" fill="#fff"/><path d="M73.17,317.66a3,3,0,0,1-2.52-1.17,6.42,6.42,0,0,1,0-6.6,3,3,0,0,1,2.54-1.18A3,3,0,0,1,75.8,310h.09a10.94,10.94,0,0,1-.13-1.47v-3.15H77.6V317.5H76.16l-.32-1.13h-.09A2.94,2.94,0,0,1,73.17,317.66Zm.49-1.48a2,2,0,0,0,1.65-.64,3.35,3.35,0,0,0,.53-2.07v-.26a3.87,3.87,0,0,0-.53-2.32,2,2,0,0,0-1.66-.69,1.69,1.69,0,0,0-1.49.79,4,4,0,0,0-.52,2.24,3.92,3.92,0,0,0,.51,2.19A1.71,1.71,0,0,0,73.66,316.17Z" fill="#fff"/><path d="M80.12,306.57a1,1,0,0,1,.27-.76,1.05,1.05,0,0,1,.77-.27,1,1,0,0,1,.75.27,1,1,0,0,1,.27.76,1,1,0,0,1-.27.74,1,1,0,0,1-.75.27,1,1,0,0,1-.77-.27A1,1,0,0,1,80.12,306.57Zm1.95,10.93H80.23v-8.64h1.84Z" fill="#fff"/><path d="M90.49,315a2.26,2.26,0,0,1-.92,1.94,4.41,4.41,0,0,1-2.64.68,6.23,6.23,0,0,1-2.77-.52v-1.59a6.81,6.81,0,0,0,2.84.7q1.69,0,1.7-1a.81.81,0,0,0-.19-.55,2.23,2.23,0,0,0-.62-.45,10.63,10.63,0,0,0-1.2-.53,5.51,5.51,0,0,1-2-1.16,2.14,2.14,0,0,1-.53-1.5,2,2,0,0,1,.89-1.72,4.25,4.25,0,0,1,2.43-.61,6.9,6.9,0,0,1,2.88.62l-.59,1.38a6.43,6.43,0,0,0-2.35-.58q-1.45,0-1.45.83a.83.83,0,0,0,.38.69,8.35,8.35,0,0,0,1.65.77,7.6,7.6,0,0,1,1.55.76,2.27,2.27,0,0,1,.72.79A2.3,2.3,0,0,1,90.49,315Z" fill="#fff"/><line x1="1.5" y1="289" x2="230" y2="289" fill="none" stroke="#0399ff" stroke-miterlimit="10"/><path d="M40.61,318.64c-1.36.71-8.41,3.61-9.91,4.39a3.35,3.35,0,0,1-3.52.21c-1.19-.57-8.69-3.6-10-4.24-.68-.32-1-.6-1-.85v-2.58s9.77-2.13,11.35-2.69a4,4,0,0,1,3.47-.09c1.34.49,9.37,1.94,10.69,2.43,0,0,0,2.3,0,2.54s-.31.53-1,.9" fill="#912626"/><path d="M40.61,316.08c-1.36.71-8.41,3.61-9.91,4.39a3.35,3.35,0,0,1-3.52.21c-1.19-.57-8.69-3.6-10-4.24s-1.38-1.09-.05-1.61,8.79-3.45,10.37-4a4,4,0,0,1,3.47-.09c1.34.49,8.35,3.28,9.68,3.77s1.38.89,0,1.6" fill="#c6302b"/><path d="M40.61,314.47c-1.36.71-8.41,3.61-9.91,4.39a3.35,3.35,0,0,1-3.52.21c-1.19-.57-8.69-3.6-10-4.24-.68-.32-1-.6-1-.85v-2.58s9.77-2.13,11.35-2.69a4,4,0,0,1,3.47-.09c1.34.49,9.37,1.94,10.69,2.43,0,0,0,2.3,0,2.54s-.31.53-1,.9" fill="#912626"/><path d="M40.61,311.91c-1.36.71-8.41,3.61-9.91,4.39a3.35,3.35,0,0,1-3.52.21c-1.19-.57-8.69-3.6-10-4.24s-1.38-1.09-.05-1.61,8.79-3.45,10.37-4a4,4,0,0,1,3.47-.09c1.34.49,8.35,3.28,9.68,3.77s1.38.89,0,1.6h0" fill="#c6302b"/><path d="M40.61,310.14c-1.36.71-8.41,3.61-9.91,4.39a3.35,3.35,0,0,1-3.52.21c-1.19-.57-8.69-3.6-10-4.24-.68-.32-1-.6-1-.85v-2.58s9.77-2.13,11.35-2.69a4,4,0,0,1,3.47-.09c1.34.49,9.37,1.94,10.69,2.43,0,0,0,2.3,0,2.54s-.31.53-1,.9" fill="#912626"/><path d="M40.61,307.58c-1.36.71-8.41,3.61-9.91,4.39a3.35,3.35,0,0,1-3.52.21c-1.19-.57-8.69-3.6-10-4.24s-1.38-1.09-.05-1.61,8.79-3.45,10.37-4a4,4,0,0,1,3.47-.09c1.34.49,8.35,3.28,9.68,3.77s1.38.89,0,1.6" fill="#c6302b"/><path d="M32,305.07l-2.19.23-.49,1.18-.79-1.32L26,304.94l1.89-.68-.57-1,1.77.69,1.67-.55-.45,1.08,1.7.64" fill="#fff"/><path d="M29.15,310.8l-4.09-1.7,5.86-.9-1.77,2.6" fill="#fff"/><path d="M23.48,305.73c1.73,0,3.13.54,3.13,1.22s-1.4,1.22-3.13,1.22-3.13-.54-3.13-1.22,1.4-1.22,3.13-1.22" fill="#fff"/><path d="M34.56,305.4,38,306.77l-3.47,1.37V305.4" fill="#621b1c"/><path d="M30.72,306.91l3.84-1.52v2.74l-.38.15-3.47-1.37" fill="#9a2928"/><path d="M39.62,266.81l-6.74-6.74L30,263.71l3.09,3.09a.74.74,0,0,1,0,1l-.9.9s.6.9.63,1a1.1,1.1,0,0,1-.22,1.23l-7,5.4c0,1.81,0,5.54,0,5.54l14-14A.74.74,0,0,0,39.62,266.81Z" fill="#5e8cda"/><path d="M24,267.66a.74.74,0,0,1,0-1l.9-.9-.61-.88a1,1,0,0,1,.2-1.31l7-5.4v-5.54h0l-14,14a.73.73,0,0,0,0,1l6.74,6.74,2.87-3.64Z" fill="#093071"/><polygon points="28.66 272.11 28.66 272.11 25.41 275.36 28.66 272.11" fill="#fff"/><path d="M35,256a.27.27,0,0,1,.23.14c.07.15,0,.3-.12.42L29,264.36a.43.43,0,0,0,0,.45l3.44,5a.82.82,0,0,1-.15.94l-9.92,7.61a.51.51,0,0,1-.32.14.28.28,0,0,1-.22-.14c-.07-.15,0-.3.12-.42l6.17-7.83a.43.43,0,0,0,0-.45l-3.44-5a.72.72,0,0,1,.15-1l9.92-7.61A.49.49,0,0,1,35,256m0-.13a.62.62,0,0,0-.39.17l-9.92,7.61a.85.85,0,0,0-.18,1.16L28,269.73a.3.3,0,0,1,0,.3l-6.17,7.83a.53.53,0,0,0-.13.56.41.41,0,0,0,.32.21.64.64,0,0,0,.4-.17l9.92-7.61a1,1,0,0,0,.18-1.11l-3.44-5a.3.3,0,0,1,0-.3l6.17-7.83a.52.52,0,0,0,.14-.55.39.39,0,0,0-.34-.21Z" fill="#5e8cda"/><path d="M32.17,269.82c.08.12.15.58,0,.73l-9.92,7.61c-.08.06-.14.1-.16.09s0-.06.08-.18l6.16-7.82a.66.66,0,0,0,0-.74l-3.44-5S32.09,269.7,32.17,269.82Z" fill="#f5cd21"/><path d="M32.17,269.82l-3.39-4.87a.66.66,0,0,1,0-.74L35,256.38c.09-.12.12-.18.08-.18a.38.38,0,0,0-.16.09L25,263.92a.48.48,0,0,0-.1.65Z" fill="#fddd75"/><line x1="335.5" y1="226.5" x2="335.5" y2="241.5" fill="none" stroke="#0399ff" stroke-miterlimit="10"/><line x1="335" y1="227" x2="154" y2="227" fill="none" stroke="#0399ff" stroke-miterlimit="10"/><line x1="244.5" y1="366.5" x2="244.5" y2="351.5" fill="none" stroke="#0399ff" stroke-miterlimit="10"/><line x1="244.25" y1="451.5" x2="244.25" y2="436.5" fill="none" stroke="#0399ff" stroke-miterlimit="10"/><rect x="290.25" y="453" width="50" height="50" rx="4.66" ry="4.66" fill="#2e3d4c" stroke="#0399ff" stroke-linecap="round" stroke-miterlimit="10"/><line x1="315.25" y1="451.5" x2="315.25" y2="436.5" fill="none" stroke="#0399ff" stroke-miterlimit="10"/><rect x="153.25" y="453" width="50" height="50" rx="4.66" ry="4.66" fill="#2e3d4c" stroke="#0399ff" stroke-linecap="round" stroke-miterlimit="10"/><line x1="178.25" y1="451.5" x2="178.25" y2="436.5" fill="none" stroke="#0399ff" stroke-miterlimit="10"/><line x1="154.5" y1="351.5" x2="154.5" y2="336.5" fill="none" stroke="#0399ff" stroke-miterlimit="10"/><line x1="112.5" y1="436" x2="112.5" y2="336.5" fill="none" stroke="#0399ff" stroke-miterlimit="10"/><line x1="377.5" y1="436" x2="377.5" y2="336.5" fill="none" stroke="#0399ff" stroke-miterlimit="10"/><line x1="335.5" y1="351.5" x2="335.5" y2="336.5" fill="none" stroke="#0399ff" stroke-miterlimit="10"/><line x1="335" y1="351" x2="154" y2="351" fill="none" stroke="#0399ff" stroke-miterlimit="10"/><line x1="378" y1="436" x2="112" y2="436" fill="none" stroke="#0399ff" stroke-miterlimit="10"/><path d="M178.5,485.16c-6,0-10.92-1.73-10.92-3.87V487h0c.33,2,5.09,3.64,10.9,3.64S189.07,489,189.4,487h0v-5.69C189.42,483.43,184.53,485.16,178.5,485.16Z" fill="#ffa10b"/><path d="M167.58,481.07v.23a1.41,1.41,0,0,1,0-.23Z" fill="#ffa10b"/><path d="M189.4,481.07a1.41,1.41,0,0,1,0,.23v-.23Z" fill="#ffa10b"/><path d="M178.5,479.7c-6,0-10.92-1.73-10.92-3.87v5.69h0c.33,2,5.09,3.64,10.9,3.64s10.57-1.61,10.9-3.64h0v-5.69C189.42,478,184.53,479.7,178.5,479.7Z" fill="#ffb70a"/><path d="M167.58,475.6v.23a1.41,1.41,0,0,1,0-.23Z" fill="#ffb70a"/><path d="M189.4,475.6a1.41,1.41,0,0,1,0,.23v-.23Z" fill="#ffb70a"/><ellipse cx="178.5" cy="470.37" rx="10.92" ry="3.87" fill="#ffb70a"/><path d="M178.5,474.24c-6,0-10.92-1.73-10.92-3.87v5.69h0c.33,2,5.09,3.64,10.9,3.64s10.57-1.61,10.9-3.64h0v-5.69C189.42,472.51,184.53,474.24,178.5,474.24Z" fill="#ffa10b"/><path d="M167.58,470.14v.23a1.41,1.41,0,0,1,0-.23Z" fill="#ffa10b"/><path d="M189.4,470.14a1.42,1.42,0,0,1,0,.23v-.23Z" fill="#ffa10b"/><path d="M244.33,485.16c-6,0-10.92-1.73-10.92-3.87V487h0c.33,2,5.09,3.64,10.9,3.64S254.9,489,255.23,487h0v-5.69C255.25,483.43,250.36,485.16,244.33,485.16Z" fill="#ffa10b"/><path d="M233.4,481.07v.23a1.41,1.41,0,0,1,0-.23Z" fill="#ffa10b"/><path d="M255.23,481.07a1.41,1.41,0,0,1,0,.23v-.23Z" fill="#ffa10b"/><path d="M244.33,479.7c-6,0-10.92-1.73-10.92-3.87v5.69h0c.33,2,5.09,3.64,10.9,3.64s10.57-1.61,10.9-3.64h0v-5.69C255.25,478,250.36,479.7,244.33,479.7Z" fill="#ffb70a"/><path d="M233.4,475.6v.23a1.41,1.41,0,0,1,0-.23Z" fill="#ffb70a"/><path d="M255.23,475.6a1.41,1.41,0,0,1,0,.23v-.23Z" fill="#ffb70a"/><ellipse cx="244.33" cy="470.37" rx="10.92" ry="3.87" fill="#ffb70a"/><path d="M244.33,474.24c-6,0-10.92-1.73-10.92-3.87v5.69h0c.33,2,5.09,3.64,10.9,3.64s10.57-1.61,10.9-3.64h0v-5.69C255.25,472.51,250.36,474.24,244.33,474.24Z" fill="#ffa10b"/><path d="M233.4,470.14v.23a1.41,1.41,0,0,1,0-.23Z" fill="#ffa10b"/><path d="M255.23,470.14a1.42,1.42,0,0,1,0,.23v-.23Z" fill="#ffa10b"/><path d="M315.33,485.16c-6,0-10.92-1.73-10.92-3.87V487h0c.33,2,5.09,3.64,10.9,3.64S325.9,489,326.23,487h0v-5.69C326.25,483.43,321.36,485.16,315.33,485.16Z" fill="#ffa10b"/><path d="M304.4,481.07v.23a1.41,1.41,0,0,1,0-.23Z" fill="#ffa10b"/><path d="M326.23,481.07a1.41,1.41,0,0,1,0,.23v-.23Z" fill="#ffa10b"/><path d="M315.33,479.7c-6,0-10.92-1.73-10.92-3.87v5.69h0c.33,2,5.09,3.64,10.9,3.64s10.57-1.61,10.9-3.64h0v-5.69C326.25,478,321.36,479.7,315.33,479.7Z" fill="#ffb70a"/><path d="M304.4,475.6v.23a1.41,1.41,0,0,1,0-.23Z" fill="#ffb70a"/><path d="M326.23,475.6a1.41,1.41,0,0,1,0,.23v-.23Z" fill="#ffb70a"/><ellipse cx="315.33" cy="470.37" rx="10.92" ry="3.87" fill="#ffb70a"/><path d="M315.33,474.24c-6,0-10.92-1.73-10.92-3.87v5.69h0c.33,2,5.09,3.64,10.9,3.64s10.57-1.61,10.9-3.64h0v-5.69C326.25,472.51,321.36,474.24,315.33,474.24Z" fill="#ffa10b"/><path d="M304.4,470.14v.23a1.41,1.41,0,0,1,0-.23Z" fill="#ffa10b"/><path d="M326.23,470.14a1.42,1.42,0,0,1,0,.23v-.23Z" fill="#ffa10b"/><path d="M222.68,520.3h4.2V526a12.1,12.1,0,0,1-2,.48,14,14,0,0,1-2.05.14,5.15,5.15,0,0,1-4-1.54,6.18,6.18,0,0,1-1.41-4.33,5.78,5.78,0,0,1,1.59-4.32,6,6,0,0,1,4.37-1.56,8.51,8.51,0,0,1,3.39.69l-.66,1.55a6.6,6.6,0,0,0-2.78-.64,3.74,3.74,0,0,0-2.89,1.15,4.45,4.45,0,0,0-1.06,3.14,4.69,4.69,0,0,0,1,3.18,3.47,3.47,0,0,0,2.75,1.09,9,9,0,0,0,1.94-.23v-2.95h-2.37Z" fill="#fff"/><path d="M234.84,526.5l-.37-1.2h-.06a3.53,3.53,0,0,1-1.26,1.07,4,4,0,0,1-1.62.29,2.75,2.75,0,0,1-2-.69,2.57,2.57,0,0,1-.71-1.95,2.28,2.28,0,0,1,1-2,5.72,5.72,0,0,1,3-.74l1.49,0v-.46a1.75,1.75,0,0,0-.39-1.24,1.58,1.58,0,0,0-1.2-.41,4.16,4.16,0,0,0-1.27.2,9.77,9.77,0,0,0-1.17.46l-.59-1.31a6.43,6.43,0,0,1,1.54-.56,7.12,7.12,0,0,1,1.58-.19,3.74,3.74,0,0,1,2.49.72,2.82,2.82,0,0,1,.84,2.26v5.82Zm-2.73-1.25a2.27,2.27,0,0,0,1.61-.56,2,2,0,0,0,.61-1.57v-.75l-1.11,0a3.8,3.8,0,0,0-1.89.43,1.32,1.32,0,0,0-.59,1.18,1.15,1.15,0,0,0,.34.89A1.48,1.48,0,0,0,232.1,525.25Z" fill="#fff"/><path d="M240.55,526.5h-1.84V514.34h1.84Z" fill="#fff"/><path d="M246.95,526.66a4.18,4.18,0,0,1-3.15-1.18,4.46,4.46,0,0,1-1.14-3.24,4.9,4.9,0,0,1,1.05-3.33,3.64,3.64,0,0,1,2.9-1.21,3.56,3.56,0,0,1,2.7,1,4,4,0,0,1,1,2.86v1h-5.76a2.84,2.84,0,0,0,.68,1.93,2.36,2.36,0,0,0,1.8.68,6.64,6.64,0,0,0,1.43-.14,7.37,7.37,0,0,0,1.42-.48v1.49a5.6,5.6,0,0,1-1.36.45A8.3,8.3,0,0,1,246.95,526.66Zm-.34-7.56a1.85,1.85,0,0,0-1.4.55,2.64,2.64,0,0,0-.63,1.62h3.92a2.4,2.4,0,0,0-.52-1.62A1.76,1.76,0,0,0,246.61,519.09Z" fill="#fff"/><path d="M256.77,517.7a4.44,4.44,0,0,1,.91.08l-.18,1.71a3.47,3.47,0,0,0-.81-.09,2.35,2.35,0,0,0-1.79.72,2.6,2.6,0,0,0-.68,1.87v4.52h-1.84v-8.64h1.44l.24,1.52h.09a3.43,3.43,0,0,1,1.12-1.23A2.67,2.67,0,0,1,256.77,517.7Z" fill="#fff"/><path d="M264.7,526.5l-.37-1.2h-.06a3.53,3.53,0,0,1-1.26,1.07,4,4,0,0,1-1.62.29,2.75,2.75,0,0,1-2-.69,2.57,2.57,0,0,1-.71-1.95,2.28,2.28,0,0,1,1-2,5.72,5.72,0,0,1,3-.74l1.49,0v-.46a1.75,1.75,0,0,0-.39-1.24,1.58,1.58,0,0,0-1.2-.41,4.16,4.16,0,0,0-1.27.2,9.77,9.77,0,0,0-1.17.46l-.59-1.31a6.43,6.43,0,0,1,1.54-.56,7.12,7.12,0,0,1,1.58-.19,3.74,3.74,0,0,1,2.49.72,2.82,2.82,0,0,1,.84,2.26v5.82ZM262,525.25a2.27,2.27,0,0,0,1.61-.56,2,2,0,0,0,.61-1.57v-.75l-1.11,0a3.8,3.8,0,0,0-1.89.43,1.32,1.32,0,0,0-.59,1.18,1.15,1.15,0,0,0,.34.89A1.48,1.48,0,0,0,262,525.25Z" fill="#fff"/><circle cx="239" cy="289" r="1.5" fill="#95aace"/><circle cx="245" cy="289" r="1.5" fill="#95aace"/><circle cx="251" cy="289" r="1.5" fill="#95aace"/></svg>
