<svg id="39611d85-887d-474f-b6cf-0c90d2364254" data-name="Слой 1" xmlns="http://www.w3.org/2000/svg" viewBox="0 0 490 473.66"><title>geo clusters</title><rect x="129.5" y="0.5" width="230" height="50" rx="10" ry="10" fill="#2e3d4c" stroke="#0399ff" stroke-linecap="round" stroke-miterlimit="10"/><rect x="129.5" y="53.5" width="230" height="50" rx="10" ry="10" fill="#2e3d4c" stroke="#0399ff" stroke-linecap="round" stroke-miterlimit="10"/><rect x="129.5" y="106.5" width="230" height="50" rx="10" ry="10" fill="#2e3d4c" stroke="#0399ff" stroke-linecap="round" stroke-miterlimit="10"/><path d="M184.57,22.77a3.33,3.33,0,0,1-1.17,2.74,5.16,5.16,0,0,1-3.34,1h-1.19v4.27H177V19.31h3.29a5,5,0,0,1,3.21.88A3.14,3.14,0,0,1,184.57,22.77Zm-5.7,2.13h1a3.56,3.56,0,0,0,2.11-.5,1.82,1.82,0,0,0,.67-1.56,1.78,1.78,0,0,0-.6-1.47,3,3,0,0,0-1.87-.48h-1.3Z" fill="#fff"/><path d="M191,21.94A4.45,4.45,0,0,1,192,22l-.18,1.71a3.47,3.47,0,0,0-.81-.09,2.35,2.35,0,0,0-1.79.72,2.6,2.6,0,0,0-.68,1.87v4.52h-1.84V22.09h1.44l.24,1.52h.09a3.42,3.42,0,0,1,1.12-1.23A2.67,2.67,0,0,1,191,21.94Z" fill="#fff"/><path d="M197.33,30.89a4.18,4.18,0,0,1-3.15-1.18A4.46,4.46,0,0,1,193,26.48a4.9,4.9,0,0,1,1.05-3.33,3.64,3.64,0,0,1,2.9-1.21,3.56,3.56,0,0,1,2.7,1,4,4,0,0,1,1,2.86v1h-5.76a2.83,2.83,0,0,0,.68,1.93,2.37,2.37,0,0,0,1.8.68,6.65,6.65,0,0,0,1.43-.14,7.48,7.48,0,0,0,1.42-.48V30.3a5.63,5.63,0,0,1-1.36.45A8.36,8.36,0,0,1,197.33,30.89ZM197,23.33a1.84,1.84,0,0,0-1.4.55A2.64,2.64,0,0,0,195,25.5h3.92a2.4,2.4,0,0,0-.52-1.62A1.76,1.76,0,0,0,197,23.33Z" fill="#fff"/><path d="M210.05,30.73h-1.84V25.41a2.42,2.42,0,0,0-.37-1.48,1.38,1.38,0,0,0-1.17-.49,1.79,1.79,0,0,0-1.56.69,4.05,4.05,0,0,0-.5,2.3v4.3h-1.84V22.09h1.44l.26,1.13h.09a2.39,2.39,0,0,1,1-1,3.37,3.37,0,0,1,1.5-.34,2.63,2.63,0,0,1,2.64,1.36h.13a2.63,2.63,0,0,1,1.08-1,3.42,3.42,0,0,1,1.59-.36,2.9,2.9,0,0,1,2.25.78,3.46,3.46,0,0,1,.71,2.38v5.63h-1.84V25.41a2.4,2.4,0,0,0-.38-1.48,1.4,1.4,0,0,0-1.18-.49,1.82,1.82,0,0,0-1.57.67,3.44,3.44,0,0,0-.5,2.05Z" fill="#fff"/><path d="M218,19.8a1,1,0,0,1,.27-.76,1.05,1.05,0,0,1,.77-.27,1,1,0,0,1,.75.27,1,1,0,0,1,.27.76,1,1,0,0,1-.27.74,1,1,0,0,1-.75.27,1,1,0,0,1-.77-.27A1,1,0,0,1,218,19.8Zm1.95,10.93h-1.84V22.09h1.84Z" fill="#fff"/><path d="M228.63,30.73l-.26-1.13h-.09a2.61,2.61,0,0,1-1.09.95,3.65,3.65,0,0,1-1.61.34,3.17,3.17,0,0,1-2.34-.78,3.24,3.24,0,0,1-.77-2.37V22.09h1.85v5.33a2.31,2.31,0,0,0,.41,1.49,1.55,1.55,0,0,0,1.27.5,2,2,0,0,0,1.7-.69,3.81,3.81,0,0,0,.54-2.32v-4.3h1.84v8.64Z" fill="#fff"/><path d="M240,30.73h-1.84V25.41a2.42,2.42,0,0,0-.37-1.48,1.38,1.38,0,0,0-1.17-.49,1.79,1.79,0,0,0-1.56.69,4.05,4.05,0,0,0-.5,2.3v4.3h-1.84V22.09h1.44l.26,1.13h.09a2.39,2.39,0,0,1,1-1,3.37,3.37,0,0,1,1.5-.34,2.63,2.63,0,0,1,2.64,1.36h.13a2.63,2.63,0,0,1,1.08-1,3.42,3.42,0,0,1,1.59-.36,2.9,2.9,0,0,1,2.25.78,3.46,3.46,0,0,1,.71,2.38v5.63h-1.84V25.41a2.4,2.4,0,0,0-.38-1.48,1.4,1.4,0,0,0-1.18-.49,1.82,1.82,0,0,0-1.57.67,3.44,3.44,0,0,0-.5,2.05Z" fill="#fff"/><path d="M257.2,20.75a3.08,3.08,0,0,0-2.53,1.14,4.87,4.87,0,0,0-.92,3.15,4.9,4.9,0,0,0,.89,3.18,3.13,3.13,0,0,0,2.57,1.08,6.72,6.72,0,0,0,1.41-.14q.68-.14,1.41-.37v1.6a8.57,8.57,0,0,1-3,.51,4.87,4.87,0,0,1-3.85-1.52A6.35,6.35,0,0,1,251.77,25a7,7,0,0,1,.65-3.12,4.65,4.65,0,0,1,1.89-2,5.71,5.71,0,0,1,2.9-.71,7.2,7.2,0,0,1,3.23.73l-.67,1.55a10.11,10.11,0,0,0-1.22-.48A4.42,4.42,0,0,0,257.2,20.75Z" fill="#fff"/><path d="M271.77,24.91a5.69,5.69,0,0,1-1.57,4.32,6.31,6.31,0,0,1-4.52,1.5h-3.2V19.31H266a5.84,5.84,0,0,1,4.24,1.47A5.49,5.49,0,0,1,271.77,24.91Zm-2,.06q0-4.1-3.84-4.1h-1.62v8.29h1.33Q269.8,29.16,269.8,25Z" fill="#fff"/><path d="M283.73,30.73h-2.29l-5.62-9.1h-.06l0,.51q.11,1.45.11,2.66v5.94h-1.7V19.31h2.27l5.6,9.05h0q0-.18-.06-1.31t0-1.76v-6h1.71Z" fill="#fff"/><path d="M177,81.5V70.08h1.87V79.9h4.84v1.6Z" fill="#fff"/><path d="M189.26,81.66a4.18,4.18,0,0,1-3.15-1.18A4.46,4.46,0,0,1,185,77.24,4.9,4.9,0,0,1,186,73.91a3.64,3.64,0,0,1,2.9-1.21,3.56,3.56,0,0,1,2.7,1,4,4,0,0,1,1,2.86v1h-5.76a2.84,2.84,0,0,0,.68,1.93,2.37,2.37,0,0,0,1.8.68,6.64,6.64,0,0,0,1.43-.14,7.44,7.44,0,0,0,1.42-.48v1.49a5.63,5.63,0,0,1-1.36.45A8.3,8.3,0,0,1,189.26,81.66Zm-.34-7.56a1.85,1.85,0,0,0-1.4.55,2.64,2.64,0,0,0-.63,1.62h3.92a2.4,2.4,0,0,0-.52-1.62A1.76,1.76,0,0,0,188.92,74.09Z" fill="#fff"/><path d="M197.92,80.17a4.46,4.46,0,0,0,1.34-.21v1.38a3.67,3.67,0,0,1-.79.22,5.44,5.44,0,0,1-1,.09q-2.61,0-2.61-2.75V74.25H193.7v-.81l1.27-.67.63-1.83h1.13v1.92h2.46v1.39h-2.46v4.63a1.3,1.3,0,0,0,.33,1A1.21,1.21,0,0,0,197.92,80.17Z" fill="#fff"/><path d="M202.46,70.08l.12.17A22.69,22.69,0,0,1,201.2,74h-1.33q.54-2.26.78-3.91Z" fill="#fff"/><path d="M209.88,79A2.26,2.26,0,0,1,209,81a4.41,4.41,0,0,1-2.64.68,6.24,6.24,0,0,1-2.77-.52V79.55a6.81,6.81,0,0,0,2.84.7q1.69,0,1.7-1a.81.81,0,0,0-.19-.55,2.23,2.23,0,0,0-.62-.45,10.63,10.63,0,0,0-1.2-.53,5.52,5.52,0,0,1-2-1.16,2.14,2.14,0,0,1-.53-1.5,2,2,0,0,1,.89-1.72,4.25,4.25,0,0,1,2.43-.61,6.9,6.9,0,0,1,2.88.62l-.59,1.38a6.42,6.42,0,0,0-2.35-.58q-1.45,0-1.45.83a.83.83,0,0,0,.38.69,8.35,8.35,0,0,0,1.65.77,7.58,7.58,0,0,1,1.55.76,2.27,2.27,0,0,1,.72.79A2.3,2.3,0,0,1,209.88,79Z" fill="#fff"/><path d="M222.68,81.5h-6.46V70.08h6.46v1.58h-4.59v3.11h4.3v1.56h-4.3v3.59h4.59Z" fill="#fff"/><path d="M232.55,81.5h-1.84V76.19a2.32,2.32,0,0,0-.4-1.49A1.56,1.56,0,0,0,229,74.2a2,2,0,0,0-1.7.69,3.8,3.8,0,0,0-.54,2.3v4.3H225V72.86h1.44l.26,1.13h.09a2.56,2.56,0,0,1,1.11-1,3.72,3.72,0,0,1,1.59-.34q3.11,0,3.11,3.16Z" fill="#fff"/><path d="M238.59,81.66a3.78,3.78,0,0,1-3-1.14,5.8,5.8,0,0,1,0-6.64,4,4,0,0,1,3.08-1.17,5.78,5.78,0,0,1,2.46.51l-.55,1.48a5.57,5.57,0,0,0-1.92-.45q-2.24,0-2.24,3a3.57,3.57,0,0,0,.56,2.18,1.93,1.93,0,0,0,1.64.73,4.7,4.7,0,0,0,2.32-.61v1.6a3.62,3.62,0,0,1-1.05.41A6.32,6.32,0,0,1,238.59,81.66Z" fill="#fff"/><path d="M247.41,72.7a4.44,4.44,0,0,1,.91.08l-.18,1.71a3.47,3.47,0,0,0-.81-.09,2.35,2.35,0,0,0-1.79.72,2.6,2.6,0,0,0-.68,1.87V81.5H243V72.86h1.44l.24,1.52h.09a3.42,3.42,0,0,1,1.12-1.23A2.67,2.67,0,0,1,247.41,72.7Z" fill="#fff"/><path d="M248.62,72.86h2l1.76,4.9a9.32,9.32,0,0,1,.53,2H253a8.24,8.24,0,0,1,.26-1q.19-.61,2-5.82h2l-3.7,9.79q-1,2.7-3.36,2.7a5.27,5.27,0,0,1-1.19-.13V83.76a4.3,4.3,0,0,0,.95.09,1.94,1.94,0,0,0,1.87-1.54l.32-.81Z" fill="#fff"/><path d="M262.89,81.66a3,3,0,0,1-2.55-1.18h-.11q.11,1.09.11,1.33v3.54h-1.84V72.86H260q.06.24.26,1.16h.09a2.88,2.88,0,0,1,2.58-1.31,3,3,0,0,1,2.52,1.17,6.43,6.43,0,0,1,0,6.59A3,3,0,0,1,262.89,81.66Zm-.45-7.45a1.91,1.91,0,0,0-1.6.64,3.32,3.32,0,0,0-.5,2v.27a4,4,0,0,0,.5,2.29,1.86,1.86,0,0,0,1.63.71,1.66,1.66,0,0,0,1.47-.78,4,4,0,0,0,.52-2.23,3.9,3.9,0,0,0-.51-2.2A1.71,1.71,0,0,0,262.45,74.2Z" fill="#fff"/><path d="M271.7,80.17A4.46,4.46,0,0,0,273,80v1.38a3.67,3.67,0,0,1-.79.22,5.44,5.44,0,0,1-1,.09q-2.61,0-2.61-2.75V74.25h-1.18v-.81l1.27-.67.63-1.83h1.13v1.92H273v1.39h-2.46v4.63a1.3,1.3,0,0,0,.33,1A1.21,1.21,0,0,0,271.7,80.17Z" fill="#fff"/><path d="M285.7,78.4a2.87,2.87,0,0,1-1.1,2.39,4.79,4.79,0,0,1-3,.87,7.25,7.25,0,0,1-3.17-.6V79.29a8.59,8.59,0,0,0,1.66.58,7,7,0,0,0,1.64.21,2.6,2.6,0,0,0,1.64-.42,1.38,1.38,0,0,0,.53-1.13,1.42,1.42,0,0,0-.48-1.09,7.29,7.29,0,0,0-2-1.05,5.28,5.28,0,0,1-2.2-1.45,3.06,3.06,0,0,1-.64-2,2.74,2.74,0,0,1,1-2.25,4.21,4.21,0,0,1,2.73-.82,8,8,0,0,1,3.27.72l-.59,1.52a7.14,7.14,0,0,0-2.72-.64,2.09,2.09,0,0,0-1.37.39,1.3,1.3,0,0,0-.47,1,1.47,1.47,0,0,0,.19.76,1.92,1.92,0,0,0,.62.6,10.39,10.39,0,0,0,1.55.74,8.48,8.48,0,0,1,1.84,1,2.88,2.88,0,0,1,.86,1A3.07,3.07,0,0,1,285.7,78.4Z" fill="#fff"/><path d="M294.5,78.4a2.87,2.87,0,0,1-1.1,2.39,4.79,4.79,0,0,1-3,.87,7.25,7.25,0,0,1-3.17-.6V79.29a8.59,8.59,0,0,0,1.66.58,7,7,0,0,0,1.64.21,2.6,2.6,0,0,0,1.64-.42,1.38,1.38,0,0,0,.53-1.13,1.42,1.42,0,0,0-.48-1.09,7.29,7.29,0,0,0-2-1.05,5.28,5.28,0,0,1-2.2-1.45,3.06,3.06,0,0,1-.64-2,2.74,2.74,0,0,1,1-2.25,4.21,4.21,0,0,1,2.73-.82,8,8,0,0,1,3.27.72l-.59,1.52a7.14,7.14,0,0,0-2.72-.64,2.09,2.09,0,0,0-1.37.39,1.3,1.3,0,0,0-.47,1,1.47,1.47,0,0,0,.19.76,1.92,1.92,0,0,0,.62.6,10.39,10.39,0,0,0,1.55.74,8.48,8.48,0,0,1,1.84,1,2.88,2.88,0,0,1,.86,1A3.07,3.07,0,0,1,294.5,78.4Z" fill="#fff"/><path d="M296.71,81.5V70.08h1.87V79.9h4.84v1.6Z" fill="#fff"/><rect x="129.5" y="315.5" width="230" height="50" rx="10" ry="10" fill="#2e3d4c" stroke="#0399ff" stroke-linecap="round" stroke-miterlimit="10"/><rect x="219.25" y="400" width="50" height="50" rx="4.66" ry="4.66" fill="#2e3d4c" stroke="#0399ff" stroke-linecap="round" stroke-miterlimit="10"/><path d="M208.59,344.4a2.87,2.87,0,0,1-1.1,2.39,4.79,4.79,0,0,1-3,.87,7.25,7.25,0,0,1-3.17-.6v-1.77a8.59,8.59,0,0,0,1.66.58,7,7,0,0,0,1.64.21,2.6,2.6,0,0,0,1.64-.42,1.37,1.37,0,0,0,.53-1.13,1.42,1.42,0,0,0-.48-1.09,7.29,7.29,0,0,0-2-1.05,5.28,5.28,0,0,1-2.2-1.45,3.06,3.06,0,0,1-.64-2,2.74,2.74,0,0,1,1-2.25,4.21,4.21,0,0,1,2.73-.82,8,8,0,0,1,3.27.72l-.59,1.52a7.14,7.14,0,0,0-2.72-.64,2.09,2.09,0,0,0-1.37.39,1.3,1.3,0,0,0-.47,1,1.47,1.47,0,0,0,.19.76,1.92,1.92,0,0,0,.62.6,10.34,10.34,0,0,0,1.55.74,8.5,8.5,0,0,1,1.84,1,2.88,2.88,0,0,1,.86,1A3.08,3.08,0,0,1,208.59,344.4Z" fill="#fff"/><path d="M218.21,347.5h-1.84v-5.31a2.32,2.32,0,0,0-.4-1.49,1.56,1.56,0,0,0-1.28-.49,2,2,0,0,0-1.7.69,3.81,3.81,0,0,0-.54,2.32v4.29h-1.84V335.34h1.84v3.09a14.4,14.4,0,0,1-.09,1.59h.12a2.56,2.56,0,0,1,1-1,3.37,3.37,0,0,1,1.56-.34q3.14,0,3.14,3.16Z" fill="#fff"/><path d="M226.17,347.5l-.37-1.2h-.06a3.53,3.53,0,0,1-1.26,1.07,4,4,0,0,1-1.62.29,2.75,2.75,0,0,1-2-.69,2.57,2.57,0,0,1-.71-1.95,2.28,2.28,0,0,1,1-2,5.72,5.72,0,0,1,3-.74l1.49,0v-.46a1.75,1.75,0,0,0-.39-1.24,1.58,1.58,0,0,0-1.2-.41,4.16,4.16,0,0,0-1.27.2,9.77,9.77,0,0,0-1.17.46l-.59-1.31a6.43,6.43,0,0,1,1.54-.56,7.12,7.12,0,0,1,1.58-.19,3.74,3.74,0,0,1,2.49.72,2.82,2.82,0,0,1,.84,2.26v5.82Zm-2.73-1.25a2.27,2.27,0,0,0,1.61-.56,2,2,0,0,0,.61-1.57v-.75l-1.11,0a3.8,3.8,0,0,0-1.89.43,1.32,1.32,0,0,0-.59,1.18,1.15,1.15,0,0,0,.34.89A1.48,1.48,0,0,0,223.44,346.25Z" fill="#fff"/><path d="M234.43,338.7a4.44,4.44,0,0,1,.91.08l-.18,1.71a3.47,3.47,0,0,0-.81-.09,2.35,2.35,0,0,0-1.79.72,2.6,2.6,0,0,0-.68,1.87v4.52H230v-8.64h1.44l.24,1.52h.09a3.43,3.43,0,0,1,1.12-1.23A2.67,2.67,0,0,1,234.43,338.7Z" fill="#fff"/><path d="M240.72,347.66a4.18,4.18,0,0,1-3.15-1.18,4.46,4.46,0,0,1-1.14-3.24,4.9,4.9,0,0,1,1.05-3.33,3.64,3.64,0,0,1,2.9-1.21,3.56,3.56,0,0,1,2.7,1,4,4,0,0,1,1,2.86v1h-5.76a2.84,2.84,0,0,0,.68,1.93,2.36,2.36,0,0,0,1.8.68,6.64,6.64,0,0,0,1.43-.14,7.37,7.37,0,0,0,1.42-.48v1.49a5.6,5.6,0,0,1-1.36.45A8.3,8.3,0,0,1,240.72,347.66Zm-.34-7.56a1.85,1.85,0,0,0-1.4.55,2.64,2.64,0,0,0-.63,1.62h3.92a2.4,2.4,0,0,0-.52-1.62A1.76,1.76,0,0,0,240.38,340.09Z" fill="#fff"/><path d="M249.08,347.66a3,3,0,0,1-2.52-1.17,6.42,6.42,0,0,1,0-6.6,3,3,0,0,1,2.54-1.18A3,3,0,0,1,251.7,340h.09a10.94,10.94,0,0,1-.13-1.47v-3.15h1.84V347.5h-1.44l-.32-1.13h-.09A2.94,2.94,0,0,1,249.08,347.66Zm.49-1.48a2,2,0,0,0,1.65-.64,3.35,3.35,0,0,0,.53-2.07v-.26a3.87,3.87,0,0,0-.53-2.32,2,2,0,0,0-1.66-.69,1.69,1.69,0,0,0-1.49.79,4,4,0,0,0-.52,2.24,3.92,3.92,0,0,0,.51,2.19A1.71,1.71,0,0,0,249.57,346.17Z" fill="#fff"/><path d="M267.07,344.4a2.87,2.87,0,0,1-1.1,2.39,4.79,4.79,0,0,1-3,.87,7.25,7.25,0,0,1-3.17-.6v-1.77a8.59,8.59,0,0,0,1.66.58,7,7,0,0,0,1.64.21,2.6,2.6,0,0,0,1.64-.42,1.37,1.37,0,0,0,.53-1.13,1.42,1.42,0,0,0-.48-1.09,7.29,7.29,0,0,0-2-1.05,5.28,5.28,0,0,1-2.2-1.45,3.06,3.06,0,0,1-.64-2,2.74,2.74,0,0,1,1-2.25,4.21,4.21,0,0,1,2.73-.82,8,8,0,0,1,3.27.72l-.59,1.52a7.14,7.14,0,0,0-2.72-.64,2.09,2.09,0,0,0-1.37.39,1.3,1.3,0,0,0-.47,1,1.47,1.47,0,0,0,.19.76,1.92,1.92,0,0,0,.62.6,10.34,10.34,0,0,0,1.55.74,8.5,8.5,0,0,1,1.84,1,2.88,2.88,0,0,1,.86,1A3.08,3.08,0,0,1,267.07,344.4Z" fill="#fff"/><path d="M272.3,346.17a4.46,4.46,0,0,0,1.34-.21v1.38a3.67,3.67,0,0,1-.79.22,5.44,5.44,0,0,1-1,.09q-2.61,0-2.61-2.75v-4.66h-1.18v-.81l1.27-.67.63-1.83h1.13v1.92h2.46v1.39H271.1v4.63a1.3,1.3,0,0,0,.33,1A1.21,1.21,0,0,0,272.3,346.17Z" fill="#fff"/><path d="M283,343.16a4.72,4.72,0,0,1-1.09,3.3,3.89,3.89,0,0,1-3,1.19,4.14,4.14,0,0,1-2.14-.55,3.6,3.6,0,0,1-1.43-1.57,5.35,5.35,0,0,1-.5-2.37,4.69,4.69,0,0,1,1.08-3.28,3.91,3.91,0,0,1,3-1.18,3.81,3.81,0,0,1,3,1.21A4.66,4.66,0,0,1,283,343.16Zm-6.29,0q0,3,2.21,3t2.19-3q0-3-2.2-3a1.88,1.88,0,0,0-1.68.77A3.89,3.89,0,0,0,276.75,343.16Z" fill="#fff"/><path d="M289.53,338.7a4.44,4.44,0,0,1,.91.08l-.18,1.71a3.47,3.47,0,0,0-.81-.09,2.35,2.35,0,0,0-1.79.72A2.6,2.6,0,0,0,287,343v4.52h-1.84v-8.64h1.44l.24,1.52h.09a3.43,3.43,0,0,1,1.12-1.23A2.67,2.67,0,0,1,289.53,338.7Z" fill="#fff"/><path d="M297.45,347.5l-.37-1.2H297a3.53,3.53,0,0,1-1.26,1.07,4,4,0,0,1-1.62.29,2.75,2.75,0,0,1-2-.69,2.57,2.57,0,0,1-.71-1.95,2.28,2.28,0,0,1,1-2,5.72,5.72,0,0,1,3-.74l1.49,0v-.46a1.75,1.75,0,0,0-.39-1.24,1.58,1.58,0,0,0-1.2-.41,4.16,4.16,0,0,0-1.27.2,9.77,9.77,0,0,0-1.17.46l-.59-1.31a6.43,6.43,0,0,1,1.54-.56,7.12,7.12,0,0,1,1.58-.19,3.74,3.74,0,0,1,2.49.72,2.82,2.82,0,0,1,.84,2.26v5.82Zm-2.73-1.25a2.27,2.27,0,0,0,1.61-.56,2,2,0,0,0,.61-1.57v-.75l-1.11,0a3.8,3.8,0,0,0-1.89.43,1.32,1.32,0,0,0-.59,1.18,1.15,1.15,0,0,0,.34.89A1.48,1.48,0,0,0,294.72,346.25Z" fill="#fff"/><path d="M308.63,338.86v1l-1.48.27a2.39,2.39,0,0,1,.34.67,2.64,2.64,0,0,1,.13.84,2.59,2.59,0,0,1-.92,2.1,3.86,3.86,0,0,1-2.54.77,4.08,4.08,0,0,1-.75-.06,1,1,0,0,0-.59.86.48.48,0,0,0,.28.45,2.39,2.39,0,0,0,1,.15h1.51a3.35,3.35,0,0,1,2.17.61,2.14,2.14,0,0,1,.74,1.76,2.56,2.56,0,0,1-1.21,2.27,6.38,6.38,0,0,1-3.5.8,4.83,4.83,0,0,1-2.7-.62,2,2,0,0,1-.93-1.78,1.9,1.9,0,0,1,.5-1.34,2.7,2.7,0,0,1,1.41-.75,1.37,1.37,0,0,1-.61-.5,1.3,1.3,0,0,1,0-1.55,3.17,3.17,0,0,1,.81-.66,2.4,2.4,0,0,1-1.09-.94,2.77,2.77,0,0,1-.42-1.53,2.74,2.74,0,0,1,.89-2.18,3.73,3.73,0,0,1,2.53-.77,6.28,6.28,0,0,1,.77.05,5,5,0,0,1,.61.11Zm-6.79,10a1,1,0,0,0,.54.91,2.94,2.94,0,0,0,1.5.32,4.55,4.55,0,0,0,2.23-.43,1.29,1.29,0,0,0,.73-1.14.86.86,0,0,0-.4-.8,3.23,3.23,0,0,0-1.5-.24h-1.39a2,2,0,0,0-1.25.37A1.22,1.22,0,0,0,301.84,348.84Zm.79-7.19a1.74,1.74,0,0,0,.42,1.25,1.58,1.58,0,0,0,1.2.44q1.59,0,1.59-1.7a1.93,1.93,0,0,0-.39-1.3,1.5,1.5,0,0,0-1.2-.46,1.55,1.55,0,0,0-1.21.45A1.91,1.91,0,0,0,302.63,341.66Z" fill="#fff"/><path d="M314,347.66a4.18,4.18,0,0,1-3.15-1.18,4.46,4.46,0,0,1-1.14-3.24,4.9,4.9,0,0,1,1.05-3.33,3.64,3.64,0,0,1,2.9-1.21,3.56,3.56,0,0,1,2.7,1,4,4,0,0,1,1,2.86v1H311.6a2.84,2.84,0,0,0,.68,1.93,2.36,2.36,0,0,0,1.8.68,6.64,6.64,0,0,0,1.43-.14,7.37,7.37,0,0,0,1.42-.48v1.49a5.6,5.6,0,0,1-1.36.45A8.3,8.3,0,0,1,314,347.66Zm-.34-7.56a1.85,1.85,0,0,0-1.4.55,2.64,2.64,0,0,0-.63,1.62h3.92a2.4,2.4,0,0,0-.52-1.62A1.76,1.76,0,0,0,313.66,340.09Z" fill="#fff"/><path d="M179,337.11a2.39,2.39,0,1,0,2.39,2.39A2.39,2.39,0,0,0,179,337.11Zm0,4.07a1.68,1.68,0,1,1,1.68-1.68A1.68,1.68,0,0,1,179,341.17Z" fill="#95aace"/><path d="M185.75,329.31H172.23a1.41,1.41,0,0,0-1.41,1.41v20.37a1.41,1.41,0,0,0,1.41,1.41h13.52a1.41,1.41,0,0,0,1.41-1.41V330.72A1.41,1.41,0,0,0,185.75,329.31Zm-12.69,1.53a.71.71,0,1,1-.71.71A.71.71,0,0,1,173.06,330.84Zm0,20.13a.71.71,0,1,1,.71-.71A.71.71,0,0,1,173.06,351Zm6.67-5.17v-2a.35.35,0,0,0-.71,0v2.93a.35.35,0,0,1-.1.24l-1.55,1.62a.35.35,0,0,1-.51-.49l1.46-1.52v-.74a6.35,6.35,0,1,1,1.41,0Zm5.2,5.17a.71.71,0,1,1,.71-.71A.71.71,0,0,1,184.92,351Zm0-18.72a.71.71,0,1,1,.71-.71A.71.71,0,0,1,184.92,332.25Z" fill="#95aace"/><path d="M160.36,78.57h-3.63V76.69a2.72,2.72,0,1,0-5.43,0v1.87h-3.63V76.69a6.35,6.35,0,1,1,12.7,0Z" fill="#ffa400"/><path d="M161.85,77.57H146.17a1.21,1.21,0,0,0-1.22,1.22V90.38a1.21,1.21,0,0,0,1.22,1.22h15.68a1.21,1.21,0,0,0,1.22-1.22V78.79A1.26,1.26,0,0,0,161.85,77.57Zm-7.08,7.61v1.57a.8.8,0,1,1-1.61,0V85.18a1.58,1.58,0,0,1-.8-1.42,1.61,1.61,0,1,1,3.21,0A1.51,1.51,0,0,1,154.77,85.18Z" fill="#fff"/><path d="M144.56,76.85h-3.79a1.11,1.11,0,1,1,0-2.22h3.79a1.11,1.11,0,1,1,0,2.22Z" fill="#ffa400"/><path d="M147.24,70.88a1,1,0,0,1-.69-.27l-3-2.45A1.11,1.11,0,0,1,145,66.44l3,2.45a1.13,1.13,0,0,1,.15,1.57A1.27,1.27,0,0,1,147.24,70.88Z" fill="#ffa400"/><path d="M154,70.28a1.11,1.11,0,0,1-1.11-1.11V65.34a1.11,1.11,0,1,1,2.22,0v3.83A1.11,1.11,0,0,1,154,70.28Z" fill="#ffa400"/><path d="M160.74,70.88a1.07,1.07,0,0,1-.84-.42,1.14,1.14,0,0,1,.15-1.57l3-2.45a1.11,1.11,0,1,1,1.42,1.72l-3,2.45A1.07,1.07,0,0,1,160.74,70.88Z" fill="#ffa400"/><path d="M167.21,76.85h-3.83a1.11,1.11,0,0,1,0-2.22h3.83a1.11,1.11,0,0,1,0,2.22Z" fill="#ffa400"/><path d="M148.08,22.14a2.44,2.44,0,0,1,.72.11,19.78,19.78,0,0,1,2.85-2.62,2.4,2.4,0,0,1,.06-1.34A17.94,17.94,0,0,0,148,16.21a11.55,11.55,0,0,0-3.23,3,18.09,18.09,0,0,0,2.3,3.2A2.43,2.43,0,0,1,148.08,22.14Zm-2.45,2.45a2.44,2.44,0,0,1,.2-1,19.72,19.72,0,0,1-2.12-2.78,11.49,11.49,0,0,0,.39,11,19.49,19.49,0,0,1,2-5.82A2.43,2.43,0,0,1,145.64,24.59Zm8.4-8a2.43,2.43,0,0,1,1.67.66,19.49,19.49,0,0,1,4-1.24,11.5,11.5,0,0,0-9.78-.8A19.71,19.71,0,0,1,152.79,17,2.43,2.43,0,0,1,154,16.61Zm3.66,11.52a2.45,2.45,0,0,1,.64-.82,17.9,17.9,0,0,0-3.34-6,2.44,2.44,0,0,1-2.38-.26,18,18,0,0,0-2.45,2.25,2.44,2.44,0,0,1,.26,2A17.79,17.79,0,0,0,157.69,28.13Zm3.17,3.3q.05.69.05,1.4a19.83,19.83,0,0,1-.15,2.45,11.52,11.52,0,0,0,4.18-5.8,19.54,19.54,0,0,1-2.73.46A2.45,2.45,0,0,1,160.87,31.44Zm-3.75-1.66a19.51,19.51,0,0,1-7.76-3.11,2.43,2.43,0,0,1-1.28.36,2.46,2.46,0,0,1-.5-.05,17.79,17.79,0,0,0-2,6.86,11.52,11.52,0,0,0,3.93,2.75A19.57,19.57,0,0,1,157.12,29.78Zm4.59-12.3a17.78,17.78,0,0,0-5.24,1.34,2.27,2.27,0,0,1,0,.24,2.44,2.44,0,0,1-.25,1.08,19.61,19.61,0,0,1,3.71,6.61,2.45,2.45,0,0,1,2.21,1.49,17.77,17.77,0,0,0,3.22-.63,11.62,11.62,0,0,0,.11-1.61A11.47,11.47,0,0,0,161.71,17.48Zm-3.36,13.61a17.87,17.87,0,0,0-7.15,6.07,11.51,11.51,0,0,0,7.65-.73,17.89,17.89,0,0,0,.36-3.59c0-.44,0-.88-.05-1.32A2.45,2.45,0,0,1,158.35,31.09Z" fill="#0399ff"/><line x1="244.5" y1="158.5" x2="244.5" y2="173.5" fill="none" stroke="#0399ff" stroke-miterlimit="10"/><line x1="154.5" y1="173.5" x2="154.5" y2="188.5" fill="none" stroke="#0399ff" stroke-miterlimit="10"/><rect x="259.5" y="191" width="230" height="90" rx="13.42" ry="13.42" fill="#2e3d4c" stroke="#0399ff" stroke-linecap="round" stroke-miterlimit="10"/><path d="M311.88,259.94v4.56H310V253.08h3.23a5.3,5.3,0,0,1,3.27.83,3,3,0,0,1,1.06,2.5,3.12,3.12,0,0,1-2.22,3l3.23,5.05h-2.12l-2.73-4.56Zm0-1.55h1.3a3,3,0,0,0,1.89-.48,1.76,1.76,0,0,0,.59-1.44,1.55,1.55,0,0,0-.63-1.39,3.47,3.47,0,0,0-1.91-.42h-1.23Z" fill="#fff"/><path d="M323.81,264.66a4.18,4.18,0,0,1-3.15-1.18,4.46,4.46,0,0,1-1.14-3.24,4.9,4.9,0,0,1,1.05-3.33,3.64,3.64,0,0,1,2.9-1.21,3.56,3.56,0,0,1,2.7,1,4,4,0,0,1,1,2.86v1h-5.76a2.84,2.84,0,0,0,.68,1.93,2.36,2.36,0,0,0,1.8.68,6.64,6.64,0,0,0,1.43-.14,7.37,7.37,0,0,0,1.42-.48v1.49a5.6,5.6,0,0,1-1.36.45A8.3,8.3,0,0,1,323.81,264.66Zm-.34-7.56a1.85,1.85,0,0,0-1.4.55,2.64,2.64,0,0,0-.63,1.62h3.92a2.4,2.4,0,0,0-.52-1.62A1.76,1.76,0,0,0,323.48,257.09Z" fill="#fff"/><path d="M332.17,264.66a3,3,0,0,1-2.52-1.17,6.42,6.42,0,0,1,0-6.6,3,3,0,0,1,2.54-1.18A3,3,0,0,1,334.8,257h.09a10.94,10.94,0,0,1-.13-1.47v-3.15h1.84V264.5h-1.44l-.32-1.13h-.09A2.94,2.94,0,0,1,332.17,264.66Zm.49-1.48a2,2,0,0,0,1.65-.64,3.35,3.35,0,0,0,.53-2.07v-.26a3.87,3.87,0,0,0-.53-2.32,2,2,0,0,0-1.66-.69,1.69,1.69,0,0,0-1.49.79,4,4,0,0,0-.52,2.24,3.92,3.92,0,0,0,.51,2.19A1.71,1.71,0,0,0,332.66,263.17Z" fill="#fff"/><path d="M339.12,253.57a1,1,0,0,1,.27-.76,1.05,1.05,0,0,1,.77-.27,1,1,0,0,1,.75.27,1,1,0,0,1,.27.76,1,1,0,0,1-.27.74,1,1,0,0,1-.75.27,1,1,0,0,1-.77-.27A1,1,0,0,1,339.12,253.57Zm1.95,10.93h-1.84v-8.64h1.84Z" fill="#fff"/><path d="M349.49,262a2.26,2.26,0,0,1-.92,1.94,4.41,4.41,0,0,1-2.64.68,6.23,6.23,0,0,1-2.77-.52v-1.59a6.81,6.81,0,0,0,2.84.7q1.69,0,1.7-1a.81.81,0,0,0-.19-.55,2.23,2.23,0,0,0-.62-.45,10.63,10.63,0,0,0-1.2-.53,5.51,5.51,0,0,1-2-1.16,2.14,2.14,0,0,1-.53-1.5,2,2,0,0,1,.89-1.72,4.25,4.25,0,0,1,2.43-.61,6.9,6.9,0,0,1,2.88.62l-.59,1.38a6.43,6.43,0,0,0-2.35-.58q-1.45,0-1.45.83a.83.83,0,0,0,.38.69,8.35,8.35,0,0,0,1.65.77,7.6,7.6,0,0,1,1.55.76,2.27,2.27,0,0,1,.72.79A2.3,2.3,0,0,1,349.49,262Z" fill="#fff"/><line x1="260.5" y1="236" x2="489" y2="236" fill="none" stroke="#0399ff" stroke-miterlimit="10"/><path d="M299.61,265.64c-1.36.71-8.41,3.61-9.91,4.39a3.35,3.35,0,0,1-3.52.21c-1.19-.57-8.69-3.6-10-4.24-.68-.32-1-.6-1-.85v-2.58s9.77-2.13,11.35-2.69a4,4,0,0,1,3.47-.09c1.34.49,9.37,1.94,10.69,2.43,0,0,0,2.3,0,2.54s-.31.53-1,.9" fill="#912626"/><path d="M299.61,263.08c-1.36.71-8.41,3.61-9.91,4.39a3.35,3.35,0,0,1-3.52.21c-1.19-.57-8.69-3.6-10-4.24s-1.38-1.09-.05-1.61,8.79-3.45,10.37-4a4,4,0,0,1,3.47-.09c1.34.49,8.35,3.28,9.68,3.77s1.38.89,0,1.6" fill="#c6302b"/><path d="M299.61,261.47c-1.36.71-8.41,3.61-9.91,4.39a3.35,3.35,0,0,1-3.52.21c-1.19-.57-8.69-3.6-10-4.24-.68-.32-1-.6-1-.85v-2.58s9.77-2.13,11.35-2.69a4,4,0,0,1,3.47-.09c1.34.49,9.37,1.94,10.69,2.43,0,0,0,2.3,0,2.54s-.31.53-1,.9" fill="#912626"/><path d="M299.61,258.91c-1.36.71-8.41,3.61-9.91,4.39a3.35,3.35,0,0,1-3.52.21c-1.19-.57-8.69-3.6-10-4.24s-1.38-1.09-.05-1.61,8.79-3.45,10.37-4a4,4,0,0,1,3.47-.09c1.34.49,8.35,3.28,9.68,3.77s1.38.89,0,1.6h0" fill="#c6302b"/><path d="M299.61,257.14c-1.36.71-8.41,3.61-9.91,4.39a3.35,3.35,0,0,1-3.52.21c-1.19-.57-8.69-3.6-10-4.24-.68-.32-1-.6-1-.85v-2.58s9.77-2.13,11.35-2.69a4,4,0,0,1,3.47-.09c1.34.49,9.37,1.94,10.69,2.43,0,0,0,2.3,0,2.54s-.31.53-1,.9" fill="#912626"/><path d="M299.61,254.58c-1.36.71-8.41,3.61-9.91,4.39a3.35,3.35,0,0,1-3.52.21c-1.19-.57-8.69-3.6-10-4.24s-1.38-1.09-.05-1.61,8.79-3.45,10.37-4a4,4,0,0,1,3.47-.09c1.34.49,8.35,3.28,9.68,3.77s1.38.89,0,1.6" fill="#c6302b"/><path d="M291,252.07l-2.19.23-.49,1.18-.79-1.32-2.53-.23,1.89-.68-.57-1,1.77.69,1.67-.55-.45,1.08,1.7.64" fill="#fff"/><path d="M288.15,257.8l-4.09-1.7,5.86-.9-1.77,2.6" fill="#fff"/><path d="M282.48,252.73c1.73,0,3.13.54,3.13,1.22s-1.4,1.22-3.13,1.22-3.13-.54-3.13-1.22,1.4-1.22,3.13-1.22" fill="#fff"/><path d="M293.56,252.4l3.47,1.37-3.47,1.37V252.4" fill="#621b1c"/><path d="M289.72,253.91l3.84-1.52v2.74l-.38.15-3.47-1.37" fill="#9a2928"/><rect x="0.5" y="191" width="230" height="90" rx="13.42" ry="13.42" fill="#2e3d4c" stroke="#0399ff" stroke-linecap="round" stroke-miterlimit="10"/><path d="M52.88,259.94v4.56H51V253.08h3.23a5.3,5.3,0,0,1,3.27.83,3,3,0,0,1,1.06,2.5,3.12,3.12,0,0,1-2.22,3l3.23,5.05H57.45l-2.73-4.56Zm0-1.55h1.3a3,3,0,0,0,1.89-.48,1.76,1.76,0,0,0,.59-1.44,1.55,1.55,0,0,0-.63-1.39,3.47,3.47,0,0,0-1.91-.42H52.88Z" fill="#fff"/><path d="M64.81,264.66a4.18,4.18,0,0,1-3.15-1.18,4.46,4.46,0,0,1-1.14-3.24,4.9,4.9,0,0,1,1.05-3.33,3.64,3.64,0,0,1,2.9-1.21,3.56,3.56,0,0,1,2.7,1,4,4,0,0,1,1,2.86v1H62.41a2.84,2.84,0,0,0,.68,1.93,2.36,2.36,0,0,0,1.8.68,6.64,6.64,0,0,0,1.43-.14,7.37,7.37,0,0,0,1.42-.48v1.49a5.6,5.6,0,0,1-1.36.45A8.3,8.3,0,0,1,64.81,264.66Zm-.34-7.56a1.85,1.85,0,0,0-1.4.55,2.64,2.64,0,0,0-.63,1.62h3.92a2.4,2.4,0,0,0-.52-1.62A1.76,1.76,0,0,0,64.48,257.09Z" fill="#fff"/><path d="M73.17,264.66a3,3,0,0,1-2.52-1.17,6.42,6.42,0,0,1,0-6.6,3,3,0,0,1,2.54-1.18A3,3,0,0,1,75.8,257h.09a10.94,10.94,0,0,1-.13-1.47v-3.15H77.6V264.5H76.16l-.32-1.13h-.09A2.94,2.94,0,0,1,73.17,264.66Zm.49-1.48a2,2,0,0,0,1.65-.64,3.35,3.35,0,0,0,.53-2.07v-.26a3.87,3.87,0,0,0-.53-2.32,2,2,0,0,0-1.66-.69,1.69,1.69,0,0,0-1.49.79,4,4,0,0,0-.52,2.24,3.92,3.92,0,0,0,.51,2.19A1.71,1.71,0,0,0,73.66,263.17Z" fill="#fff"/><path d="M80.12,253.57a1,1,0,0,1,.27-.76,1.05,1.05,0,0,1,.77-.27,1,1,0,0,1,.75.27,1,1,0,0,1,.27.76,1,1,0,0,1-.27.74,1,1,0,0,1-.75.27,1,1,0,0,1-.77-.27A1,1,0,0,1,80.12,253.57Zm1.95,10.93H80.23v-8.64h1.84Z" fill="#fff"/><path d="M90.49,262a2.26,2.26,0,0,1-.92,1.94,4.41,4.41,0,0,1-2.64.68,6.23,6.23,0,0,1-2.77-.52v-1.59a6.81,6.81,0,0,0,2.84.7q1.69,0,1.7-1a.81.81,0,0,0-.19-.55,2.23,2.23,0,0,0-.62-.45,10.63,10.63,0,0,0-1.2-.53,5.51,5.51,0,0,1-2-1.16,2.14,2.14,0,0,1-.53-1.5,2,2,0,0,1,.89-1.72,4.25,4.25,0,0,1,2.43-.61,6.9,6.9,0,0,1,2.88.62l-.59,1.38a6.43,6.43,0,0,0-2.35-.58q-1.45,0-1.45.83a.83.83,0,0,0,.38.69,8.35,8.35,0,0,0,1.65.77,7.6,7.6,0,0,1,1.55.76,2.27,2.27,0,0,1,.72.79A2.3,2.3,0,0,1,90.49,262Z" fill="#fff"/><line x1="1.5" y1="236" x2="230" y2="236" fill="none" stroke="#0399ff" stroke-miterlimit="10"/><path d="M40.61,265.64c-1.36.71-8.41,3.61-9.91,4.39a3.35,3.35,0,0,1-3.52.21c-1.19-.57-8.69-3.6-10-4.24-.68-.32-1-.6-1-.85v-2.58s9.77-2.13,11.35-2.69a4,4,0,0,1,3.47-.09c1.34.49,9.37,1.94,10.69,2.43,0,0,0,2.3,0,2.54s-.31.53-1,.9" fill="#912626"/><path d="M40.61,263.08c-1.36.71-8.41,3.61-9.91,4.39a3.35,3.35,0,0,1-3.52.21c-1.19-.57-8.69-3.6-10-4.24s-1.38-1.09-.05-1.61,8.79-3.45,10.37-4a4,4,0,0,1,3.47-.09c1.34.49,8.35,3.28,9.68,3.77s1.38.89,0,1.6" fill="#c6302b"/><path d="M40.61,261.47c-1.36.71-8.41,3.61-9.91,4.39a3.35,3.35,0,0,1-3.52.21c-1.19-.57-8.69-3.6-10-4.24-.68-.32-1-.6-1-.85v-2.58s9.77-2.13,11.35-2.69a4,4,0,0,1,3.47-.09c1.34.49,9.37,1.94,10.69,2.43,0,0,0,2.3,0,2.54s-.31.53-1,.9" fill="#912626"/><path d="M40.61,258.91c-1.36.71-8.41,3.61-9.91,4.39a3.35,3.35,0,0,1-3.52.21c-1.19-.57-8.69-3.6-10-4.24s-1.38-1.09-.05-1.61,8.79-3.45,10.37-4a4,4,0,0,1,3.47-.09c1.34.49,8.35,3.28,9.68,3.77s1.38.89,0,1.6h0" fill="#c6302b"/><path d="M40.61,257.14c-1.36.71-8.41,3.61-9.91,4.39a3.35,3.35,0,0,1-3.52.21c-1.19-.57-8.69-3.6-10-4.24-.68-.32-1-.6-1-.85v-2.58s9.77-2.13,11.35-2.69a4,4,0,0,1,3.47-.09c1.34.49,9.37,1.94,10.69,2.43,0,0,0,2.3,0,2.54s-.31.53-1,.9" fill="#912626"/><path d="M40.61,254.58c-1.36.71-8.41,3.61-9.91,4.39a3.35,3.35,0,0,1-3.52.21c-1.19-.57-8.69-3.6-10-4.24s-1.38-1.09-.05-1.61,8.79-3.45,10.37-4a4,4,0,0,1,3.47-.09c1.34.49,8.35,3.28,9.68,3.77s1.38.89,0,1.6" fill="#c6302b"/><path d="M32,252.07l-2.19.23-.49,1.18-.79-1.32L26,251.94l1.89-.68-.57-1,1.77.69,1.67-.55-.45,1.08,1.7.64" fill="#fff"/><path d="M29.15,257.8l-4.09-1.7,5.86-.9-1.77,2.6" fill="#fff"/><path d="M23.48,252.73c1.73,0,3.13.54,3.13,1.22s-1.4,1.22-3.13,1.22-3.13-.54-3.13-1.22,1.4-1.22,3.13-1.22" fill="#fff"/><path d="M34.56,252.4,38,253.77l-3.47,1.37V252.4" fill="#621b1c"/><path d="M30.72,253.91l3.84-1.52v2.74l-.38.15-3.47-1.37" fill="#9a2928"/><line x1="335.5" y1="173.5" x2="335.5" y2="188.5" fill="none" stroke="#0399ff" stroke-miterlimit="10"/><line x1="335" y1="174" x2="154" y2="174" fill="none" stroke="#0399ff" stroke-miterlimit="10"/><line x1="244.5" y1="313.5" x2="244.5" y2="298.5" fill="none" stroke="#0399ff" stroke-miterlimit="10"/><line x1="244.25" y1="398.5" x2="244.25" y2="383.5" fill="none" stroke="#0399ff" stroke-miterlimit="10"/><rect x="290.25" y="400" width="50" height="50" rx="4.66" ry="4.66" fill="#2e3d4c" stroke="#0399ff" stroke-linecap="round" stroke-miterlimit="10"/><line x1="315.25" y1="398.5" x2="315.25" y2="383.5" fill="none" stroke="#0399ff" stroke-miterlimit="10"/><rect x="153.25" y="400" width="50" height="50" rx="4.66" ry="4.66" fill="#2e3d4c" stroke="#0399ff" stroke-linecap="round" stroke-miterlimit="10"/><line x1="178.25" y1="398.5" x2="178.25" y2="383.5" fill="none" stroke="#0399ff" stroke-miterlimit="10"/><line x1="154.5" y1="298.5" x2="154.5" y2="283.5" fill="none" stroke="#0399ff" stroke-miterlimit="10"/><line x1="112.5" y1="383" x2="112.5" y2="283.5" fill="none" stroke="#0399ff" stroke-miterlimit="10"/><line x1="377.5" y1="383" x2="377.5" y2="283.5" fill="none" stroke="#0399ff" stroke-miterlimit="10"/><line x1="335.5" y1="298.5" x2="335.5" y2="283.5" fill="none" stroke="#0399ff" stroke-miterlimit="10"/><line x1="335" y1="298" x2="154" y2="298" fill="none" stroke="#0399ff" stroke-miterlimit="10"/><line x1="378" y1="383" x2="112" y2="383" fill="none" stroke="#0399ff" stroke-miterlimit="10"/><path d="M178.5,432.16c-6,0-10.92-1.73-10.92-3.87V434h0c.33,2,5.09,3.64,10.9,3.64S189.07,436,189.4,434h0v-5.69C189.42,430.43,184.53,432.16,178.5,432.16Z" fill="#ffa10b"/><path d="M167.58,428.07v.23a1.41,1.41,0,0,1,0-.23Z" fill="#ffa10b"/><path d="M189.4,428.07a1.41,1.41,0,0,1,0,.23v-.23Z" fill="#ffa10b"/><path d="M178.5,426.7c-6,0-10.92-1.73-10.92-3.87v5.69h0c.33,2,5.09,3.64,10.9,3.64s10.57-1.61,10.9-3.64h0v-5.69C189.42,425,184.53,426.7,178.5,426.7Z" fill="#ffb70a"/><path d="M167.58,422.6v.23a1.41,1.41,0,0,1,0-.23Z" fill="#ffb70a"/><path d="M189.4,422.6a1.41,1.41,0,0,1,0,.23v-.23Z" fill="#ffb70a"/><ellipse cx="178.5" cy="417.37" rx="10.92" ry="3.87" fill="#ffb70a"/><path d="M178.5,421.24c-6,0-10.92-1.73-10.92-3.87v5.69h0c.33,2,5.09,3.64,10.9,3.64s10.57-1.61,10.9-3.64h0v-5.69C189.42,419.51,184.53,421.24,178.5,421.24Z" fill="#ffa10b"/><path d="M167.58,417.14v.23a1.41,1.41,0,0,1,0-.23Z" fill="#ffa10b"/><path d="M189.4,417.14a1.42,1.42,0,0,1,0,.23v-.23Z" fill="#ffa10b"/><path d="M244.33,432.16c-6,0-10.92-1.73-10.92-3.87V434h0c.33,2,5.09,3.64,10.9,3.64S254.9,436,255.23,434h0v-5.69C255.25,430.43,250.36,432.16,244.33,432.16Z" fill="#ffa10b"/><path d="M233.4,428.07v.23a1.41,1.41,0,0,1,0-.23Z" fill="#ffa10b"/><path d="M255.23,428.07a1.41,1.41,0,0,1,0,.23v-.23Z" fill="#ffa10b"/><path d="M244.33,426.7c-6,0-10.92-1.73-10.92-3.87v5.69h0c.33,2,5.09,3.64,10.9,3.64s10.57-1.61,10.9-3.64h0v-5.69C255.25,425,250.36,426.7,244.33,426.7Z" fill="#ffb70a"/><path d="M233.4,422.6v.23a1.41,1.41,0,0,1,0-.23Z" fill="#ffb70a"/><path d="M255.23,422.6a1.41,1.41,0,0,1,0,.23v-.23Z" fill="#ffb70a"/><ellipse cx="244.33" cy="417.37" rx="10.92" ry="3.87" fill="#ffb70a"/><path d="M244.33,421.24c-6,0-10.92-1.73-10.92-3.87v5.69h0c.33,2,5.09,3.64,10.9,3.64s10.57-1.61,10.9-3.64h0v-5.69C255.25,419.51,250.36,421.24,244.33,421.24Z" fill="#ffa10b"/><path d="M233.4,417.14v.23a1.41,1.41,0,0,1,0-.23Z" fill="#ffa10b"/><path d="M255.23,417.14a1.42,1.42,0,0,1,0,.23v-.23Z" fill="#ffa10b"/><path d="M315.33,432.16c-6,0-10.92-1.73-10.92-3.87V434h0c.33,2,5.09,3.64,10.9,3.64S325.9,436,326.23,434h0v-5.69C326.25,430.43,321.36,432.16,315.33,432.16Z" fill="#ffa10b"/><path d="M304.4,428.07v.23a1.41,1.41,0,0,1,0-.23Z" fill="#ffa10b"/><path d="M326.23,428.07a1.41,1.41,0,0,1,0,.23v-.23Z" fill="#ffa10b"/><path d="M315.33,426.7c-6,0-10.92-1.73-10.92-3.87v5.69h0c.33,2,5.09,3.64,10.9,3.64s10.57-1.61,10.9-3.64h0v-5.69C326.25,425,321.36,426.7,315.33,426.7Z" fill="#ffb70a"/><path d="M304.4,422.6v.23a1.41,1.41,0,0,1,0-.23Z" fill="#ffb70a"/><path d="M326.23,422.6a1.41,1.41,0,0,1,0,.23v-.23Z" fill="#ffb70a"/><ellipse cx="315.33" cy="417.37" rx="10.92" ry="3.87" fill="#ffb70a"/><path d="M315.33,421.24c-6,0-10.92-1.73-10.92-3.87v5.69h0c.33,2,5.09,3.64,10.9,3.64s10.57-1.61,10.9-3.64h0v-5.69C326.25,419.51,321.36,421.24,315.33,421.24Z" fill="#ffa10b"/><path d="M304.4,417.14v.23a1.41,1.41,0,0,1,0-.23Z" fill="#ffa10b"/><path d="M326.23,417.14a1.42,1.42,0,0,1,0,.23v-.23Z" fill="#ffa10b"/><path d="M222.68,467.3h4.2V473a12.1,12.1,0,0,1-2,.48,14,14,0,0,1-2.05.14,5.15,5.15,0,0,1-4-1.54,6.18,6.18,0,0,1-1.41-4.33,5.78,5.78,0,0,1,1.59-4.32,6,6,0,0,1,4.37-1.56,8.51,8.51,0,0,1,3.39.69l-.66,1.55a6.6,6.6,0,0,0-2.78-.64,3.74,3.74,0,0,0-2.89,1.15,4.45,4.45,0,0,0-1.06,3.14,4.69,4.69,0,0,0,1,3.18,3.47,3.47,0,0,0,2.75,1.09,9,9,0,0,0,1.94-.23v-2.95h-2.37Z" fill="#fff"/><path d="M234.84,473.5l-.37-1.2h-.06a3.53,3.53,0,0,1-1.26,1.07,4,4,0,0,1-1.62.29,2.75,2.75,0,0,1-2-.69,2.57,2.57,0,0,1-.71-1.95,2.28,2.28,0,0,1,1-2,5.72,5.72,0,0,1,3-.74l1.49,0v-.46a1.75,1.75,0,0,0-.39-1.24,1.58,1.58,0,0,0-1.2-.41,4.16,4.16,0,0,0-1.27.2,9.77,9.77,0,0,0-1.17.46l-.59-1.31a6.43,6.43,0,0,1,1.54-.56,7.12,7.12,0,0,1,1.58-.19,3.74,3.74,0,0,1,2.49.72,2.82,2.82,0,0,1,.84,2.26v5.82Zm-2.73-1.25a2.27,2.27,0,0,0,1.61-.56,2,2,0,0,0,.61-1.57v-.75l-1.11,0a3.8,3.8,0,0,0-1.89.43,1.32,1.32,0,0,0-.59,1.18,1.15,1.15,0,0,0,.34.89A1.48,1.48,0,0,0,232.1,472.25Z" fill="#fff"/><path d="M240.55,473.5h-1.84V461.34h1.84Z" fill="#fff"/><path d="M246.95,473.66a4.18,4.18,0,0,1-3.15-1.18,4.46,4.46,0,0,1-1.14-3.24,4.9,4.9,0,0,1,1.05-3.33,3.64,3.64,0,0,1,2.9-1.21,3.56,3.56,0,0,1,2.7,1,4,4,0,0,1,1,2.86v1h-5.76a2.84,2.84,0,0,0,.68,1.93,2.36,2.36,0,0,0,1.8.68,6.64,6.64,0,0,0,1.43-.14,7.37,7.37,0,0,0,1.42-.48v1.49a5.6,5.6,0,0,1-1.36.45A8.3,8.3,0,0,1,246.95,473.66Zm-.34-7.56a1.85,1.85,0,0,0-1.4.55,2.64,2.64,0,0,0-.63,1.62h3.92a2.4,2.4,0,0,0-.52-1.62A1.76,1.76,0,0,0,246.61,466.09Z" fill="#fff"/><path d="M256.77,464.7a4.44,4.44,0,0,1,.91.08l-.18,1.71a3.47,3.47,0,0,0-.81-.09,2.35,2.35,0,0,0-1.79.72,2.6,2.6,0,0,0-.68,1.87v4.52h-1.84v-8.64h1.44l.24,1.52h.09a3.43,3.43,0,0,1,1.12-1.23A2.67,2.67,0,0,1,256.77,464.7Z" fill="#fff"/><path d="M264.7,473.5l-.37-1.2h-.06a3.53,3.53,0,0,1-1.26,1.07,4,4,0,0,1-1.62.29,2.75,2.75,0,0,1-2-.69,2.57,2.57,0,0,1-.71-1.95,2.28,2.28,0,0,1,1-2,5.72,5.72,0,0,1,3-.74l1.49,0v-.46a1.75,1.75,0,0,0-.39-1.24,1.58,1.58,0,0,0-1.2-.41,4.16,4.16,0,0,0-1.27.2,9.77,9.77,0,0,0-1.17.46l-.59-1.31a6.43,6.43,0,0,1,1.54-.56,7.12,7.12,0,0,1,1.58-.19,3.74,3.74,0,0,1,2.49.72,2.82,2.82,0,0,1,.84,2.26v5.82ZM262,472.25a2.27,2.27,0,0,0,1.61-.56,2,2,0,0,0,.61-1.57v-.75l-1.11,0a3.8,3.8,0,0,0-1.89.43,1.32,1.32,0,0,0-.59,1.18,1.15,1.15,0,0,0,.34.89A1.48,1.48,0,0,0,262,472.25Z" fill="#fff"/><circle cx="239" cy="236" r="1.5" fill="#95aace"/><circle cx="245" cy="236" r="1.5" fill="#95aace"/><circle cx="251" cy="236" r="1.5" fill="#95aace"/><path d="M322.34,219.84h-2L318.37,213q-.12-.45-.31-1.29t-.23-1.17q-.08.5-.25,1.3t-.29,1.19l-1.89,6.78h-2l-1.48-5.72-1.5-5.7h1.91l1.63,6.66q.38,1.6.55,2.83.09-.66.26-1.48t.31-1.33l1.86-6.67h1.85l1.91,6.7a25,25,0,0,1,.58,2.78,20.42,20.42,0,0,1,.56-2.84l1.63-6.64h1.89Z" fill="#fff"/><path d="M330.51,220a4.18,4.18,0,0,1-3.15-1.18,4.46,4.46,0,0,1-1.14-3.24,4.9,4.9,0,0,1,1.05-3.33,3.64,3.64,0,0,1,2.9-1.21,3.56,3.56,0,0,1,2.7,1,4,4,0,0,1,1,2.86v1h-5.76a2.84,2.84,0,0,0,.68,1.93,2.36,2.36,0,0,0,1.8.68,6.64,6.64,0,0,0,1.43-.14,7.37,7.37,0,0,0,1.42-.48v1.49a5.6,5.6,0,0,1-1.36.45A8.3,8.3,0,0,1,330.51,220Zm-.34-7.56a1.85,1.85,0,0,0-1.4.55,2.64,2.64,0,0,0-.63,1.62h3.92a2.4,2.4,0,0,0-.52-1.62A1.76,1.76,0,0,0,330.17,212.44Z" fill="#fff"/><path d="M340.37,211a3,3,0,0,1,2.52,1.17,6.45,6.45,0,0,1,0,6.6,3.33,3.33,0,0,1-5.09,0h-.12l-.34,1H336V207.69h1.84v2.89q0,.32,0,1t0,.8h.08A2.91,2.91,0,0,1,340.37,211Zm-.48,1.5a1.87,1.87,0,0,0-1.6.65,3.8,3.8,0,0,0-.5,2.18v.13a4,4,0,0,0,.5,2.29,1.86,1.86,0,0,0,1.63.71,1.65,1.65,0,0,0,1.48-.77,4.1,4.1,0,0,0,.5-2.23Q341.91,212.55,339.89,212.55Z" fill="#fff"/><path d="M356.86,216.74a2.87,2.87,0,0,1-1.1,2.39,4.79,4.79,0,0,1-3,.87,7.25,7.25,0,0,1-3.17-.6v-1.77a8.59,8.59,0,0,0,1.66.58,7,7,0,0,0,1.64.21,2.6,2.6,0,0,0,1.64-.42,1.37,1.37,0,0,0,.53-1.13,1.42,1.42,0,0,0-.48-1.09,7.29,7.29,0,0,0-2-1.05,5.28,5.28,0,0,1-2.2-1.45,3.06,3.06,0,0,1-.64-2,2.74,2.74,0,0,1,1-2.25,4.21,4.21,0,0,1,2.73-.82,8,8,0,0,1,3.27.72l-.59,1.52a7.14,7.14,0,0,0-2.72-.64,2.09,2.09,0,0,0-1.37.39,1.3,1.3,0,0,0-.47,1,1.47,1.47,0,0,0,.19.76,1.92,1.92,0,0,0,.62.6,10.39,10.39,0,0,0,1.55.74,8.48,8.48,0,0,1,1.84,1,2.88,2.88,0,0,1,.86,1A3.08,3.08,0,0,1,356.86,216.74Z" fill="#fff"/><path d="M362.65,220a4.18,4.18,0,0,1-3.15-1.18,4.46,4.46,0,0,1-1.14-3.24,4.9,4.9,0,0,1,1.05-3.33,3.64,3.64,0,0,1,2.9-1.21,3.56,3.56,0,0,1,2.7,1,4,4,0,0,1,1,2.86v1h-5.76a2.84,2.84,0,0,0,.68,1.93,2.36,2.36,0,0,0,1.8.68,6.64,6.64,0,0,0,1.43-.14,7.37,7.37,0,0,0,1.42-.48v1.49a5.6,5.6,0,0,1-1.36.45A8.3,8.3,0,0,1,362.65,220Zm-.34-7.56a1.85,1.85,0,0,0-1.4.55,2.64,2.64,0,0,0-.63,1.62h3.92a2.4,2.4,0,0,0-.52-1.62A1.76,1.76,0,0,0,362.31,212.44Z" fill="#fff"/><path d="M372.48,211a4.44,4.44,0,0,1,.91.08l-.18,1.71a3.47,3.47,0,0,0-.81-.09,2.35,2.35,0,0,0-1.79.72,2.6,2.6,0,0,0-.68,1.87v4.52h-1.84V211.2h1.44l.24,1.52h.09A3.42,3.42,0,0,1,371,211.5,2.67,2.67,0,0,1,372.48,211Z" fill="#fff"/><path d="M377,219.84l-3.28-8.64h1.94l1.76,5a10,10,0,0,1,.55,2H378a13.81,13.81,0,0,1,.55-2l1.76-5h2l-3.3,8.64Z" fill="#fff"/><path d="M387.33,220a4.18,4.18,0,0,1-3.15-1.18,4.46,4.46,0,0,1-1.14-3.24,4.9,4.9,0,0,1,1.05-3.33A3.64,3.64,0,0,1,387,211a3.56,3.56,0,0,1,2.7,1,4,4,0,0,1,1,2.86v1h-5.76a2.84,2.84,0,0,0,.68,1.93,2.36,2.36,0,0,0,1.8.68,6.64,6.64,0,0,0,1.43-.14,7.37,7.37,0,0,0,1.42-.48v1.49a5.6,5.6,0,0,1-1.36.45A8.3,8.3,0,0,1,387.33,220Zm-.34-7.56a1.85,1.85,0,0,0-1.4.55,2.64,2.64,0,0,0-.63,1.62h3.92a2.4,2.4,0,0,0-.52-1.62A1.76,1.76,0,0,0,387,212.44Z" fill="#fff"/><path d="M397.16,211a4.44,4.44,0,0,1,.91.08l-.18,1.71a3.47,3.47,0,0,0-.81-.09,2.35,2.35,0,0,0-1.79.72,2.6,2.6,0,0,0-.68,1.87v4.52h-1.84V211.2h1.44l.24,1.52h.09a3.42,3.42,0,0,1,1.12-1.23A2.67,2.67,0,0,1,397.16,211Z" fill="#fff"/><path d="M293.72,207.65h-14a.81.81,0,0,0-.81.81v2.77a.81.81,0,0,0,.81.81h14a.81.81,0,0,0,.81-.81v-2.77A.81.81,0,0,0,293.72,207.65Zm-13.38,1.93a.5.5,0,1,1,.5-.5A.5.5,0,0,1,280.34,209.57ZM292.39,211h-3.54v-1.18h3.54V211Z" fill="#95aace"/><path d="M293.72,212.48h-14a.81.81,0,0,0-.81.81v2.77a.81.81,0,0,0,.81.81h14a.81.81,0,0,0,.81-.81V213.3A.81.81,0,0,0,293.72,212.48Zm-13.38,1.93a.5.5,0,1,1,.5-.5A.5.5,0,0,1,280.34,214.41Zm12.05,1.45h-3.54v-1.18h3.54v1.18Z" fill="#95aace"/><path d="M293.72,217.32h-14a.81.81,0,0,0-.81.81v2.77a.81.81,0,0,0,.81.81h14a.81.81,0,0,0,.81-.81v-2.77A.81.81,0,0,0,293.72,217.32Zm-13.38,1.93a.5.5,0,1,1,.5-.5A.5.5,0,0,1,280.34,219.25Zm12.05,1.45h-3.54v-1.18h3.54v1.18Z" fill="#95aace"/><polygon points="289.13 224.36 287.63 224.36 287.63 222.18 285.78 222.18 285.78 224.36 284.28 224.36 284.28 224.93 279.05 224.93 279.05 226.79 284.28 226.79 284.28 227.36 289.13 227.36 289.13 226.79 294.36 226.79 294.36 224.93 289.13 224.93 289.13 224.36" fill="#95aace"/><path d="M295,203.18a.7.7,0,0,1-.5-.28,6.06,6.06,0,0,0-4.85-2.46h-.36a.7.7,0,0,1-.46-.14,6.76,6.76,0,0,0-10.18,2.51.7.7,0,0,1-.54.39,6,6,0,0,0-.4,11.87V213.3a2,2,0,0,1,.11-.64,3.65,3.65,0,0,1,1.14-7.12l.3,0a1.19,1.19,0,0,0,1.25-.89,4.39,4.39,0,0,1,7.33-2.07,1.19,1.19,0,0,0,1.07.31,3.68,3.68,0,0,1,.75-.08,3.63,3.63,0,0,1,3.29,2.07,1.18,1.18,0,0,0,1.19.66l.37,0a3.65,3.65,0,0,1,1.14,7.12,2,2,0,0,1,.11.64v1.79a6,6,0,0,0-.74-11.9Z" fill="#0399ff"/><path d="M62.34,219.84h-2L58.37,213q-.12-.45-.31-1.29t-.23-1.17q-.08.5-.25,1.3t-.29,1.19l-1.89,6.78h-2l-1.48-5.72-1.5-5.7h1.91l1.63,6.66q.38,1.6.55,2.83.09-.66.26-1.48t.31-1.33l1.86-6.67h1.85l1.91,6.7a25,25,0,0,1,.58,2.78,20.42,20.42,0,0,1,.56-2.84l1.63-6.64h1.89Z" fill="#fff"/><path d="M70.51,220a4.18,4.18,0,0,1-3.15-1.18,4.46,4.46,0,0,1-1.14-3.24,4.9,4.9,0,0,1,1.05-3.33,3.64,3.64,0,0,1,2.9-1.21,3.56,3.56,0,0,1,2.7,1,4,4,0,0,1,1,2.86v1H68.11a2.84,2.84,0,0,0,.68,1.93,2.36,2.36,0,0,0,1.8.68A6.64,6.64,0,0,0,72,218.4a7.37,7.37,0,0,0,1.42-.48v1.49a5.6,5.6,0,0,1-1.36.45A8.3,8.3,0,0,1,70.51,220Zm-.34-7.56a1.85,1.85,0,0,0-1.4.55,2.64,2.64,0,0,0-.63,1.62h3.92a2.4,2.4,0,0,0-.52-1.62A1.76,1.76,0,0,0,70.17,212.44Z" fill="#fff"/><path d="M80.37,211a3,3,0,0,1,2.52,1.17,6.45,6.45,0,0,1,0,6.6,3.33,3.33,0,0,1-5.09,0h-.12l-.34,1H76V207.69h1.84v2.89q0,.32,0,1t0,.8h.08A2.91,2.91,0,0,1,80.37,211Zm-.48,1.5a1.87,1.87,0,0,0-1.6.65,3.8,3.8,0,0,0-.5,2.18v.13a4,4,0,0,0,.5,2.29,1.86,1.86,0,0,0,1.63.71,1.65,1.65,0,0,0,1.48-.77,4.1,4.1,0,0,0,.5-2.23Q81.91,212.55,79.89,212.55Z" fill="#fff"/><path d="M96.86,216.74a2.87,2.87,0,0,1-1.1,2.39,4.79,4.79,0,0,1-3,.87,7.25,7.25,0,0,1-3.17-.6v-1.77a8.59,8.59,0,0,0,1.66.58,7,7,0,0,0,1.64.21,2.6,2.6,0,0,0,1.64-.42,1.37,1.37,0,0,0,.53-1.13,1.42,1.42,0,0,0-.48-1.09,7.29,7.29,0,0,0-2-1.05,5.28,5.28,0,0,1-2.2-1.45,3.06,3.06,0,0,1-.64-2,2.74,2.74,0,0,1,1-2.25,4.21,4.21,0,0,1,2.73-.82,8,8,0,0,1,3.27.72l-.59,1.52a7.14,7.14,0,0,0-2.72-.64,2.09,2.09,0,0,0-1.37.39,1.3,1.3,0,0,0-.47,1,1.47,1.47,0,0,0,.19.76,1.92,1.92,0,0,0,.62.6,10.39,10.39,0,0,0,1.55.74,8.48,8.48,0,0,1,1.84,1,2.88,2.88,0,0,1,.86,1A3.08,3.08,0,0,1,96.86,216.74Z" fill="#fff"/><path d="M102.65,220a4.18,4.18,0,0,1-3.15-1.18,4.46,4.46,0,0,1-1.14-3.24,4.9,4.9,0,0,1,1.05-3.33,3.64,3.64,0,0,1,2.9-1.21,3.56,3.56,0,0,1,2.7,1,4,4,0,0,1,1,2.86v1h-5.76a2.84,2.84,0,0,0,.68,1.93,2.36,2.36,0,0,0,1.8.68,6.64,6.64,0,0,0,1.43-.14,7.37,7.37,0,0,0,1.42-.48v1.49a5.6,5.6,0,0,1-1.36.45A8.3,8.3,0,0,1,102.65,220Zm-.34-7.56a1.85,1.85,0,0,0-1.4.55,2.64,2.64,0,0,0-.63,1.62h3.92a2.4,2.4,0,0,0-.52-1.62A1.76,1.76,0,0,0,102.31,212.44Z" fill="#fff"/><path d="M112.48,211a4.44,4.44,0,0,1,.91.08l-.18,1.71a3.47,3.47,0,0,0-.81-.09,2.35,2.35,0,0,0-1.79.72,2.6,2.6,0,0,0-.68,1.87v4.52h-1.84V211.2h1.44l.24,1.52h.09A3.42,3.42,0,0,1,111,211.5,2.67,2.67,0,0,1,112.48,211Z" fill="#fff"/><path d="M117,219.84l-3.28-8.64h1.94l1.76,5a10,10,0,0,1,.55,2H118a13.81,13.81,0,0,1,.55-2l1.76-5h2l-3.3,8.64Z" fill="#fff"/><path d="M127.33,220a4.18,4.18,0,0,1-3.15-1.18,4.46,4.46,0,0,1-1.14-3.24,4.9,4.9,0,0,1,1.05-3.33A3.64,3.64,0,0,1,127,211a3.56,3.56,0,0,1,2.7,1,4,4,0,0,1,1,2.86v1h-5.76a2.84,2.84,0,0,0,.68,1.93,2.36,2.36,0,0,0,1.8.68,6.64,6.64,0,0,0,1.43-.14,7.37,7.37,0,0,0,1.42-.48v1.49a5.6,5.6,0,0,1-1.36.45A8.3,8.3,0,0,1,127.33,220Zm-.34-7.56a1.85,1.85,0,0,0-1.4.55,2.64,2.64,0,0,0-.63,1.62h3.92a2.4,2.4,0,0,0-.52-1.62A1.76,1.76,0,0,0,127,212.44Z" fill="#fff"/><path d="M137.16,211a4.44,4.44,0,0,1,.91.08l-.18,1.71a3.47,3.47,0,0,0-.81-.09,2.35,2.35,0,0,0-1.79.72,2.6,2.6,0,0,0-.68,1.87v4.52h-1.84V211.2h1.44l.24,1.52h.09a3.42,3.42,0,0,1,1.12-1.23A2.67,2.67,0,0,1,137.16,211Z" fill="#fff"/><path d="M33.72,207.65h-14a.81.81,0,0,0-.81.81v2.77a.81.81,0,0,0,.81.81h14a.81.81,0,0,0,.81-.81v-2.77A.81.81,0,0,0,33.72,207.65Zm-13.38,1.93a.5.5,0,1,1,.5-.5A.5.5,0,0,1,20.34,209.57ZM32.39,211H28.85v-1.18h3.54V211Z" fill="#95aace"/><path d="M33.72,212.48h-14a.81.81,0,0,0-.81.81v2.77a.81.81,0,0,0,.81.81h14a.81.81,0,0,0,.81-.81V213.3A.81.81,0,0,0,33.72,212.48Zm-13.38,1.93a.5.5,0,1,1,.5-.5A.5.5,0,0,1,20.34,214.41Zm12.05,1.45H28.85v-1.18h3.54v1.18Z" fill="#95aace"/><path d="M33.72,217.32h-14a.81.81,0,0,0-.81.81v2.77a.81.81,0,0,0,.81.81h14a.81.81,0,0,0,.81-.81v-2.77A.81.81,0,0,0,33.72,217.32Zm-13.38,1.93a.5.5,0,1,1,.5-.5A.5.5,0,0,1,20.34,219.25Zm12.05,1.45H28.85v-1.18h3.54v1.18Z" fill="#95aace"/><polygon points="29.13 224.36 27.63 224.36 27.63 222.18 25.78 222.18 25.78 224.36 24.28 224.36 24.28 224.93 19.05 224.93 19.05 226.79 24.28 226.79 24.28 227.36 29.13 227.36 29.13 226.79 34.36 226.79 34.36 224.93 29.13 224.93 29.13 224.36" fill="#95aace"/><path d="M35,203.18a.7.7,0,0,1-.5-.28,6.06,6.06,0,0,0-4.85-2.46h-.36a.7.7,0,0,1-.46-.14,6.76,6.76,0,0,0-10.18,2.51.7.7,0,0,1-.54.39,6,6,0,0,0-.4,11.87V213.3a2,2,0,0,1,.11-.64,3.65,3.65,0,0,1,1.14-7.12l.3,0a1.19,1.19,0,0,0,1.25-.89,4.39,4.39,0,0,1,7.33-2.07,1.19,1.19,0,0,0,1.07.31,3.68,3.68,0,0,1,.75-.08,3.63,3.63,0,0,1,3.29,2.07,1.18,1.18,0,0,0,1.19.66l.37,0a3.65,3.65,0,0,1,1.14,7.12,2,2,0,0,1,.11.64v1.79a6,6,0,0,0-.74-11.9Z" fill="#0399ff"/><rect x="153.78" y="125.18" width="1.27" height="12.29" fill="#71b429"/><rect x="148.15" y="125.18" width="1.27" height="12.29" transform="translate(116.13 -64.42) rotate(39.1)" fill="#71b429"/><rect x="159.41" y="125.18" width="1.27" height="12.29" transform="translate(367.08 132.32) rotate(140.9)" fill="#71b429"/><circle cx="154.42" cy="124.34" r="3.84" fill="#71b429"/><circle cx="154.42" cy="137.66" r="3.84" fill="#71b429"/><circle cx="143.66" cy="137.66" r="3.84" fill="#71b429"/><circle cx="164.66" cy="137.66" r="3.84" fill="#71b429"/><path d="M178.61,136.69V124.55h2V135h5.14v1.7Z" fill="#fff"/><path d="M195.76,132.08a5,5,0,0,1-1.15,3.51,4.14,4.14,0,0,1-3.21,1.26,4.4,4.4,0,0,1-2.28-.58,3.84,3.84,0,0,1-1.52-1.67,5.68,5.68,0,0,1-.53-2.52,5,5,0,0,1,1.15-3.49,4.15,4.15,0,0,1,3.23-1.25,4,4,0,0,1,3.15,1.28A5,5,0,0,1,195.76,132.08Zm-6.68,0q0,3.18,2.35,3.18t2.32-3.18q0-3.15-2.34-3.15a2,2,0,0,0-1.78.81A4.14,4.14,0,0,0,189.08,132.08Z" fill="#fff"/><path d="M203.75,136.69l-.39-1.28h-.07a3.76,3.76,0,0,1-1.34,1.14,4.22,4.22,0,0,1-1.73.3,2.92,2.92,0,0,1-2.11-.73,2.73,2.73,0,0,1-.76-2.07,2.43,2.43,0,0,1,1.05-2.14,6.09,6.09,0,0,1,3.21-.79l1.59,0v-.49a1.86,1.86,0,0,0-.41-1.32,1.68,1.68,0,0,0-1.27-.44,4.4,4.4,0,0,0-1.35.21,10,10,0,0,0-1.24.49l-.63-1.39a6.81,6.81,0,0,1,1.63-.59,7.54,7.54,0,0,1,1.68-.2,4,4,0,0,1,2.64.76,3,3,0,0,1,.89,2.4v6.18Zm-2.91-1.33a2.42,2.42,0,0,0,1.71-.59,2.15,2.15,0,0,0,.64-1.66v-.8l-1.18,0a4,4,0,0,0-2,.46,1.4,1.4,0,0,0-.63,1.26,1.23,1.23,0,0,0,.37,1A1.57,1.57,0,0,0,200.84,135.36Z" fill="#fff"/><path d="M211,136.85a3.2,3.2,0,0,1-2.68-1.25,6.82,6.82,0,0,1,0-7,3.23,3.23,0,0,1,2.7-1.26,3.16,3.16,0,0,1,2.76,1.34h.1a11.75,11.75,0,0,1-.14-1.56v-3.35h2v12.92h-1.53l-.34-1.2h-.09A3.12,3.12,0,0,1,211,136.85Zm.52-1.58a2.12,2.12,0,0,0,1.75-.68,3.57,3.57,0,0,0,.56-2.2v-.27a4.12,4.12,0,0,0-.56-2.47,2.09,2.09,0,0,0-1.77-.73,1.79,1.79,0,0,0-1.58.83,4.27,4.27,0,0,0-.56,2.38,4.17,4.17,0,0,0,.54,2.33A1.82,1.82,0,0,0,211.48,135.27Z" fill="#fff"/><path d="M223.08,124.55h3.6a6.84,6.84,0,0,1,3.62.73,2.56,2.56,0,0,1,1.12,2.31,2.79,2.79,0,0,1-.55,1.77,2.45,2.45,0,0,1-1.58.89v.08a3.13,3.13,0,0,1,1.88,1,2.88,2.88,0,0,1,.6,1.92,3.12,3.12,0,0,1-1.14,2.56,4.91,4.91,0,0,1-3.18.93h-4.38Zm2,5H227a3.27,3.27,0,0,0,1.82-.39,1.51,1.51,0,0,0,.57-1.34,1.34,1.34,0,0,0-.62-1.24,3.86,3.86,0,0,0-2-.38h-1.72Zm0,1.61V135h2.11a3.1,3.1,0,0,0,1.88-.48,1.76,1.76,0,0,0,.63-1.51,1.6,1.6,0,0,0-.65-1.4,3.43,3.43,0,0,0-2-.46Z" fill="#fff"/><path d="M239.84,136.69l-.39-1.28h-.07a3.76,3.76,0,0,1-1.34,1.14,4.22,4.22,0,0,1-1.73.3,2.92,2.92,0,0,1-2.11-.73,2.73,2.73,0,0,1-.76-2.07,2.43,2.43,0,0,1,1.05-2.14,6.09,6.09,0,0,1,3.21-.79l1.59,0v-.49a1.86,1.86,0,0,0-.41-1.32,1.68,1.68,0,0,0-1.27-.44,4.4,4.4,0,0,0-1.35.21,10,10,0,0,0-1.24.49l-.63-1.39a6.81,6.81,0,0,1,1.63-.59,7.54,7.54,0,0,1,1.68-.2,4,4,0,0,1,2.64.76,3,3,0,0,1,.89,2.4v6.18Zm-2.91-1.33a2.42,2.42,0,0,0,1.71-.59,2.15,2.15,0,0,0,.64-1.66v-.8l-1.18,0a4,4,0,0,0-2,.46,1.4,1.4,0,0,0-.63,1.26,1.23,1.23,0,0,0,.37,1A1.57,1.57,0,0,0,236.93,135.36Z" fill="#fff"/><path d="M245.91,136.69h-2V123.77h2Z" fill="#fff"/><path d="M254.44,136.69l-.39-1.28H254a3.76,3.76,0,0,1-1.34,1.14,4.22,4.22,0,0,1-1.73.3,2.92,2.92,0,0,1-2.11-.73,2.73,2.73,0,0,1-.76-2.07,2.43,2.43,0,0,1,1.05-2.14,6.09,6.09,0,0,1,3.21-.79l1.59,0v-.49a1.86,1.86,0,0,0-.41-1.32,1.68,1.68,0,0,0-1.27-.44,4.4,4.4,0,0,0-1.35.21,10,10,0,0,0-1.24.49l-.63-1.39a6.81,6.81,0,0,1,1.63-.59,7.54,7.54,0,0,1,1.68-.2,4,4,0,0,1,2.64.76,3,3,0,0,1,.89,2.4v6.18Zm-2.91-1.33a2.42,2.42,0,0,0,1.71-.59,2.15,2.15,0,0,0,.64-1.66v-.8l-1.18,0a4,4,0,0,0-2,.46,1.4,1.4,0,0,0-.63,1.26,1.23,1.23,0,0,0,.37,1A1.57,1.57,0,0,0,251.53,135.36Z" fill="#fff"/><path d="M266.63,136.69h-2V131a2.47,2.47,0,0,0-.43-1.59,1.66,1.66,0,0,0-1.36-.52,2.16,2.16,0,0,0-1.81.73,4,4,0,0,0-.57,2.45v4.57h-2V127.5h1.53l.27,1.2h.1a2.72,2.72,0,0,1,1.18-1,4,4,0,0,1,1.69-.36q3.3,0,3.3,3.36Z" fill="#fff"/><path d="M273,136.85a4,4,0,0,1-3.17-1.22,6.17,6.17,0,0,1,0-7.05,4.2,4.2,0,0,1,3.27-1.25,6.13,6.13,0,0,1,2.62.54l-.59,1.57a5.9,5.9,0,0,0-2-.48q-2.38,0-2.38,3.16a3.79,3.79,0,0,0,.59,2.32,2.05,2.05,0,0,0,1.74.78,5,5,0,0,0,2.47-.65v1.7a3.88,3.88,0,0,1-1.12.44A6.68,6.68,0,0,1,273,136.85Z" fill="#fff"/><path d="M281.77,136.85a4.44,4.44,0,0,1-3.35-1.25,4.74,4.74,0,0,1-1.21-3.44,5.21,5.21,0,0,1,1.12-3.54,3.87,3.87,0,0,1,3.08-1.29,3.78,3.78,0,0,1,2.87,1.1,4.21,4.21,0,0,1,1.05,3v1.05h-6.12a3,3,0,0,0,.72,2.05,2.51,2.51,0,0,0,1.92.72,7.07,7.07,0,0,0,1.51-.15,7.94,7.94,0,0,0,1.51-.51v1.58a6,6,0,0,1-1.44.48A8.89,8.89,0,0,1,281.77,136.85Zm-.36-8a2,2,0,0,0-1.49.59,2.81,2.81,0,0,0-.67,1.72h4.17a2.54,2.54,0,0,0-.55-1.72A1.88,1.88,0,0,0,281.42,128.82Z" fill="#fff"/><path d="M292.21,127.34a4.71,4.71,0,0,1,1,.08l-.19,1.82a3.69,3.69,0,0,0-.86-.1,2.5,2.5,0,0,0-1.9.76,2.76,2.76,0,0,0-.73,2v4.8h-2V127.5h1.53l.26,1.62h.1a3.64,3.64,0,0,1,1.19-1.3A2.83,2.83,0,0,1,292.21,127.34Z" fill="#fff"/></svg>
