<svg id="be8b45c3-1957-4d09-b20f-2400be5661ac" data-name="Слой 1" xmlns="http://www.w3.org/2000/svg" viewBox="0 0 233 353"><title>Standalone</title><rect width="233" height="353" rx="5" ry="5" fill="#0088fb"/><rect x="1.5" y="1.5" width="230" height="50" rx="6" ry="6" fill="#2e3d4c"/><rect x="1.5" y="51.5" width="230" height="50" rx="6" ry="6" fill="#2e3d4c"/><rect x="1.5" y="101.5" width="230" height="50" rx="6" ry="6" fill="#2e3d4c"/><rect x="1.5" y="151.5" width="230" height="50" rx="6" ry="6" fill="#2e3d4c"/><rect x="1.5" y="201.5" width="230" height="50" rx="6" ry="6" fill="#2e3d4c"/><rect x="1.5" y="251.5" width="230" height="50" rx="6" ry="6" fill="#2e3d4c"/><rect x="1.5" y="301.5" width="230" height="50" rx="6" ry="6" fill="#2e3d4c"/><rect x="1.5" y="1.5" width="230" height="50" rx="6" ry="6" fill="#2e3d4c"/><rect x="1.5" y="51.5" width="230" height="50" rx="6" ry="6" fill="#283642" opacity="0.5"/><rect x="1.5" y="101.5" width="230" height="50" rx="6" ry="6" fill="#2e3d4c"/><rect x="1.5" y="151.5" width="230" height="50" rx="6" ry="6" fill="#283642" opacity="0.5"/><rect x="1.5" y="201.5" width="230" height="50" rx="6" ry="6" fill="#2e3d4c"/><rect x="1.5" y="251.5" width="230" height="50" rx="6" ry="6" fill="#283642" opacity="0.5"/><rect x="1.5" y="301.5" width="230" height="50" rx="6" ry="6" fill="#2e3d4c"/><path d="M56.57,23.77a3.33,3.33,0,0,1-1.17,2.74,5.16,5.16,0,0,1-3.34,1H50.88v4.27H49V20.31H52.3a5,5,0,0,1,3.21.88A3.14,3.14,0,0,1,56.57,23.77Zm-5.7,2.13h1a3.56,3.56,0,0,0,2.11-.5,1.82,1.82,0,0,0,.67-1.56,1.78,1.78,0,0,0-.6-1.47,3,3,0,0,0-1.87-.48h-1.3Z" fill="#fff"/><path d="M63,22.94A4.45,4.45,0,0,1,64,23l-.18,1.71a3.47,3.47,0,0,0-.81-.09,2.35,2.35,0,0,0-1.79.72,2.6,2.6,0,0,0-.68,1.87v4.52H58.66V23.09h1.44l.24,1.52h.09a3.42,3.42,0,0,1,1.12-1.23A2.67,2.67,0,0,1,63,22.94Z" fill="#fff"/><path d="M69.33,31.89a4.18,4.18,0,0,1-3.15-1.18A4.46,4.46,0,0,1,65,27.48a4.9,4.9,0,0,1,1.05-3.33A3.64,3.64,0,0,1,69,22.94a3.56,3.56,0,0,1,2.7,1,4,4,0,0,1,1,2.86v1H66.93a2.83,2.83,0,0,0,.68,1.93,2.37,2.37,0,0,0,1.8.68,6.65,6.65,0,0,0,1.43-.14,7.48,7.48,0,0,0,1.42-.48V31.3a5.63,5.63,0,0,1-1.36.45A8.36,8.36,0,0,1,69.33,31.89ZM69,24.33a1.84,1.84,0,0,0-1.4.55A2.64,2.64,0,0,0,67,26.5h3.92a2.4,2.4,0,0,0-.52-1.62A1.76,1.76,0,0,0,69,24.33Z" fill="#fff"/><path d="M82.05,31.73H80.21V26.41a2.42,2.42,0,0,0-.37-1.48,1.38,1.38,0,0,0-1.17-.49,1.79,1.79,0,0,0-1.56.69,4.05,4.05,0,0,0-.5,2.3v4.3H74.77V23.09h1.44l.26,1.13h.09a2.39,2.39,0,0,1,1-1,3.37,3.37,0,0,1,1.5-.34,2.63,2.63,0,0,1,2.64,1.36h.13a2.63,2.63,0,0,1,1.08-1,3.42,3.42,0,0,1,1.59-.36,2.9,2.9,0,0,1,2.25.78,3.46,3.46,0,0,1,.71,2.38v5.63H85.67V26.41a2.4,2.4,0,0,0-.38-1.48,1.4,1.4,0,0,0-1.18-.49,1.82,1.82,0,0,0-1.57.67,3.44,3.44,0,0,0-.5,2.05Z" fill="#fff"/><path d="M90,20.8a1,1,0,0,1,.27-.76,1.05,1.05,0,0,1,.77-.27,1,1,0,0,1,.75.27,1,1,0,0,1,.27.76,1,1,0,0,1-.27.74,1,1,0,0,1-.75.27,1,1,0,0,1-.77-.27A1,1,0,0,1,90,20.8Zm1.95,10.93H90.07V23.09h1.84Z" fill="#fff"/><path d="M100.63,31.73l-.26-1.13h-.09a2.61,2.61,0,0,1-1.09.95,3.65,3.65,0,0,1-1.61.34,3.17,3.17,0,0,1-2.34-.78,3.24,3.24,0,0,1-.77-2.37V23.09H96.3v5.33a2.31,2.31,0,0,0,.41,1.49,1.55,1.55,0,0,0,1.27.5,2,2,0,0,0,1.7-.69,3.81,3.81,0,0,0,.54-2.32v-4.3h1.84v8.64Z" fill="#fff"/><path d="M112,31.73h-1.84V26.41a2.42,2.42,0,0,0-.37-1.48,1.38,1.38,0,0,0-1.17-.49,1.79,1.79,0,0,0-1.56.69,4.05,4.05,0,0,0-.5,2.3v4.3h-1.84V23.09h1.44l.26,1.13h.09a2.39,2.39,0,0,1,1-1,3.37,3.37,0,0,1,1.5-.34,2.63,2.63,0,0,1,2.64,1.36h.13a2.63,2.63,0,0,1,1.08-1,3.42,3.42,0,0,1,1.59-.36,2.9,2.9,0,0,1,2.25.78,3.46,3.46,0,0,1,.71,2.38v5.63h-1.84V26.41a2.4,2.4,0,0,0-.38-1.48,1.4,1.4,0,0,0-1.18-.49,1.82,1.82,0,0,0-1.57.67,3.44,3.44,0,0,0-.5,2.05Z" fill="#fff"/><path d="M129.2,21.75a3.08,3.08,0,0,0-2.53,1.14,4.87,4.87,0,0,0-.92,3.15,4.9,4.9,0,0,0,.89,3.18,3.13,3.13,0,0,0,2.57,1.08,6.72,6.72,0,0,0,1.41-.14q.68-.14,1.41-.37v1.6a8.57,8.57,0,0,1-3,.51,4.87,4.87,0,0,1-3.85-1.52A6.35,6.35,0,0,1,123.77,26a7,7,0,0,1,.65-3.12,4.65,4.65,0,0,1,1.89-2,5.71,5.71,0,0,1,2.9-.71,7.2,7.2,0,0,1,3.23.73l-.67,1.55a10.11,10.11,0,0,0-1.22-.48A4.42,4.42,0,0,0,129.2,21.75Z" fill="#fff"/><path d="M143.77,25.91a5.69,5.69,0,0,1-1.57,4.32,6.31,6.31,0,0,1-4.52,1.5h-3.2V20.31H138a5.84,5.84,0,0,1,4.24,1.47A5.49,5.49,0,0,1,143.77,25.91Zm-2,.06q0-4.1-3.84-4.1h-1.62v8.29h1.33Q141.8,30.16,141.8,26Z" fill="#fff"/><path d="M155.73,31.73h-2.29l-5.62-9.1h-.06l0,.51q.11,1.45.11,2.66v5.94h-1.7V20.31h2.27l5.6,9.05h0q0-.18-.06-1.31t0-1.76v-6h1.71Z" fill="#fff"/><path d="M49,80.5V69.08h1.87V78.9h4.84v1.6Z" fill="#fff"/><path d="M61.26,80.66a4.18,4.18,0,0,1-3.15-1.18A4.46,4.46,0,0,1,57,76.24,4.9,4.9,0,0,1,58,72.91a3.64,3.64,0,0,1,2.9-1.21,3.56,3.56,0,0,1,2.7,1,4,4,0,0,1,1,2.86v1H58.86a2.84,2.84,0,0,0,.68,1.93,2.37,2.37,0,0,0,1.8.68,6.64,6.64,0,0,0,1.43-.14,7.44,7.44,0,0,0,1.42-.48v1.49a5.63,5.63,0,0,1-1.36.45A8.3,8.3,0,0,1,61.26,80.66Zm-.34-7.56a1.85,1.85,0,0,0-1.4.55,2.64,2.64,0,0,0-.63,1.62h3.92a2.4,2.4,0,0,0-.52-1.62A1.76,1.76,0,0,0,60.92,73.09Z" fill="#fff"/><path d="M69.92,79.17A4.46,4.46,0,0,0,71.27,79v1.38a3.67,3.67,0,0,1-.79.22,5.44,5.44,0,0,1-1,.09q-2.61,0-2.61-2.75V73.25H65.7v-.81L67,71.77l.63-1.83h1.13v1.92h2.46v1.39H68.72v4.63a1.3,1.3,0,0,0,.33,1A1.21,1.21,0,0,0,69.92,79.17Z" fill="#fff"/><path d="M74.46,69.08l.12.17A22.69,22.69,0,0,1,73.2,73H71.88q.54-2.26.78-3.91Z" fill="#fff"/><path d="M81.88,78A2.26,2.26,0,0,1,81,80a4.41,4.41,0,0,1-2.64.68,6.24,6.24,0,0,1-2.77-.52V78.55a6.81,6.81,0,0,0,2.84.7q1.69,0,1.7-1a.81.81,0,0,0-.19-.55,2.23,2.23,0,0,0-.62-.45,10.63,10.63,0,0,0-1.2-.53,5.52,5.52,0,0,1-2-1.16,2.14,2.14,0,0,1-.53-1.5,2,2,0,0,1,.89-1.72,4.25,4.25,0,0,1,2.43-.61,6.9,6.9,0,0,1,2.88.62l-.59,1.38a6.42,6.42,0,0,0-2.35-.58q-1.45,0-1.45.83a.83.83,0,0,0,.38.69,8.35,8.35,0,0,0,1.65.77,7.58,7.58,0,0,1,1.55.76,2.27,2.27,0,0,1,.72.79A2.3,2.3,0,0,1,81.88,78Z" fill="#fff"/><path d="M94.68,80.5H88.22V69.08h6.46v1.58H90.09v3.11h4.3v1.56h-4.3v3.59h4.59Z" fill="#fff"/><path d="M104.55,80.5h-1.84V75.19a2.32,2.32,0,0,0-.4-1.49A1.56,1.56,0,0,0,101,73.2a2,2,0,0,0-1.7.69,3.8,3.8,0,0,0-.54,2.3v4.3H97V71.86h1.44L98.65,73h.09a2.56,2.56,0,0,1,1.11-1,3.72,3.72,0,0,1,1.59-.34q3.11,0,3.11,3.16Z" fill="#fff"/><path d="M110.59,80.66a3.78,3.78,0,0,1-3-1.14,5.8,5.8,0,0,1,0-6.64,4,4,0,0,1,3.08-1.17,5.78,5.78,0,0,1,2.46.51l-.55,1.48a5.57,5.57,0,0,0-1.92-.45q-2.24,0-2.24,3a3.57,3.57,0,0,0,.56,2.18,1.93,1.93,0,0,0,1.64.73,4.7,4.7,0,0,0,2.32-.61v1.6a3.62,3.62,0,0,1-1.05.41A6.32,6.32,0,0,1,110.59,80.66Z" fill="#fff"/><path d="M119.41,71.7a4.44,4.44,0,0,1,.91.08l-.18,1.71a3.47,3.47,0,0,0-.81-.09,2.35,2.35,0,0,0-1.79.72,2.6,2.6,0,0,0-.68,1.87V80.5H115V71.86h1.44l.24,1.52h.09a3.42,3.42,0,0,1,1.12-1.23A2.67,2.67,0,0,1,119.41,71.7Z" fill="#fff"/><path d="M120.62,71.86h2l1.76,4.9a9.32,9.32,0,0,1,.53,2H125a8.24,8.24,0,0,1,.26-1q.19-.61,2-5.82h2l-3.7,9.79q-1,2.7-3.36,2.7a5.27,5.27,0,0,1-1.19-.13V82.76a4.3,4.3,0,0,0,.95.09,1.94,1.94,0,0,0,1.87-1.54l.32-.81Z" fill="#fff"/><path d="M134.89,80.66a3,3,0,0,1-2.55-1.18h-.11q.11,1.09.11,1.33v3.54h-1.84V71.86H132q.06.24.26,1.16h.09a2.88,2.88,0,0,1,2.58-1.31,3,3,0,0,1,2.52,1.17,6.43,6.43,0,0,1,0,6.59A3,3,0,0,1,134.89,80.66Zm-.45-7.45a1.91,1.91,0,0,0-1.6.64,3.32,3.32,0,0,0-.5,2v.27a4,4,0,0,0,.5,2.29,1.86,1.86,0,0,0,1.63.71,1.66,1.66,0,0,0,1.47-.78,4,4,0,0,0,.52-2.23,3.9,3.9,0,0,0-.51-2.2A1.71,1.71,0,0,0,134.45,73.2Z" fill="#fff"/><path d="M143.7,79.17A4.46,4.46,0,0,0,145,79v1.38a3.67,3.67,0,0,1-.79.22,5.44,5.44,0,0,1-1,.09q-2.61,0-2.61-2.75V73.25h-1.18v-.81l1.27-.67.63-1.83h1.13v1.92H145v1.39h-2.46v4.63a1.3,1.3,0,0,0,.33,1A1.21,1.21,0,0,0,143.7,79.17Z" fill="#fff"/><path d="M157.7,77.4a2.87,2.87,0,0,1-1.1,2.39,4.79,4.79,0,0,1-3,.87,7.25,7.25,0,0,1-3.17-.6V78.29a8.59,8.59,0,0,0,1.66.58,7,7,0,0,0,1.64.21,2.6,2.6,0,0,0,1.64-.42,1.38,1.38,0,0,0,.53-1.13,1.42,1.42,0,0,0-.48-1.09,7.29,7.29,0,0,0-2-1.05,5.28,5.28,0,0,1-2.2-1.45,3.06,3.06,0,0,1-.64-2,2.74,2.74,0,0,1,1-2.25,4.21,4.21,0,0,1,2.73-.82,8,8,0,0,1,3.27.72l-.59,1.52a7.14,7.14,0,0,0-2.72-.64,2.09,2.09,0,0,0-1.37.39,1.3,1.3,0,0,0-.47,1,1.47,1.47,0,0,0,.19.76,1.92,1.92,0,0,0,.62.6,10.39,10.39,0,0,0,1.55.74,8.48,8.48,0,0,1,1.84,1,2.88,2.88,0,0,1,.86,1A3.07,3.07,0,0,1,157.7,77.4Z" fill="#fff"/><path d="M166.5,77.4a2.87,2.87,0,0,1-1.1,2.39,4.79,4.79,0,0,1-3,.87,7.25,7.25,0,0,1-3.17-.6V78.29a8.59,8.59,0,0,0,1.66.58,7,7,0,0,0,1.64.21,2.6,2.6,0,0,0,1.64-.42,1.38,1.38,0,0,0,.53-1.13,1.42,1.42,0,0,0-.48-1.09,7.29,7.29,0,0,0-2-1.05,5.28,5.28,0,0,1-2.2-1.45,3.06,3.06,0,0,1-.64-2,2.74,2.74,0,0,1,1-2.25,4.21,4.21,0,0,1,2.73-.82,8,8,0,0,1,3.27.72l-.59,1.52a7.14,7.14,0,0,0-2.72-.64,2.09,2.09,0,0,0-1.37.39,1.3,1.3,0,0,0-.47,1,1.47,1.47,0,0,0,.19.76,1.92,1.92,0,0,0,.62.6,10.39,10.39,0,0,0,1.55.74,8.48,8.48,0,0,1,1.84,1,2.88,2.88,0,0,1,.86,1A3.07,3.07,0,0,1,166.5,77.4Z" fill="#fff"/><path d="M168.71,80.5V69.08h1.87V78.9h4.84v1.6Z" fill="#fff"/><path d="M59.55,132.5h-2l-1.94-6.81q-.12-.45-.31-1.29T55,123.23q-.08.5-.25,1.3t-.29,1.19L52.6,132.5h-2l-1.48-5.72-1.5-5.7H49.5l1.63,6.66q.38,1.6.55,2.83.09-.66.26-1.48t.31-1.33l1.86-6.67H56l1.91,6.7a25,25,0,0,1,.58,2.78,20.4,20.4,0,0,1,.56-2.84l1.63-6.64h1.89Z" fill="#fff"/><path d="M71.23,132.5l-1.14-3.17H65.72L64.6,132.5h-2L66.91,121h2l4.27,11.47Zm-1.63-4.78-1.07-3.11q-.12-.31-.32-1t-.29-1a17.56,17.56,0,0,1-.62,2.1l-1,3Z" fill="#fff"/><path d="M76.57,132.5H74.72V121.08h6.45v1.58H76.57v3.57h4.3v1.59h-4.3Z" fill="#fff"/><path d="M49,183.5V172.08h1.87v9.82h4.84v1.6Z" fill="#fff"/><path d="M57.38,172.57a1,1,0,0,1,.27-.76,1.05,1.05,0,0,1,.77-.27,1,1,0,0,1,.75.27,1,1,0,0,1,.27.76,1,1,0,0,1-.27.74,1,1,0,0,1-.75.27,1,1,0,0,1-.77-.27A1,1,0,0,1,57.38,172.57Zm1.95,10.93H57.48v-8.64h1.84Z" fill="#fff"/><path d="M65.16,182.17a4.46,4.46,0,0,0,1.34-.21v1.38a3.67,3.67,0,0,1-.79.22,5.44,5.44,0,0,1-1,.09q-2.61,0-2.61-2.75v-4.66H60.94v-.81l1.27-.67.63-1.83H64v1.92h2.46v1.39H64v4.63a1.3,1.3,0,0,0,.33,1A1.21,1.21,0,0,0,65.16,182.17Z" fill="#fff"/><path d="M72,183.66a4.18,4.18,0,0,1-3.15-1.18,4.46,4.46,0,0,1-1.14-3.24,4.9,4.9,0,0,1,1.05-3.33,3.64,3.64,0,0,1,2.9-1.21,3.56,3.56,0,0,1,2.7,1,4,4,0,0,1,1,2.86v1H69.61a2.84,2.84,0,0,0,.68,1.93,2.36,2.36,0,0,0,1.8.68,6.64,6.64,0,0,0,1.43-.14,7.37,7.37,0,0,0,1.42-.48v1.49a5.6,5.6,0,0,1-1.36.45A8.3,8.3,0,0,1,72,183.66Zm-.34-7.56a1.85,1.85,0,0,0-1.4.55,2.64,2.64,0,0,0-.63,1.62h3.92a2.4,2.4,0,0,0-.52-1.62A1.76,1.76,0,0,0,71.67,176.09Z" fill="#fff"/><path d="M84.23,180.4a2.87,2.87,0,0,1-1.1,2.39,4.79,4.79,0,0,1-3,.87,7.25,7.25,0,0,1-3.17-.6v-1.77a8.59,8.59,0,0,0,1.66.58,7,7,0,0,0,1.64.21,2.6,2.6,0,0,0,1.64-.42,1.37,1.37,0,0,0,.53-1.13,1.42,1.42,0,0,0-.48-1.09,7.29,7.29,0,0,0-2-1.05,5.28,5.28,0,0,1-2.2-1.45,3.06,3.06,0,0,1-.64-2,2.74,2.74,0,0,1,1-2.25,4.21,4.21,0,0,1,2.73-.82,8,8,0,0,1,3.27.72l-.59,1.52a7.14,7.14,0,0,0-2.72-.64,2.09,2.09,0,0,0-1.37.39,1.3,1.3,0,0,0-.47,1,1.47,1.47,0,0,0,.19.76,1.92,1.92,0,0,0,.62.6,10.39,10.39,0,0,0,1.55.74,8.48,8.48,0,0,1,1.84,1,2.88,2.88,0,0,1,.86,1A3.08,3.08,0,0,1,84.23,180.4Z" fill="#fff"/><path d="M90.63,183.66a3,3,0,0,1-2.55-1.18H88q.11,1.09.11,1.33v3.54H86.25V174.86h1.48q.06.24.26,1.16h.09a2.88,2.88,0,0,1,2.58-1.31,3,3,0,0,1,2.52,1.17,6.43,6.43,0,0,1,0,6.59A3,3,0,0,1,90.63,183.66Zm-.45-7.45a1.91,1.91,0,0,0-1.6.64,3.32,3.32,0,0,0-.5,2v.27a4,4,0,0,0,.5,2.29,1.86,1.86,0,0,0,1.63.71,1.66,1.66,0,0,0,1.47-.78,4,4,0,0,0,.52-2.23,3.9,3.9,0,0,0-.51-2.2A1.71,1.71,0,0,0,90.19,176.2Z" fill="#fff"/><path d="M100,183.66a4.18,4.18,0,0,1-3.15-1.18,4.46,4.46,0,0,1-1.14-3.24,4.9,4.9,0,0,1,1.05-3.33,3.64,3.64,0,0,1,2.9-1.21,3.56,3.56,0,0,1,2.7,1,4,4,0,0,1,1,2.86v1H97.59a2.84,2.84,0,0,0,.68,1.93,2.36,2.36,0,0,0,1.8.68,6.64,6.64,0,0,0,1.43-.14,7.37,7.37,0,0,0,1.42-.48v1.49a5.6,5.6,0,0,1-1.36.45A8.3,8.3,0,0,1,100,183.66Zm-.34-7.56a1.85,1.85,0,0,0-1.4.55,2.64,2.64,0,0,0-.63,1.62h3.92a2.4,2.4,0,0,0-.52-1.62A1.76,1.76,0,0,0,99.66,176.09Z" fill="#fff"/><path d="M109.21,183.66a4.18,4.18,0,0,1-3.15-1.18,4.46,4.46,0,0,1-1.14-3.24,4.9,4.9,0,0,1,1.05-3.33,3.64,3.64,0,0,1,2.9-1.21,3.56,3.56,0,0,1,2.7,1,4,4,0,0,1,1,2.86v1h-5.76a2.84,2.84,0,0,0,.68,1.93,2.36,2.36,0,0,0,1.8.68,6.64,6.64,0,0,0,1.43-.14,7.37,7.37,0,0,0,1.42-.48v1.49a5.6,5.6,0,0,1-1.36.45A8.3,8.3,0,0,1,109.21,183.66Zm-.34-7.56a1.85,1.85,0,0,0-1.4.55,2.64,2.64,0,0,0-.63,1.62h3.92a2.4,2.4,0,0,0-.52-1.62A1.76,1.76,0,0,0,108.88,176.09Z" fill="#fff"/><path d="M117.57,183.66a3,3,0,0,1-2.52-1.17,6.42,6.42,0,0,1,0-6.6,3,3,0,0,1,2.54-1.18A3,3,0,0,1,120.2,176h.09a11,11,0,0,1-.13-1.47v-3.15H122V183.5h-1.44l-.32-1.13h-.09A2.94,2.94,0,0,1,117.57,183.66Zm.49-1.48a2,2,0,0,0,1.65-.64,3.35,3.35,0,0,0,.53-2.07v-.26a3.87,3.87,0,0,0-.53-2.32,2,2,0,0,0-1.66-.69,1.69,1.69,0,0,0-1.49.79,4,4,0,0,0-.52,2.24,3.92,3.92,0,0,0,.51,2.19A1.71,1.71,0,0,0,118.06,182.17Z" fill="#fff"/><path d="M139.52,183.5h-2l-1.94-6.81q-.12-.45-.31-1.29t-.23-1.17q-.08.5-.25,1.3t-.29,1.19l-1.89,6.78h-2l-1.48-5.72-1.5-5.7h1.91l1.63,6.66q.38,1.6.55,2.83.09-.66.26-1.48t.31-1.33l1.86-6.67h1.85l1.91,6.7a25,25,0,0,1,.58,2.78,20.42,20.42,0,0,1,.56-2.84l1.63-6.64h1.89Z" fill="#fff"/><path d="M147.69,183.66a4.18,4.18,0,0,1-3.15-1.18,4.46,4.46,0,0,1-1.14-3.24,4.9,4.9,0,0,1,1.05-3.33,3.64,3.64,0,0,1,2.9-1.21,3.56,3.56,0,0,1,2.7,1,4,4,0,0,1,1,2.86v1h-5.76a2.84,2.84,0,0,0,.68,1.93,2.36,2.36,0,0,0,1.8.68,6.64,6.64,0,0,0,1.43-.14,7.37,7.37,0,0,0,1.42-.48v1.49a5.6,5.6,0,0,1-1.36.45A8.3,8.3,0,0,1,147.69,183.66Zm-.34-7.56a1.85,1.85,0,0,0-1.4.55,2.64,2.64,0,0,0-.63,1.62h3.92a2.4,2.4,0,0,0-.52-1.62A1.76,1.76,0,0,0,147.35,176.09Z" fill="#fff"/><path d="M157.55,174.7a3,3,0,0,1,2.52,1.17,6.45,6.45,0,0,1,0,6.6,3.33,3.33,0,0,1-5.09,0h-.12l-.34,1h-1.37V171.34H155v2.89q0,.32,0,1t0,.8H155A2.91,2.91,0,0,1,157.55,174.7Zm-.48,1.5a1.87,1.87,0,0,0-1.6.65A3.8,3.8,0,0,0,155,179v.13a4,4,0,0,0,.5,2.29,1.86,1.86,0,0,0,1.63.71,1.65,1.65,0,0,0,1.48-.77,4.1,4.1,0,0,0,.5-2.23Q159.09,176.2,157.07,176.2Z" fill="#fff"/><path d="M174,180.4a2.87,2.87,0,0,1-1.1,2.39,4.79,4.79,0,0,1-3,.87,7.25,7.25,0,0,1-3.17-.6v-1.77a8.59,8.59,0,0,0,1.66.58,7,7,0,0,0,1.64.21,2.6,2.6,0,0,0,1.64-.42,1.37,1.37,0,0,0,.53-1.13,1.42,1.42,0,0,0-.48-1.09,7.29,7.29,0,0,0-2-1.05,5.28,5.28,0,0,1-2.2-1.45,3.06,3.06,0,0,1-.64-2,2.74,2.74,0,0,1,1-2.25,4.21,4.21,0,0,1,2.73-.82,8,8,0,0,1,3.27.72l-.59,1.52a7.14,7.14,0,0,0-2.72-.64,2.09,2.09,0,0,0-1.37.39,1.3,1.3,0,0,0-.47,1,1.47,1.47,0,0,0,.19.76,1.92,1.92,0,0,0,.62.6,10.39,10.39,0,0,0,1.55.74,8.48,8.48,0,0,1,1.84,1,2.88,2.88,0,0,1,.86,1A3.08,3.08,0,0,1,174,180.4Z" fill="#fff"/><path d="M179.83,183.66a4.18,4.18,0,0,1-3.15-1.18,4.46,4.46,0,0,1-1.14-3.24,4.9,4.9,0,0,1,1.05-3.33,3.64,3.64,0,0,1,2.9-1.21,3.56,3.56,0,0,1,2.7,1,4,4,0,0,1,1,2.86v1h-5.76a2.84,2.84,0,0,0,.68,1.93,2.36,2.36,0,0,0,1.8.68,6.64,6.64,0,0,0,1.43-.14,7.37,7.37,0,0,0,1.42-.48v1.49a5.6,5.6,0,0,1-1.36.45A8.3,8.3,0,0,1,179.83,183.66Zm-.34-7.56a1.85,1.85,0,0,0-1.4.55,2.64,2.64,0,0,0-.63,1.62h3.92a2.4,2.4,0,0,0-.52-1.62A1.76,1.76,0,0,0,179.49,176.09Z" fill="#fff"/><path d="M189.66,174.7a4.44,4.44,0,0,1,.91.08l-.18,1.71a3.47,3.47,0,0,0-.81-.09,2.35,2.35,0,0,0-1.79.72,2.6,2.6,0,0,0-.68,1.87v4.52h-1.84v-8.64h1.44l.24,1.52H187a3.42,3.42,0,0,1,1.12-1.23A2.67,2.67,0,0,1,189.66,174.7Z" fill="#fff"/><path d="M194.14,183.5l-3.28-8.64h1.94l1.76,5a10,10,0,0,1,.55,2h.06a13.81,13.81,0,0,1,.55-2l1.76-5h2l-3.3,8.64Z" fill="#fff"/><path d="M204.51,183.66a4.18,4.18,0,0,1-3.15-1.18,4.46,4.46,0,0,1-1.14-3.24,4.9,4.9,0,0,1,1.05-3.33,3.64,3.64,0,0,1,2.9-1.21,3.56,3.56,0,0,1,2.7,1,4,4,0,0,1,1,2.86v1h-5.76a2.84,2.84,0,0,0,.68,1.93,2.36,2.36,0,0,0,1.8.68,6.64,6.64,0,0,0,1.43-.14,7.37,7.37,0,0,0,1.42-.48v1.49a5.6,5.6,0,0,1-1.36.45A8.3,8.3,0,0,1,204.51,183.66Zm-.34-7.56a1.85,1.85,0,0,0-1.4.55,2.64,2.64,0,0,0-.63,1.62h3.92a2.4,2.4,0,0,0-.52-1.62A1.76,1.76,0,0,0,204.17,176.09Z" fill="#fff"/><path d="M214.34,174.7a4.44,4.44,0,0,1,.91.08l-.18,1.71a3.47,3.47,0,0,0-.81-.09,2.35,2.35,0,0,0-1.79.72,2.6,2.6,0,0,0-.68,1.87v4.52H210v-8.64h1.44l.24,1.52h.09a3.42,3.42,0,0,1,1.12-1.23A2.67,2.67,0,0,1,214.34,174.7Z" fill="#fff"/><path d="M50.88,227.94v4.56H49V221.08h3.23a5.3,5.3,0,0,1,3.27.83,3,3,0,0,1,1.06,2.5,3.12,3.12,0,0,1-2.22,3l3.23,5.05H55.45l-2.73-4.56Zm0-1.55h1.3a3,3,0,0,0,1.89-.48,1.76,1.76,0,0,0,.59-1.44,1.55,1.55,0,0,0-.63-1.39,3.47,3.47,0,0,0-1.91-.42H50.88Z" fill="#fff"/><path d="M62.81,232.66a4.18,4.18,0,0,1-3.15-1.18,4.46,4.46,0,0,1-1.14-3.24,4.9,4.9,0,0,1,1.05-3.33,3.64,3.64,0,0,1,2.9-1.21,3.56,3.56,0,0,1,2.7,1,4,4,0,0,1,1,2.86v1H60.41a2.84,2.84,0,0,0,.68,1.93,2.36,2.36,0,0,0,1.8.68,6.64,6.64,0,0,0,1.43-.14,7.37,7.37,0,0,0,1.42-.48v1.49a5.6,5.6,0,0,1-1.36.45A8.3,8.3,0,0,1,62.81,232.66Zm-.34-7.56a1.85,1.85,0,0,0-1.4.55,2.64,2.64,0,0,0-.63,1.62h3.92a2.4,2.4,0,0,0-.52-1.62A1.76,1.76,0,0,0,62.48,225.09Z" fill="#fff"/><path d="M71.17,232.66a3,3,0,0,1-2.52-1.17,6.42,6.42,0,0,1,0-6.6,3,3,0,0,1,2.54-1.18A3,3,0,0,1,73.8,225h.09a10.94,10.94,0,0,1-.13-1.47v-3.15H75.6V232.5H74.16l-.32-1.13h-.09A2.94,2.94,0,0,1,71.17,232.66Zm.49-1.48a2,2,0,0,0,1.65-.64,3.35,3.35,0,0,0,.53-2.07v-.26a3.87,3.87,0,0,0-.53-2.32,2,2,0,0,0-1.66-.69,1.69,1.69,0,0,0-1.49.79,4,4,0,0,0-.52,2.24,3.92,3.92,0,0,0,.51,2.19A1.71,1.71,0,0,0,71.66,231.17Z" fill="#fff"/><path d="M78.12,221.57a1,1,0,0,1,.27-.76,1.05,1.05,0,0,1,.77-.27,1,1,0,0,1,.75.27,1,1,0,0,1,.27.76,1,1,0,0,1-.27.74,1,1,0,0,1-.75.27,1,1,0,0,1-.77-.27A1,1,0,0,1,78.12,221.57Zm1.95,10.93H78.23v-8.64h1.84Z" fill="#fff"/><path d="M88.49,230a2.26,2.26,0,0,1-.92,1.94,4.41,4.41,0,0,1-2.64.68,6.23,6.23,0,0,1-2.77-.52v-1.59a6.81,6.81,0,0,0,2.84.7q1.69,0,1.7-1a.81.81,0,0,0-.19-.55,2.23,2.23,0,0,0-.62-.45,10.63,10.63,0,0,0-1.2-.53,5.51,5.51,0,0,1-2-1.16,2.14,2.14,0,0,1-.53-1.5,2,2,0,0,1,.89-1.72,4.25,4.25,0,0,1,2.43-.61,6.9,6.9,0,0,1,2.88.62l-.59,1.38a6.43,6.43,0,0,0-2.35-.58q-1.45,0-1.45.83a.83.83,0,0,0,.38.69,8.35,8.35,0,0,0,1.65.77,7.6,7.6,0,0,1,1.55.76,2.27,2.27,0,0,1,.72.79A2.3,2.3,0,0,1,88.49,230Z" fill="#fff"/><path d="M53.95,283.5,50.63,274h-.06q.13,2.13.13,4v5.55H49V272.08h2.63l3.17,9.09h0l3.27-9.09h2.64V283.5H59v-5.65q0-.85,0-2.22t.07-1.66H59l-3.43,9.52Z" fill="#fff"/><path d="M69,283.5l-.37-1.2h-.06a3.53,3.53,0,0,1-1.26,1.07,4,4,0,0,1-1.62.29,2.75,2.75,0,0,1-2-.69A2.57,2.57,0,0,1,63,281a2.28,2.28,0,0,1,1-2,5.72,5.72,0,0,1,3-.74l1.49,0v-.46a1.75,1.75,0,0,0-.39-1.24,1.58,1.58,0,0,0-1.2-.41,4.16,4.16,0,0,0-1.27.2,9.77,9.77,0,0,0-1.17.46l-.59-1.31a6.43,6.43,0,0,1,1.54-.56A7.12,7.12,0,0,1,67,274.7a3.74,3.74,0,0,1,2.49.72,2.82,2.82,0,0,1,.84,2.26v5.82Zm-2.73-1.25a2.27,2.27,0,0,0,1.61-.56,2,2,0,0,0,.61-1.57v-.75l-1.11,0a3.8,3.8,0,0,0-1.89.43,1.32,1.32,0,0,0-.59,1.18,1.15,1.15,0,0,0,.34.89A1.48,1.48,0,0,0,66.25,282.25Z" fill="#fff"/><path d="M77.24,274.7a4.44,4.44,0,0,1,.91.08L78,276.49a3.47,3.47,0,0,0-.81-.09,2.35,2.35,0,0,0-1.79.72A2.6,2.6,0,0,0,74.7,279v4.52H72.86v-8.64H74.3l.24,1.52h.09a3.43,3.43,0,0,1,1.12-1.23A2.67,2.67,0,0,1,77.24,274.7Z" fill="#fff"/><path d="M79.65,272.57a1,1,0,0,1,.27-.76,1.05,1.05,0,0,1,.77-.27,1,1,0,0,1,.75.27,1,1,0,0,1,.27.76,1,1,0,0,1-.27.74,1,1,0,0,1-.75.27,1,1,0,0,1-.77-.27A1,1,0,0,1,79.65,272.57Zm1.95,10.93H79.76v-8.64h1.84Z" fill="#fff"/><path d="M89.63,283.5l-.37-1.2H89.2a3.53,3.53,0,0,1-1.26,1.07,4,4,0,0,1-1.62.29,2.75,2.75,0,0,1-2-.69,2.57,2.57,0,0,1-.71-1.95,2.28,2.28,0,0,1,1-2,5.72,5.72,0,0,1,3-.74l1.49,0v-.46a1.75,1.75,0,0,0-.39-1.24,1.58,1.58,0,0,0-1.2-.41,4.16,4.16,0,0,0-1.27.2,9.77,9.77,0,0,0-1.17.46l-.59-1.31a6.43,6.43,0,0,1,1.54-.56,7.12,7.12,0,0,1,1.58-.19,3.74,3.74,0,0,1,2.49.72,2.82,2.82,0,0,1,.84,2.26v5.82Zm-2.73-1.25a2.27,2.27,0,0,0,1.61-.56,2,2,0,0,0,.61-1.57v-.75l-1.11,0a3.8,3.8,0,0,0-1.89.43,1.32,1.32,0,0,0-.59,1.18,1.15,1.15,0,0,0,.34.89A1.48,1.48,0,0,0,86.89,282.25Z" fill="#fff"/><path d="M103,277.68a5.69,5.69,0,0,1-1.57,4.32,6.3,6.3,0,0,1-4.52,1.5H93.7V272.08h3.53a5.85,5.85,0,0,1,4.24,1.47A5.49,5.49,0,0,1,103,277.68Zm-2,.06q0-4.1-3.84-4.1H95.56v8.29h1.33Q101,281.93,101,277.74Z" fill="#fff"/><path d="M105.44,272.08h3.39a6.44,6.44,0,0,1,3.41.69,2.41,2.41,0,0,1,1.05,2.17,2.63,2.63,0,0,1-.52,1.66,2.3,2.3,0,0,1-1.48.84v.08a3,3,0,0,1,1.77.89,2.71,2.71,0,0,1,.57,1.81,2.93,2.93,0,0,1-1.07,2.41,4.62,4.62,0,0,1-3,.87h-4.12Zm1.87,4.72h1.8a3.07,3.07,0,0,0,1.71-.37,1.42,1.42,0,0,0,.54-1.26,1.27,1.27,0,0,0-.58-1.16,3.64,3.64,0,0,0-1.85-.36H107.3Zm0,1.52v3.62h2a2.92,2.92,0,0,0,1.77-.45,1.66,1.66,0,0,0,.6-1.42,1.51,1.51,0,0,0-.61-1.32,3.23,3.23,0,0,0-1.85-.43Z" fill="#fff"/><path d="M49,331.5V320.08h1.87v9.82h4.84v1.6Z" fill="#fff"/><path d="M65.15,327.16a4.72,4.72,0,0,1-1.09,3.3,3.89,3.89,0,0,1-3,1.19,4.14,4.14,0,0,1-2.14-.55,3.6,3.6,0,0,1-1.43-1.57,5.35,5.35,0,0,1-.5-2.37A4.69,4.69,0,0,1,58,323.88a3.91,3.91,0,0,1,3-1.18,3.81,3.81,0,0,1,3,1.21A4.66,4.66,0,0,1,65.15,327.16Zm-6.29,0q0,3,2.21,3t2.19-3q0-3-2.2-3a1.88,1.88,0,0,0-1.68.77A3.89,3.89,0,0,0,58.86,327.16Z" fill="#fff"/><path d="M70.74,331.66a3.78,3.78,0,0,1-3-1.14,5.8,5.8,0,0,1,0-6.64,4,4,0,0,1,3.08-1.17,5.79,5.79,0,0,1,2.46.51l-.55,1.48a5.57,5.57,0,0,0-1.92-.45q-2.24,0-2.24,3a3.57,3.57,0,0,0,.56,2.18,1.93,1.93,0,0,0,1.64.73,4.7,4.7,0,0,0,2.32-.61v1.6a3.6,3.6,0,0,1-1.05.41A6.32,6.32,0,0,1,70.74,331.66Z" fill="#fff"/><path d="M80.59,331.5l-.37-1.2h-.06a3.53,3.53,0,0,1-1.26,1.07,4,4,0,0,1-1.62.29,2.75,2.75,0,0,1-2-.69,2.57,2.57,0,0,1-.71-1.95,2.28,2.28,0,0,1,1-2,5.72,5.72,0,0,1,3-.74l1.49,0v-.46a1.75,1.75,0,0,0-.39-1.24,1.58,1.58,0,0,0-1.2-.41,4.16,4.16,0,0,0-1.27.2,9.77,9.77,0,0,0-1.17.46l-.59-1.31a6.43,6.43,0,0,1,1.54-.56,7.12,7.12,0,0,1,1.58-.19,3.74,3.74,0,0,1,2.49.72,2.82,2.82,0,0,1,.84,2.26v5.82Zm-2.73-1.25a2.27,2.27,0,0,0,1.61-.56,2,2,0,0,0,.61-1.57v-.75l-1.11,0a3.8,3.8,0,0,0-1.89.43,1.32,1.32,0,0,0-.59,1.18,1.15,1.15,0,0,0,.34.89A1.48,1.48,0,0,0,77.85,330.25Z" fill="#fff"/><path d="M86.3,331.5H84.46V319.34H86.3Z" fill="#fff"/><path d="M99.86,328.4a2.87,2.87,0,0,1-1.1,2.39,4.79,4.79,0,0,1-3,.87,7.25,7.25,0,0,1-3.17-.6v-1.77a8.59,8.59,0,0,0,1.66.58,7,7,0,0,0,1.64.21,2.6,2.6,0,0,0,1.64-.42,1.37,1.37,0,0,0,.53-1.13,1.42,1.42,0,0,0-.48-1.09,7.29,7.29,0,0,0-2-1.05,5.28,5.28,0,0,1-2.2-1.45,3.06,3.06,0,0,1-.64-2,2.74,2.74,0,0,1,1-2.25,4.21,4.21,0,0,1,2.73-.82,8,8,0,0,1,3.27.72l-.59,1.52a7.14,7.14,0,0,0-2.72-.64,2.09,2.09,0,0,0-1.37.39,1.3,1.3,0,0,0-.47,1,1.47,1.47,0,0,0,.19.76,1.92,1.92,0,0,0,.62.6,10.34,10.34,0,0,0,1.55.74,8.5,8.5,0,0,1,1.84,1,2.88,2.88,0,0,1,.86,1A3.08,3.08,0,0,1,99.86,328.4Z" fill="#fff"/><path d="M105.09,330.17a4.46,4.46,0,0,0,1.34-.21v1.38a3.67,3.67,0,0,1-.79.22,5.44,5.44,0,0,1-1,.09q-2.61,0-2.61-2.75v-4.66h-1.18v-.81l1.27-.67.63-1.83h1.13v1.92h2.46v1.39h-2.46v4.63a1.3,1.3,0,0,0,.33,1A1.21,1.21,0,0,0,105.09,330.17Z" fill="#fff"/><path d="M115.83,327.16a4.72,4.72,0,0,1-1.09,3.3,3.89,3.89,0,0,1-3,1.19,4.14,4.14,0,0,1-2.14-.55,3.6,3.6,0,0,1-1.43-1.57,5.35,5.35,0,0,1-.5-2.37,4.69,4.69,0,0,1,1.08-3.28,3.91,3.91,0,0,1,3-1.18,3.81,3.81,0,0,1,3,1.21A4.66,4.66,0,0,1,115.83,327.16Zm-6.29,0q0,3,2.21,3t2.19-3q0-3-2.2-3a1.88,1.88,0,0,0-1.68.77A3.89,3.89,0,0,0,109.54,327.16Z" fill="#fff"/><path d="M122.32,322.7a4.44,4.44,0,0,1,.91.08l-.18,1.71a3.47,3.47,0,0,0-.81-.09,2.35,2.35,0,0,0-1.79.72,2.6,2.6,0,0,0-.68,1.87v4.52h-1.84v-8.64h1.44l.24,1.52h.09a3.43,3.43,0,0,1,1.12-1.23A2.67,2.67,0,0,1,122.32,322.7Z" fill="#fff"/><path d="M130.24,331.5l-.37-1.2h-.06a3.53,3.53,0,0,1-1.26,1.07,4,4,0,0,1-1.62.29,2.75,2.75,0,0,1-2-.69,2.57,2.57,0,0,1-.71-1.95,2.28,2.28,0,0,1,1-2,5.72,5.72,0,0,1,3-.74l1.49,0v-.46a1.75,1.75,0,0,0-.39-1.24,1.58,1.58,0,0,0-1.2-.41,4.16,4.16,0,0,0-1.27.2,9.77,9.77,0,0,0-1.17.46l-.59-1.31a6.43,6.43,0,0,1,1.54-.56,7.12,7.12,0,0,1,1.58-.19,3.74,3.74,0,0,1,2.49.72,2.82,2.82,0,0,1,.84,2.26v5.82Zm-2.73-1.25a2.27,2.27,0,0,0,1.61-.56,2,2,0,0,0,.61-1.57v-.75l-1.11,0a3.8,3.8,0,0,0-1.89.43,1.32,1.32,0,0,0-.59,1.18,1.15,1.15,0,0,0,.34.89A1.48,1.48,0,0,0,127.51,330.25Z" fill="#fff"/><path d="M141.41,322.86v1l-1.48.27a2.39,2.39,0,0,1,.34.67,2.64,2.64,0,0,1,.13.84,2.59,2.59,0,0,1-.92,2.1,3.86,3.86,0,0,1-2.54.77,4.08,4.08,0,0,1-.75-.06,1,1,0,0,0-.59.86.48.48,0,0,0,.28.45,2.39,2.39,0,0,0,1,.15h1.51a3.35,3.35,0,0,1,2.17.61,2.14,2.14,0,0,1,.74,1.76,2.56,2.56,0,0,1-1.21,2.27,6.38,6.38,0,0,1-3.5.8,4.83,4.83,0,0,1-2.7-.62,2,2,0,0,1-.93-1.78,1.9,1.9,0,0,1,.5-1.34,2.7,2.7,0,0,1,1.41-.75,1.37,1.37,0,0,1-.61-.5,1.3,1.3,0,0,1,0-1.55,3.17,3.17,0,0,1,.81-.66,2.4,2.4,0,0,1-1.09-.94,2.77,2.77,0,0,1-.42-1.53,2.74,2.74,0,0,1,.89-2.18,3.73,3.73,0,0,1,2.53-.77,6.28,6.28,0,0,1,.77.05,5,5,0,0,1,.61.11Zm-6.79,10a1,1,0,0,0,.54.91,2.94,2.94,0,0,0,1.5.32,4.55,4.55,0,0,0,2.23-.43,1.29,1.29,0,0,0,.73-1.14.86.86,0,0,0-.4-.8,3.23,3.23,0,0,0-1.5-.24h-1.39a2,2,0,0,0-1.25.37A1.22,1.22,0,0,0,134.63,332.84Zm.79-7.19a1.74,1.74,0,0,0,.42,1.25,1.58,1.58,0,0,0,1.2.44q1.59,0,1.59-1.7a1.93,1.93,0,0,0-.39-1.3,1.5,1.5,0,0,0-1.2-.46,1.55,1.55,0,0,0-1.21.45A1.91,1.91,0,0,0,135.41,325.66Z" fill="#fff"/><path d="M146.79,331.66a4.18,4.18,0,0,1-3.15-1.18,4.46,4.46,0,0,1-1.14-3.24,4.9,4.9,0,0,1,1.05-3.33,3.64,3.64,0,0,1,2.9-1.21,3.56,3.56,0,0,1,2.7,1,4,4,0,0,1,1,2.86v1h-5.76a2.84,2.84,0,0,0,.68,1.93,2.36,2.36,0,0,0,1.8.68,6.64,6.64,0,0,0,1.43-.14,7.37,7.37,0,0,0,1.42-.48v1.49a5.6,5.6,0,0,1-1.36.45A8.3,8.3,0,0,1,146.79,331.66Zm-.34-7.56a1.85,1.85,0,0,0-1.4.55,2.64,2.64,0,0,0-.63,1.62h3.92a2.4,2.4,0,0,0-.52-1.62A1.76,1.76,0,0,0,146.45,324.09Z" fill="#fff"/><path d="M19.94,22.14a2.44,2.44,0,0,1,.72.11,19.78,19.78,0,0,1,2.85-2.62,2.4,2.4,0,0,1,.06-1.34,17.94,17.94,0,0,0-3.76-2.07,11.55,11.55,0,0,0-3.23,3,18.09,18.09,0,0,0,2.3,3.2A2.43,2.43,0,0,1,19.94,22.14ZM17.5,24.59a2.44,2.44,0,0,1,.2-1,19.72,19.72,0,0,1-2.12-2.78,11.49,11.49,0,0,0,.39,11,19.49,19.49,0,0,1,2-5.82A2.43,2.43,0,0,1,17.5,24.59Zm8.4-8a2.43,2.43,0,0,1,1.67.66,19.49,19.49,0,0,1,4-1.24,11.5,11.5,0,0,0-9.78-.8A19.71,19.71,0,0,1,24.65,17,2.43,2.43,0,0,1,25.9,16.61Zm3.66,11.52a2.45,2.45,0,0,1,.64-.82,17.9,17.9,0,0,0-3.34-6A2.44,2.44,0,0,1,24.47,21,18,18,0,0,0,22,23.3a2.44,2.44,0,0,1,.26,2A17.79,17.79,0,0,0,29.55,28.13Zm3.17,3.3q.05.69.05,1.4a19.83,19.83,0,0,1-.15,2.45,11.52,11.52,0,0,0,4.18-5.8,19.54,19.54,0,0,1-2.73.46A2.45,2.45,0,0,1,32.73,31.44ZM29,29.78a19.51,19.51,0,0,1-7.76-3.11,2.43,2.43,0,0,1-1.28.36,2.46,2.46,0,0,1-.5-.05,17.79,17.79,0,0,0-2,6.86,11.52,11.52,0,0,0,3.93,2.75A19.57,19.57,0,0,1,29,29.78Zm4.59-12.3a17.78,17.78,0,0,0-5.24,1.34,2.27,2.27,0,0,1,0,.24,2.44,2.44,0,0,1-.25,1.08,19.61,19.61,0,0,1,3.71,6.61A2.45,2.45,0,0,1,34,28.24a17.77,17.77,0,0,0,3.22-.63A11.62,11.62,0,0,0,37.35,26,11.47,11.47,0,0,0,33.57,17.48ZM30.21,31.09a17.87,17.87,0,0,0-7.15,6.07,11.51,11.51,0,0,0,7.65-.73,17.89,17.89,0,0,0,.36-3.59c0-.44,0-.88-.05-1.32A2.45,2.45,0,0,1,30.21,31.09Z" fill="#0399ff"/><path d="M38.09,127.64a12.25,12.25,0,1,1-12.25-12.25A12.25,12.25,0,0,1,38.09,127.64Z" fill="#58596c"/><path d="M37.19,123H14.51a12.25,12.25,0,1,0,22.68,0Z" fill="#ff5856"/><path d="M38.07,126.93q0-.43-.08-.86H30.59v-2.63h6.77q-.16-.44-.35-.86H14.69q-.19.42-.35.86H21.1v2.63H13.7q-.05.43-.08.86h3.17v2.63h-3q.07.44.17.86H21.1v2.63H14.86q.22.44.47.86h1.47v2a12.33,12.33,0,0,0,1.66,1.51H21.1v1.53q.42.18.86.32V137.4h7.76v1.86q.44-.15.86-.32V137.4h2.65a12.33,12.33,0,0,0,1.66-1.51v-2h1.47q.25-.42.47-.86H30.59v-2.63h7.19q.1-.42.17-.86h-3v-2.63ZM22,123.44h7.76v2.63H22Zm-4.31,6.12v-2.63h7.76v2.63Zm7.76,7H17.65v-2.63h7.76ZM22,133.05v-2.63h7.76v2.63Zm12.07.86v2.63H26.28v-2.63Zm0-4.35H26.28v-2.63H34Z" fill="#db4040"/><path d="M19.29,123.21a.93.93,0,0,1,0-.2H14.51a12.26,12.26,0,0,0,4.78,15Z" fill="#db4040"/><path d="M19.29,130.42v-.86H17.65v-2.63h1.64v-.86H13.7q-.05.43-.08.86h3.17v2.63h-3q.07.44.17.86Z" fill="#cc3636"/><path d="M19.29,123.21a.93.93,0,0,1,.25-.63H14.69q-.19.42-.35.86h5Z" fill="#cc3636"/><path d="M19.29,136.54H17.65v-2.63h1.64v-.86H14.86q.22.44.47.86h1.47v2a12.33,12.33,0,0,0,1.66,1.51h.84Z" fill="#cc3636"/><path d="M32.93,126.35l-1.79.56a3.82,3.82,0,0,0,.2-4.82,5.28,5.28,0,0,1-1.15-2.82.31.31,0,0,0-.56-.14,7.36,7.36,0,0,0-.89,1.9h0a5.22,5.22,0,0,0-1.45-3.89,3.6,3.6,0,0,1-1-3.18.31.31,0,0,0-.47-.32,9.47,9.47,0,0,0-4.46,9.61h0c0,.27-.16.19-.22.14a7.71,7.71,0,0,1-1.2-1.28.31.31,0,0,0-.54.08,9.44,9.44,0,0,0,.68,7.9,6.65,6.65,0,0,0,6,3c4.46,0,6.9-2.7,7.36-6.4A.31.31,0,0,0,32.93,126.35Z" fill="#ffdc67"/><path d="M21,123.55a.31.31,0,0,1,.12-.15l0,0a7.71,7.71,0,0,1-1.2-1.28.31.31,0,0,0-.54.08c-1.27,3.55-.43,8.14,2.87,10A9.09,9.09,0,0,1,21,123.55Z" fill="#ffb456"/><path d="M21.28,123.24a.41.41,0,0,1,0,.1.31.31,0,0,1,.25.12,7.7,7.7,0,0,0,1.2,1.28c.07,0,.22.13.22-.14h0a9.47,9.47,0,0,1,3.43-8.88,3.32,3.32,0,0,1-.15-1.78.31.31,0,0,0-.47-.32,9.47,9.47,0,0,0-4.46,9.61Z" fill="#ffb456"/><path d="M30,129.19l-1.06.34a2.27,2.27,0,0,0,.12-2.87,3.14,3.14,0,0,1-.68-1.68.18.18,0,0,0-.33-.08,4.39,4.39,0,0,0-.53,1.13h0a3.11,3.11,0,0,0-.86-2.31,2.14,2.14,0,0,1-.62-1.89.18.18,0,0,0-.28-.19A5.64,5.64,0,0,0,23,127.36h0c0,.16-.11.08-.13.07a4.58,4.58,0,0,1-.71-.76.18.18,0,0,0-.32,0c-.82,2.29-.17,5.21,2.13,6.15a8.84,8.84,0,0,0,2,.21,9.87,9.87,0,0,0,1.43-.1,4,4,0,0,0,2.81-3.59A.18.18,0,0,0,30,129.19Z" fill="#ffb456"/><path d="M23.27,132.25a5.62,5.62,0,0,1-.41-4.7.19.19,0,0,1,.09-.1l0,0a4.58,4.58,0,0,1-.71-.76.18.18,0,0,0-.32,0c-.76,2.11-.26,4.82,1.68,5.93A3.93,3.93,0,0,1,23.27,132.25Z" fill="#fc974d"/><path d="M23,127.36a.14.14,0,0,1,0,.07.18.18,0,0,1,.16.07,4.58,4.58,0,0,0,.71.76s.14.09.13-.07a5.64,5.64,0,0,1,2-5.3,2,2,0,0,1-.1-1.08.18.18,0,0,0-.28-.19A5.64,5.64,0,0,0,23,127.36Z" fill="#fc974d"/><path d="M26.11,128.73a.53.53,0,0,0-.69,0,2.88,2.88,0,0,0,0,4.31l0,0H26l.06,0a2.88,2.88,0,0,0,0-4.31Z" fill="#fc974d"/><path d="M25.6,131a2.85,2.85,0,0,1,.77-2,2.7,2.7,0,0,0-.27-.27.53.53,0,0,0-.69,0,2.88,2.88,0,0,0,0,4.31l0,0H26l.06,0,.19-.19A2.85,2.85,0,0,1,25.6,131Z" fill="#f47f31"/><path d="M37.61,233.64c-1.36.71-8.41,3.61-9.91,4.39a3.35,3.35,0,0,1-3.52.21c-1.19-.57-8.69-3.6-10-4.24-.68-.32-1-.6-1-.85v-2.58s9.77-2.13,11.35-2.69a4,4,0,0,1,3.47-.09c1.34.49,9.37,1.94,10.69,2.43,0,0,0,2.3,0,2.54s-.31.53-1,.9" fill="#912626"/><path d="M37.61,231.08c-1.36.71-8.41,3.61-9.91,4.39a3.35,3.35,0,0,1-3.52.21c-1.19-.57-8.69-3.6-10-4.24s-1.38-1.09-.05-1.61,8.79-3.45,10.37-4a4,4,0,0,1,3.47-.09c1.34.49,8.35,3.28,9.68,3.77s1.38.89,0,1.6" fill="#c6302b"/><path d="M37.61,229.47c-1.36.71-8.41,3.61-9.91,4.39a3.35,3.35,0,0,1-3.52.21c-1.19-.57-8.69-3.6-10-4.24-.68-.32-1-.6-1-.85v-2.58s9.77-2.13,11.35-2.69a4,4,0,0,1,3.47-.09c1.34.49,9.37,1.94,10.69,2.43,0,0,0,2.3,0,2.54s-.31.53-1,.9" fill="#912626"/><path d="M37.61,226.91c-1.36.71-8.41,3.61-9.91,4.39a3.35,3.35,0,0,1-3.52.21c-1.19-.57-8.69-3.6-10-4.24s-1.38-1.09-.05-1.61,8.79-3.45,10.37-4a4,4,0,0,1,3.47-.09c1.34.49,8.35,3.28,9.68,3.77s1.38.89,0,1.6h0" fill="#c6302b"/><path d="M37.61,225.14c-1.36.71-8.41,3.61-9.91,4.39a3.35,3.35,0,0,1-3.52.21c-1.19-.57-8.69-3.6-10-4.24-.68-.32-1-.6-1-.85v-2.58s9.77-2.13,11.35-2.69a4,4,0,0,1,3.47-.09c1.34.49,9.37,1.94,10.69,2.43,0,0,0,2.3,0,2.54s-.31.53-1,.9" fill="#912626"/><path d="M37.61,222.58c-1.36.71-8.41,3.61-9.91,4.39a3.35,3.35,0,0,1-3.52.21c-1.19-.57-8.69-3.6-10-4.24s-1.38-1.09-.05-1.61,8.79-3.45,10.37-4a4,4,0,0,1,3.47-.09c1.34.49,8.35,3.28,9.68,3.77s1.38.89,0,1.6" fill="#c6302b"/><path d="M29,220.07l-2.19.23-.49,1.18-.79-1.32L23,219.94l1.89-.68-.57-1,1.77.69,1.67-.55-.45,1.08,1.7.64" fill="#fff"/><path d="M26.15,225.8l-4.09-1.7,5.86-.9-1.77,2.6" fill="#fff"/><path d="M20.48,220.73c1.73,0,3.13.54,3.13,1.22s-1.4,1.22-3.13,1.22-3.13-.54-3.13-1.22,1.4-1.22,3.13-1.22" fill="#fff"/><path d="M31.56,220.4,35,221.77l-3.47,1.37V220.4" fill="#621b1c"/><path d="M27.72,221.91l3.84-1.52v2.74l-.38.15-3.47-1.37" fill="#9a2928"/><path id="c081d5b1-0453-4661-a289-fc0b856a8ace" data-name="&lt;Контур&gt;" d="M41.39,265.78c-.5,0-.34.16-1.43.43a22,22,0,0,0-3.61.68c-3.52,1.48-4.23,6.53-7.43,8.34-2.39,1.35-4.81,1.46-7,2.14a12.77,12.77,0,0,0-4.28,2.48c-1,.87-1,1.63-2.08,2.71s-4.46,0-6,1.8c.49.49.7.63,1.66.5-.2.38-1.37.69-1.14,1.25s3.07,1,5.65-.58c1.2-.72,2.15-1.77,4-2,2.42-.32,5.2.21,8,.61a12.46,12.46,0,0,1-1.91,3c-.21.22.41.25,1.12.11a11.19,11.19,0,0,0,3.16-1.13c1.18-.69,1.36-2.45,2.81-2.84a3.25,3.25,0,0,0,4.37.54c-1.2-.34-1.53-2.89-1.12-4s.76-2.76,1.15-4.17.57-3.41,1.07-4.18a9.89,9.89,0,0,1,2.31-2.21,3.24,3.24,0,0,0,1.36-2.78c0-.48-.26-.75-.71-.73Z" fill="#002b64"/><path id="65209f50-e590-45e9-8195-82e8478bc358" data-name="&lt;Контур&gt;" d="M10.64,286a7.22,7.22,0,0,0,4.42-.64c1.25-.54,2.46-1.66,3.94-2.14,2.17-.7,4.56,0,6.88.14a10,10,0,0,0,1.68,0c.87-.53.85-2.52,1.69-2.7a9.59,9.59,0,0,1-2.37,6.08,6.77,6.77,0,0,0,5-3.85,14.23,14.23,0,0,0,.81-1.89c.36.28.16,1.12.34,1.58,1.74-1,2.73-3.18,3.39-5.41.76-2.58,1.07-5.2,1.57-6a6.51,6.51,0,0,1,1.91-1.68,3,3,0,0,0,1.58-2.14c-.82-.08-1-.26-1.13-.68a2.44,2.44,0,0,1-1.21.29c-.37,0-.77,0-1.27,0-4.09.42-4.61,4.93-7.23,7.48a6.15,6.15,0,0,1-.61.52A12.89,12.89,0,0,1,27,276.58c-1.68.64-3.27.69-4.84,1.24a14.5,14.5,0,0,0-3.28,1.64c-.24.16-.46.33-.67.5a6.52,6.52,0,0,0-1.28,1.48A9.83,9.83,0,0,1,15.69,283c-.87.85-4.12.25-5.26,1a.93.93,0,0,0-.3.32c.62.28,1,.11,1.76.19.09.68-1.48,1.09-1.25,1.4Z" fill="#c49a6c"/><path id="b1105292-49fe-4e07-b02e-b4e4aca4ffcc" data-name="&lt;Контур&gt;" d="M35.42,281.09a5.94,5.94,0,0,0,.9,2.71,2.79,2.79,0,0,1-2.48-.68C34,282.32,34.94,281.59,35.42,281.09Z" fill="#c49a6c"/><path id="e521686e-0d2e-49d5-bceb-7c84958e538a" data-name="&lt;Контур&gt;" d="M36.57,268.69a1,1,0,0,0,1.58-.9C37.24,267.72,36.72,268,36.57,268.69Z" fill="#002b64"/><path id="be5c8b98-cc36-4302-82e2-95fbee8c0c09" data-name="&lt;Контур&gt;" d="M40.6,267.53a3,3,0,0,0-.45,1.56c0,.14-.11.24-.11,0a3.07,3.07,0,0,1,.45-1.61C40.6,267.31,40.66,267.39,40.6,267.53Z" fill="#002b64"/><path id="f1b6682b-1ff6-4e48-af01-44709a92ce09" data-name="&lt;Контур&gt;" d="M40.45,267.4a3.71,3.71,0,0,0-.69,1.69c0,.14-.13.23-.11,0a3.79,3.79,0,0,1,.69-1.74C40.46,267.19,40.52,267.27,40.45,267.4Z" fill="#002b64"/><path id="1c317714-06c1-4d1b-8e52-2df115a43deb" data-name="&lt;Контур&gt;" d="M40.31,267.24a4.39,4.39,0,0,0-1,1.78c0,.14-.15.22-.11,0a4.56,4.56,0,0,1,1-1.82C40.34,267,40.39,267.12,40.31,267.24Z" fill="#002b64"/><path id="ce618e25-ffd5-4821-84e1-187e9585e904" data-name="&lt;Контур&gt;" d="M40.18,267.06a6.06,6.06,0,0,0-1.3,1.9c0,.13-.18.19-.11,0A6,6,0,0,1,40.08,267c.16-.15.19-.05.1.06Z" fill="#002b64"/><path d="M25.85,324.11a2.39,2.39,0,1,0,2.39,2.39A2.39,2.39,0,0,0,25.85,324.11Zm0,4.07a1.68,1.68,0,1,1,1.68-1.68A1.68,1.68,0,0,1,25.85,328.17Z" fill="#7488a5"/><path d="M32.61,316.31H19.09a1.41,1.41,0,0,0-1.41,1.41v20.37a1.41,1.41,0,0,0,1.41,1.41H32.61A1.41,1.41,0,0,0,34,338.09V317.72A1.41,1.41,0,0,0,32.61,316.31Zm-12.69,1.53a.71.71,0,1,1-.71.71A.71.71,0,0,1,19.92,317.84Zm0,20.13a.71.71,0,1,1,.71-.71A.71.71,0,0,1,19.92,338Zm6.67-5.17v-2a.35.35,0,0,0-.71,0v2.93a.35.35,0,0,1-.1.24l-1.55,1.62a.35.35,0,0,1-.51-.49l1.46-1.52v-.74a6.35,6.35,0,1,1,1.41,0Zm5.2,5.17a.71.71,0,1,1,.71-.71A.71.71,0,0,1,31.78,338Zm0-18.72a.71.71,0,1,1,.71-.71A.71.71,0,0,1,31.78,319.25Z" fill="#7488a5"/><path d="M32.22,76.57H28.59V74.69a2.72,2.72,0,1,0-5.43,0v1.87H19.52V74.69a6.35,6.35,0,1,1,12.7,0Z" fill="#ffa400"/><path d="M33.71,76.57H18a1.21,1.21,0,0,0-1.22,1.22V89.38A1.21,1.21,0,0,0,18,90.61H33.71a1.21,1.21,0,0,0,1.22-1.22V77.79A1.26,1.26,0,0,0,33.71,76.57Zm-7.08,7.61v1.57a.8.8,0,1,1-1.61,0V84.18a1.58,1.58,0,0,1-.8-1.42,1.61,1.61,0,1,1,3.21,0A1.51,1.51,0,0,1,26.64,84.18Z" fill="#fff"/><path d="M16.42,74.85H12.63a1.11,1.11,0,1,1,0-2.22h3.79a1.11,1.11,0,1,1,0,2.22Z" fill="#ffa400"/><path d="M19.1,69.88a1,1,0,0,1-.69-.27l-3-2.45a1.11,1.11,0,0,1,1.42-1.72l3,2.45A1.13,1.13,0,0,1,20,69.46,1.27,1.27,0,0,1,19.1,69.88Z" fill="#ffa400"/><path d="M25.87,67.28a1.11,1.11,0,0,1-1.11-1.11V62.34a1.11,1.11,0,1,1,2.22,0v3.83A1.11,1.11,0,0,1,25.87,67.28Z" fill="#ffa400"/><path d="M32.6,69.88a1.07,1.07,0,0,1-.84-.42,1.14,1.14,0,0,1,.15-1.57l3-2.45a1.11,1.11,0,1,1,1.42,1.72l-3,2.45A1.07,1.07,0,0,1,32.6,69.88Z" fill="#ffa400"/><path d="M39.07,74.85H35.24a1.11,1.11,0,0,1,0-2.22h3.83a1.11,1.11,0,0,1,0,2.22Z" fill="#ffa400"/><path d="M36.93,176.81l-6.74-6.74-2.87,3.64,3.09,3.09a.74.74,0,0,1,0,1l-.9.9s.6.9.63,1a1.1,1.1,0,0,1-.22,1.23l-7,5.4c0,1.81,0,5.54,0,5.54l14-14A.74.74,0,0,0,36.93,176.81Z" fill="#5e8cda"/><path d="M21.28,177.66a.74.74,0,0,1,0-1l.9-.9-.61-.88a1,1,0,0,1,.2-1.31l7-5.4v-5.54h0l-14,14a.73.73,0,0,0,0,1l6.74,6.74,2.87-3.64Z" fill="#093071"/><polygon points="25.97 182.1 25.97 182.1 22.71 185.36 25.97 182.1" fill="#fff"/><path d="M32.36,166a.27.27,0,0,1,.23.14c.07.15,0,.3-.12.42l-6.17,7.83a.43.43,0,0,0,0,.45l3.44,5a.82.82,0,0,1-.15.94l-9.92,7.61a.51.51,0,0,1-.32.14.28.28,0,0,1-.22-.14c-.07-.15,0-.3.12-.42l6.17-7.83a.43.43,0,0,0,0-.45l-3.44-5a.72.72,0,0,1,.15-1L32,166.11a.49.49,0,0,1,.31-.14m0-.13A.62.62,0,0,0,32,166l-9.92,7.61a.85.85,0,0,0-.18,1.16l3.44,4.95a.3.3,0,0,1,0,.3l-6.17,7.83a.53.53,0,0,0-.13.56.41.41,0,0,0,.32.21.64.64,0,0,0,.4-.17l9.92-7.61a1,1,0,0,0,.18-1.11l-3.44-5a.3.3,0,0,1,0-.3l6.17-7.83a.52.52,0,0,0,.14-.55.39.39,0,0,0-.34-.21Z" fill="#5e8cda"/><path d="M29.47,179.82c.08.12.15.58,0,.73l-9.92,7.61c-.08.06-.14.1-.16.09s0-.06.08-.18l6.16-7.82a.66.66,0,0,0,0-.74l-3.44-5S29.39,179.7,29.47,179.82Z" fill="#f5cd21"/><path d="M29.47,179.82l-3.39-4.87a.66.66,0,0,1,0-.74l6.17-7.83c.09-.12.12-.18.08-.18a.38.38,0,0,0-.16.09l-9.92,7.61a.48.48,0,0,0-.1.65Z" fill="#fddd75"/></svg>
