<svg id="11fd3214-7d25-463a-ae25-041c196f8439" data-name="Слой 1" xmlns="http://www.w3.org/2000/svg" viewBox="0 0 233 304"><title>geo clusters_1</title><rect width="233" height="304" rx="4.64" ry="4.64" fill="#0088fb"/><rect x="1.5" y="2" width="230" height="50" rx="6" ry="6" fill="#2e3d4c"/><rect x="1.5" y="52" width="230" height="50" rx="6" ry="6" fill="#2e3d4c"/><rect x="1.5" y="102" width="230" height="50" rx="6" ry="6" fill="#2e3d4c"/><rect x="1.5" y="152" width="230" height="50" rx="6" ry="6" fill="#2e3d4c"/><rect x="1.5" y="202" width="230" height="50" rx="6" ry="6" fill="#2e3d4c"/><rect x="1.5" y="252" width="230" height="50" rx="6" ry="6" fill="#2e3d4c"/><rect x="1.5" y="2" width="230" height="50" rx="6" ry="6" fill="#2e3d4c"/><rect x="1.5" y="52" width="230" height="50" rx="6" ry="6" fill="#283642" opacity="0.5"/><rect x="1.5" y="102" width="230" height="50" rx="6" ry="6" fill="#2e3d4c"/><rect x="1.5" y="152" width="230" height="50" rx="6" ry="6" fill="#283642" opacity="0.5"/><rect x="1.5" y="202" width="230" height="50" rx="6" ry="6" fill="#2e3d4c"/><rect x="1.5" y="252" width="230" height="50" rx="6" ry="6" fill="#283642" opacity="0.5"/><path d="M56.57,24.27A3.33,3.33,0,0,1,55.4,27a5.16,5.16,0,0,1-3.34,1H50.88v4.27H49V20.81H52.3a5,5,0,0,1,3.21.88A3.14,3.14,0,0,1,56.57,24.27Zm-5.7,2.13h1a3.56,3.56,0,0,0,2.11-.5,1.82,1.82,0,0,0,.67-1.56,1.78,1.78,0,0,0-.6-1.47,3,3,0,0,0-1.87-.48h-1.3Z" fill="#fff"/><path d="M63,23.44a4.45,4.45,0,0,1,.91.08l-.18,1.71a3.47,3.47,0,0,0-.81-.09,2.35,2.35,0,0,0-1.79.72,2.6,2.6,0,0,0-.68,1.87v4.52H58.66V23.59h1.44l.24,1.52h.09a3.42,3.42,0,0,1,1.12-1.23A2.67,2.67,0,0,1,63,23.44Z" fill="#fff"/><path d="M69.33,32.39a4.18,4.18,0,0,1-3.15-1.18A4.46,4.46,0,0,1,65,28a4.9,4.9,0,0,1,1.05-3.33A3.64,3.64,0,0,1,69,23.44a3.56,3.56,0,0,1,2.7,1,4,4,0,0,1,1,2.86v1H66.93a2.83,2.83,0,0,0,.68,1.93,2.37,2.37,0,0,0,1.8.68,6.65,6.65,0,0,0,1.43-.14,7.48,7.48,0,0,0,1.42-.48V31.8a5.63,5.63,0,0,1-1.36.45A8.36,8.36,0,0,1,69.33,32.39ZM69,24.83a1.84,1.84,0,0,0-1.4.55A2.64,2.64,0,0,0,67,27h3.92a2.4,2.4,0,0,0-.52-1.62A1.76,1.76,0,0,0,69,24.83Z" fill="#fff"/><path d="M82.05,32.23H80.21V26.91a2.42,2.42,0,0,0-.37-1.48,1.38,1.38,0,0,0-1.17-.49,1.79,1.79,0,0,0-1.56.69,4.05,4.05,0,0,0-.5,2.3v4.3H74.77V23.59h1.44l.26,1.13h.09a2.39,2.39,0,0,1,1-1,3.37,3.37,0,0,1,1.5-.34,2.63,2.63,0,0,1,2.64,1.36h.13a2.63,2.63,0,0,1,1.08-1,3.42,3.42,0,0,1,1.59-.36,2.9,2.9,0,0,1,2.25.78,3.46,3.46,0,0,1,.71,2.38v5.63H85.67V26.91a2.4,2.4,0,0,0-.38-1.48,1.4,1.4,0,0,0-1.18-.49,1.82,1.82,0,0,0-1.57.67,3.44,3.44,0,0,0-.5,2.05Z" fill="#fff"/><path d="M90,21.3a1,1,0,0,1,.27-.76,1.05,1.05,0,0,1,.77-.27,1,1,0,0,1,.75.27,1,1,0,0,1,.27.76,1,1,0,0,1-.27.74,1,1,0,0,1-.75.27,1,1,0,0,1-.77-.27A1,1,0,0,1,90,21.3Zm1.95,10.93H90.07V23.59h1.84Z" fill="#fff"/><path d="M100.63,32.23l-.26-1.13h-.09a2.61,2.61,0,0,1-1.09.95,3.65,3.65,0,0,1-1.61.34,3.17,3.17,0,0,1-2.34-.78,3.24,3.24,0,0,1-.77-2.37V23.59H96.3v5.33a2.31,2.31,0,0,0,.41,1.49,1.55,1.55,0,0,0,1.27.5,2,2,0,0,0,1.7-.69,3.81,3.81,0,0,0,.54-2.32v-4.3h1.84v8.64Z" fill="#fff"/><path d="M112,32.23h-1.84V26.91a2.42,2.42,0,0,0-.37-1.48,1.38,1.38,0,0,0-1.17-.49,1.79,1.79,0,0,0-1.56.69,4.05,4.05,0,0,0-.5,2.3v4.3h-1.84V23.59h1.44l.26,1.13h.09a2.39,2.39,0,0,1,1-1,3.37,3.37,0,0,1,1.5-.34,2.63,2.63,0,0,1,2.64,1.36h.13a2.63,2.63,0,0,1,1.08-1,3.42,3.42,0,0,1,1.59-.36,2.9,2.9,0,0,1,2.25.78,3.46,3.46,0,0,1,.71,2.38v5.63h-1.84V26.91a2.4,2.4,0,0,0-.38-1.48,1.4,1.4,0,0,0-1.18-.49,1.82,1.82,0,0,0-1.57.67,3.44,3.44,0,0,0-.5,2.05Z" fill="#fff"/><path d="M129.2,22.25a3.08,3.08,0,0,0-2.53,1.14,4.87,4.87,0,0,0-.92,3.15,4.9,4.9,0,0,0,.89,3.18,3.13,3.13,0,0,0,2.57,1.08,6.72,6.72,0,0,0,1.41-.14q.68-.14,1.41-.37v1.6a8.57,8.57,0,0,1-3,.51,4.87,4.87,0,0,1-3.85-1.52,6.35,6.35,0,0,1-1.34-4.35,7,7,0,0,1,.65-3.12,4.65,4.65,0,0,1,1.89-2,5.71,5.71,0,0,1,2.9-.71,7.2,7.2,0,0,1,3.23.73l-.67,1.55a10.11,10.11,0,0,0-1.22-.48A4.42,4.42,0,0,0,129.2,22.25Z" fill="#fff"/><path d="M143.77,26.41a5.69,5.69,0,0,1-1.57,4.32,6.31,6.31,0,0,1-4.52,1.5h-3.2V20.81H138a5.84,5.84,0,0,1,4.24,1.47A5.49,5.49,0,0,1,143.77,26.41Zm-2,.06q0-4.1-3.84-4.1h-1.62v8.29h1.33Q141.8,30.66,141.8,26.48Z" fill="#fff"/><path d="M155.73,32.23h-2.29l-5.62-9.1h-.06l0,.51q.11,1.45.11,2.66v5.94h-1.7V20.81h2.27l5.6,9.05h0q0-.18-.06-1.31t0-1.76v-6h1.71Z" fill="#fff"/><path d="M49,81V69.58h1.87V79.4h4.84V81Z" fill="#fff"/><path d="M61.26,81.16A4.18,4.18,0,0,1,58.11,80,4.46,4.46,0,0,1,57,76.74,4.9,4.9,0,0,1,58,73.41a3.64,3.64,0,0,1,2.9-1.21,3.56,3.56,0,0,1,2.7,1,4,4,0,0,1,1,2.86v1H58.86A2.84,2.84,0,0,0,59.54,79a2.37,2.37,0,0,0,1.8.68,6.64,6.64,0,0,0,1.43-.14,7.44,7.44,0,0,0,1.42-.48v1.49a5.63,5.63,0,0,1-1.36.45A8.3,8.3,0,0,1,61.26,81.16Zm-.34-7.56a1.85,1.85,0,0,0-1.4.55,2.64,2.64,0,0,0-.63,1.62h3.92a2.4,2.4,0,0,0-.52-1.62A1.76,1.76,0,0,0,60.92,73.59Z" fill="#fff"/><path d="M69.92,79.67a4.46,4.46,0,0,0,1.34-.21v1.38a3.67,3.67,0,0,1-.79.22,5.44,5.44,0,0,1-1,.09q-2.61,0-2.61-2.75V73.75H65.7v-.81L67,72.27l.63-1.83h1.13v1.92h2.46v1.39H68.72v4.63a1.3,1.3,0,0,0,.33,1A1.21,1.21,0,0,0,69.92,79.67Z" fill="#fff"/><path d="M74.46,69.58l.12.17a22.69,22.69,0,0,1-1.37,3.74H71.88q.54-2.26.78-3.91Z" fill="#fff"/><path d="M81.88,78.54A2.26,2.26,0,0,1,81,80.48a4.41,4.41,0,0,1-2.64.68,6.24,6.24,0,0,1-2.77-.52V79a6.81,6.81,0,0,0,2.84.7q1.69,0,1.7-1a.81.81,0,0,0-.19-.55,2.23,2.23,0,0,0-.62-.45,10.63,10.63,0,0,0-1.2-.53,5.52,5.52,0,0,1-2-1.16,2.14,2.14,0,0,1-.53-1.5,2,2,0,0,1,.89-1.72,4.25,4.25,0,0,1,2.43-.61,6.9,6.9,0,0,1,2.88.62l-.59,1.38a6.42,6.42,0,0,0-2.35-.58q-1.45,0-1.45.83a.83.83,0,0,0,.38.69,8.35,8.35,0,0,0,1.65.77,7.58,7.58,0,0,1,1.55.76,2.27,2.27,0,0,1,.72.79A2.3,2.3,0,0,1,81.88,78.54Z" fill="#fff"/><path d="M94.68,81H88.22V69.58h6.46v1.58H90.09v3.11h4.3v1.56h-4.3v3.59h4.59Z" fill="#fff"/><path d="M104.55,81h-1.84V75.69a2.32,2.32,0,0,0-.4-1.49A1.56,1.56,0,0,0,101,73.7a2,2,0,0,0-1.7.69,3.8,3.8,0,0,0-.54,2.3V81H97V72.36h1.44l.26,1.13h.09a2.56,2.56,0,0,1,1.11-1,3.72,3.72,0,0,1,1.59-.34q3.11,0,3.11,3.16Z" fill="#fff"/><path d="M110.59,81.16a3.78,3.78,0,0,1-3-1.14,5.8,5.8,0,0,1,0-6.64,4,4,0,0,1,3.08-1.17,5.78,5.78,0,0,1,2.46.51l-.55,1.48a5.57,5.57,0,0,0-1.92-.45q-2.24,0-2.24,3a3.57,3.57,0,0,0,.56,2.18,1.93,1.93,0,0,0,1.64.73A4.7,4.7,0,0,0,113,79v1.6a3.62,3.62,0,0,1-1.05.41A6.32,6.32,0,0,1,110.59,81.16Z" fill="#fff"/><path d="M119.41,72.2a4.44,4.44,0,0,1,.91.08L120.15,74a3.47,3.47,0,0,0-.81-.09,2.35,2.35,0,0,0-1.79.72,2.6,2.6,0,0,0-.68,1.87V81H115V72.36h1.44l.24,1.52h.09a3.42,3.42,0,0,1,1.12-1.23A2.67,2.67,0,0,1,119.41,72.2Z" fill="#fff"/><path d="M120.62,72.36h2l1.76,4.9a9.32,9.32,0,0,1,.53,2H125a8.24,8.24,0,0,1,.26-1q.19-.61,2-5.82h2l-3.7,9.79q-1,2.7-3.36,2.7a5.27,5.27,0,0,1-1.19-.13V83.26a4.3,4.3,0,0,0,.95.09,1.94,1.94,0,0,0,1.87-1.54l.32-.81Z" fill="#fff"/><path d="M134.89,81.16A3,3,0,0,1,132.34,80h-.11q.11,1.09.11,1.33v3.54h-1.84V72.36H132q.06.24.26,1.16h.09a2.88,2.88,0,0,1,2.58-1.31,3,3,0,0,1,2.52,1.17,6.43,6.43,0,0,1,0,6.59A3,3,0,0,1,134.89,81.16Zm-.45-7.45a1.91,1.91,0,0,0-1.6.64,3.32,3.32,0,0,0-.5,2v.27a4,4,0,0,0,.5,2.29,1.86,1.86,0,0,0,1.63.71,1.66,1.66,0,0,0,1.47-.78,4,4,0,0,0,.52-2.23,3.9,3.9,0,0,0-.51-2.2A1.71,1.71,0,0,0,134.45,73.7Z" fill="#fff"/><path d="M143.7,79.67a4.46,4.46,0,0,0,1.34-.21v1.38a3.67,3.67,0,0,1-.79.22,5.44,5.44,0,0,1-1,.09q-2.61,0-2.61-2.75V73.75h-1.18v-.81l1.27-.67.63-1.83h1.13v1.92H145v1.39h-2.46v4.63a1.3,1.3,0,0,0,.33,1A1.21,1.21,0,0,0,143.7,79.67Z" fill="#fff"/><path d="M157.7,77.9a2.87,2.87,0,0,1-1.1,2.39,4.79,4.79,0,0,1-3,.87,7.25,7.25,0,0,1-3.17-.6V78.79a8.59,8.59,0,0,0,1.66.58,7,7,0,0,0,1.64.21,2.6,2.6,0,0,0,1.64-.42,1.38,1.38,0,0,0,.53-1.13,1.42,1.42,0,0,0-.48-1.09,7.29,7.29,0,0,0-2-1.05,5.28,5.28,0,0,1-2.2-1.45,3.06,3.06,0,0,1-.64-2,2.74,2.74,0,0,1,1-2.25,4.21,4.21,0,0,1,2.73-.82,8,8,0,0,1,3.27.72l-.59,1.52a7.14,7.14,0,0,0-2.72-.64,2.09,2.09,0,0,0-1.37.39,1.3,1.3,0,0,0-.47,1,1.47,1.47,0,0,0,.19.76,1.92,1.92,0,0,0,.62.6,10.39,10.39,0,0,0,1.55.74,8.48,8.48,0,0,1,1.84,1,2.88,2.88,0,0,1,.86,1A3.07,3.07,0,0,1,157.7,77.9Z" fill="#fff"/><path d="M166.5,77.9a2.87,2.87,0,0,1-1.1,2.39,4.79,4.79,0,0,1-3,.87,7.25,7.25,0,0,1-3.17-.6V78.79a8.59,8.59,0,0,0,1.66.58,7,7,0,0,0,1.64.21,2.6,2.6,0,0,0,1.64-.42,1.38,1.38,0,0,0,.53-1.13,1.42,1.42,0,0,0-.48-1.09,7.29,7.29,0,0,0-2-1.05,5.28,5.28,0,0,1-2.2-1.45,3.06,3.06,0,0,1-.64-2,2.74,2.74,0,0,1,1-2.25,4.21,4.21,0,0,1,2.73-.82,8,8,0,0,1,3.27.72l-.59,1.52A7.14,7.14,0,0,0,163,71a2.09,2.09,0,0,0-1.37.39,1.3,1.3,0,0,0-.47,1,1.47,1.47,0,0,0,.19.76,1.92,1.92,0,0,0,.62.6,10.39,10.39,0,0,0,1.55.74,8.48,8.48,0,0,1,1.84,1,2.88,2.88,0,0,1,.86,1A3.07,3.07,0,0,1,166.5,77.9Z" fill="#fff"/><path d="M168.71,81V69.58h1.87V79.4h4.84V81Z" fill="#fff"/><path d="M61,134h-2L57,127.19q-.12-.45-.31-1.29t-.23-1.17q-.08.5-.25,1.3t-.29,1.19L54,134H52l-1.48-5.72-1.5-5.7h1.91l1.63,6.66q.38,1.6.55,2.83.09-.66.26-1.48t.31-1.33l1.86-6.67h1.85l1.91,6.7a25,25,0,0,1,.58,2.78,20.42,20.42,0,0,1,.56-2.84L62,122.58h1.89Z" fill="#fff"/><path d="M69.13,134.16A4.18,4.18,0,0,1,66,133a4.46,4.46,0,0,1-1.14-3.24,4.9,4.9,0,0,1,1.05-3.33,3.64,3.64,0,0,1,2.9-1.21,3.56,3.56,0,0,1,2.7,1,4,4,0,0,1,1,2.86v1H66.73a2.84,2.84,0,0,0,.68,1.93,2.36,2.36,0,0,0,1.8.68,6.64,6.64,0,0,0,1.43-.14,7.37,7.37,0,0,0,1.42-.48v1.49a5.6,5.6,0,0,1-1.36.45A8.3,8.3,0,0,1,69.13,134.16Zm-.34-7.56a1.85,1.85,0,0,0-1.4.55,2.64,2.64,0,0,0-.63,1.62h3.92a2.4,2.4,0,0,0-.52-1.62A1.76,1.76,0,0,0,68.8,126.59Z" fill="#fff"/><path d="M79,125.2a3,3,0,0,1,2.52,1.17,6.45,6.45,0,0,1,0,6.6,3.33,3.33,0,0,1-5.09,0h-.12L76,134H74.58V121.84h1.84v2.89q0,.32,0,1t0,.8h.08A2.91,2.91,0,0,1,79,125.2Zm-.48,1.5a1.87,1.87,0,0,0-1.6.65,3.8,3.8,0,0,0-.5,2.18v.13a4,4,0,0,0,.5,2.29,1.86,1.86,0,0,0,1.63.71,1.65,1.65,0,0,0,1.48-.77,4.1,4.1,0,0,0,.5-2.23Q80.53,126.7,78.52,126.7Z" fill="#fff"/><path d="M95.48,130.9a2.87,2.87,0,0,1-1.1,2.39,4.79,4.79,0,0,1-3,.87,7.25,7.25,0,0,1-3.17-.6v-1.77a8.59,8.59,0,0,0,1.66.58,7,7,0,0,0,1.64.21,2.6,2.6,0,0,0,1.64-.42,1.37,1.37,0,0,0,.53-1.13,1.42,1.42,0,0,0-.48-1.09,7.29,7.29,0,0,0-2-1.05,5.28,5.28,0,0,1-2.2-1.45,3.06,3.06,0,0,1-.64-2,2.74,2.74,0,0,1,1-2.25,4.21,4.21,0,0,1,2.73-.82,8,8,0,0,1,3.27.72l-.59,1.52A7.14,7.14,0,0,0,92,124a2.09,2.09,0,0,0-1.37.39,1.3,1.3,0,0,0-.47,1,1.47,1.47,0,0,0,.19.76,1.92,1.92,0,0,0,.62.6,10.39,10.39,0,0,0,1.55.74,8.48,8.48,0,0,1,1.84,1,2.88,2.88,0,0,1,.86,1A3.08,3.08,0,0,1,95.48,130.9Z" fill="#fff"/><path d="M101.27,134.16A4.18,4.18,0,0,1,98.12,133,4.46,4.46,0,0,1,97,129.74,4.9,4.9,0,0,1,98,126.41a3.64,3.64,0,0,1,2.9-1.21,3.56,3.56,0,0,1,2.7,1,4,4,0,0,1,1,2.86v1H98.88a2.84,2.84,0,0,0,.68,1.93,2.36,2.36,0,0,0,1.8.68,6.64,6.64,0,0,0,1.43-.14,7.37,7.37,0,0,0,1.42-.48v1.49a5.6,5.6,0,0,1-1.36.45A8.3,8.3,0,0,1,101.27,134.16Zm-.34-7.56a1.85,1.85,0,0,0-1.4.55,2.64,2.64,0,0,0-.63,1.62h3.92a2.4,2.4,0,0,0-.52-1.62A1.76,1.76,0,0,0,100.94,126.59Z" fill="#fff"/><path d="M111.1,125.2a4.44,4.44,0,0,1,.91.08l-.18,1.71a3.47,3.47,0,0,0-.81-.09,2.35,2.35,0,0,0-1.79.72,2.6,2.6,0,0,0-.68,1.87V134h-1.84v-8.64h1.44l.24,1.52h.09a3.42,3.42,0,0,1,1.12-1.23A2.67,2.67,0,0,1,111.1,125.2Z" fill="#fff"/><path d="M115.59,134l-3.28-8.64h1.94l1.76,5a10,10,0,0,1,.55,2h.06a13.81,13.81,0,0,1,.55-2l1.76-5h2l-3.3,8.64Z" fill="#fff"/><path d="M126,134.16A4.18,4.18,0,0,1,122.8,133a4.46,4.46,0,0,1-1.14-3.24,4.9,4.9,0,0,1,1.05-3.33,3.64,3.64,0,0,1,2.9-1.21,3.56,3.56,0,0,1,2.7,1,4,4,0,0,1,1,2.86v1h-5.76a2.84,2.84,0,0,0,.68,1.93,2.36,2.36,0,0,0,1.8.68,6.64,6.64,0,0,0,1.43-.14,7.37,7.37,0,0,0,1.42-.48v1.49a5.6,5.6,0,0,1-1.36.45A8.3,8.3,0,0,1,126,134.16Zm-.34-7.56a1.85,1.85,0,0,0-1.4.55,2.64,2.64,0,0,0-.63,1.62h3.92a2.4,2.4,0,0,0-.52-1.62A1.76,1.76,0,0,0,125.62,126.59Z" fill="#fff"/><path d="M135.78,125.2a4.44,4.44,0,0,1,.91.08l-.18,1.71a3.47,3.47,0,0,0-.81-.09,2.35,2.35,0,0,0-1.79.72,2.6,2.6,0,0,0-.68,1.87V134H131.4v-8.64h1.44l.24,1.52h.09a3.42,3.42,0,0,1,1.12-1.23A2.67,2.67,0,0,1,135.78,125.2Z" fill="#fff"/><path d="M50.88,178.44V183H49V171.58h3.23a5.3,5.3,0,0,1,3.27.83,3,3,0,0,1,1.06,2.5,3.12,3.12,0,0,1-2.22,3L57.58,183H55.45l-2.73-4.56Zm0-1.55h1.3a3,3,0,0,0,1.89-.48,1.76,1.76,0,0,0,.59-1.44,1.55,1.55,0,0,0-.63-1.39,3.47,3.47,0,0,0-1.91-.42H50.88Z" fill="#fff"/><path d="M62.81,183.16A4.18,4.18,0,0,1,59.66,182a4.46,4.46,0,0,1-1.14-3.24,4.9,4.9,0,0,1,1.05-3.33,3.64,3.64,0,0,1,2.9-1.21,3.56,3.56,0,0,1,2.7,1,4,4,0,0,1,1,2.86v1H60.41a2.84,2.84,0,0,0,.68,1.93,2.36,2.36,0,0,0,1.8.68,6.64,6.64,0,0,0,1.43-.14,7.37,7.37,0,0,0,1.42-.48v1.49a5.6,5.6,0,0,1-1.36.45A8.3,8.3,0,0,1,62.81,183.16Zm-.34-7.56a1.85,1.85,0,0,0-1.4.55,2.64,2.64,0,0,0-.63,1.62h3.92a2.4,2.4,0,0,0-.52-1.62A1.76,1.76,0,0,0,62.48,175.59Z" fill="#fff"/><path d="M71.17,183.16A3,3,0,0,1,68.65,182a6.42,6.42,0,0,1,0-6.6,3,3,0,0,1,2.54-1.18,3,3,0,0,1,2.59,1.26h.09a10.94,10.94,0,0,1-.13-1.47v-3.15H75.6V183H74.16l-.32-1.13h-.09A2.94,2.94,0,0,1,71.17,183.16Zm.49-1.48a2,2,0,0,0,1.65-.64,3.35,3.35,0,0,0,.53-2.07v-.26a3.87,3.87,0,0,0-.53-2.32,2,2,0,0,0-1.66-.69,1.69,1.69,0,0,0-1.49.79,4,4,0,0,0-.52,2.24,3.92,3.92,0,0,0,.51,2.19A1.71,1.71,0,0,0,71.66,181.67Z" fill="#fff"/><path d="M78.12,172.07a1,1,0,0,1,.27-.76,1.05,1.05,0,0,1,.77-.27,1,1,0,0,1,.75.27,1,1,0,0,1,.27.76,1,1,0,0,1-.27.74,1,1,0,0,1-.75.27,1,1,0,0,1-.77-.27A1,1,0,0,1,78.12,172.07ZM80.06,183H78.23v-8.64h1.84Z" fill="#fff"/><path d="M88.49,180.54a2.26,2.26,0,0,1-.92,1.94,4.41,4.41,0,0,1-2.64.68,6.23,6.23,0,0,1-2.77-.52V181a6.81,6.81,0,0,0,2.84.7q1.69,0,1.7-1a.81.81,0,0,0-.19-.55,2.23,2.23,0,0,0-.62-.45,10.63,10.63,0,0,0-1.2-.53,5.51,5.51,0,0,1-2-1.16,2.14,2.14,0,0,1-.53-1.5,2,2,0,0,1,.89-1.72,4.25,4.25,0,0,1,2.43-.61,6.9,6.9,0,0,1,2.88.62l-.59,1.38a6.43,6.43,0,0,0-2.35-.58q-1.45,0-1.45.83a.83.83,0,0,0,.38.69,8.35,8.35,0,0,0,1.65.77,7.6,7.6,0,0,1,1.55.76,2.27,2.27,0,0,1,.72.79A2.3,2.3,0,0,1,88.49,180.54Z" fill="#fff"/><path d="M53.95,234l-3.31-9.54h-.06q.13,2.13.13,4V234H49V222.58h2.63l3.17,9.09h0l3.27-9.09h2.64V234H59v-5.65q0-.85,0-2.22t.07-1.66H59L55.59,234Z" fill="#fff"/><path d="M69,234l-.37-1.2h-.06a3.53,3.53,0,0,1-1.26,1.07,4,4,0,0,1-1.62.29,2.75,2.75,0,0,1-2-.69,2.57,2.57,0,0,1-.71-1.95,2.28,2.28,0,0,1,1-2,5.72,5.72,0,0,1,3-.74l1.49,0v-.46a1.75,1.75,0,0,0-.39-1.24,1.58,1.58,0,0,0-1.2-.41,4.16,4.16,0,0,0-1.27.2,9.77,9.77,0,0,0-1.17.46L63.85,226a6.43,6.43,0,0,1,1.54-.56A7.12,7.12,0,0,1,67,225.2a3.74,3.74,0,0,1,2.49.72,2.82,2.82,0,0,1,.84,2.26V234Zm-2.73-1.25a2.27,2.27,0,0,0,1.61-.56,2,2,0,0,0,.61-1.57v-.75l-1.11,0a3.8,3.8,0,0,0-1.89.43,1.32,1.32,0,0,0-.59,1.18,1.15,1.15,0,0,0,.34.89A1.48,1.48,0,0,0,66.25,232.75Z" fill="#fff"/><path d="M77.24,225.2a4.44,4.44,0,0,1,.91.08L78,227a3.47,3.47,0,0,0-.81-.09,2.35,2.35,0,0,0-1.79.72,2.6,2.6,0,0,0-.68,1.87V234H72.86v-8.64H74.3l.24,1.52h.09a3.43,3.43,0,0,1,1.12-1.23A2.67,2.67,0,0,1,77.24,225.2Z" fill="#fff"/><path d="M79.65,223.07a1,1,0,0,1,.27-.76,1.05,1.05,0,0,1,.77-.27,1,1,0,0,1,.75.27,1,1,0,0,1,.27.76,1,1,0,0,1-.27.74,1,1,0,0,1-.75.27,1,1,0,0,1-.77-.27A1,1,0,0,1,79.65,223.07ZM81.59,234H79.76v-8.64h1.84Z" fill="#fff"/><path d="M89.63,234l-.37-1.2H89.2a3.53,3.53,0,0,1-1.26,1.07,4,4,0,0,1-1.62.29,2.75,2.75,0,0,1-2-.69,2.57,2.57,0,0,1-.71-1.95,2.28,2.28,0,0,1,1-2,5.72,5.72,0,0,1,3-.74l1.49,0v-.46a1.75,1.75,0,0,0-.39-1.24,1.58,1.58,0,0,0-1.2-.41,4.16,4.16,0,0,0-1.27.2,9.77,9.77,0,0,0-1.17.46L84.49,226a6.43,6.43,0,0,1,1.54-.56,7.12,7.12,0,0,1,1.58-.19,3.74,3.74,0,0,1,2.49.72,2.82,2.82,0,0,1,.84,2.26V234Zm-2.73-1.25a2.27,2.27,0,0,0,1.61-.56,2,2,0,0,0,.61-1.57v-.75l-1.11,0a3.8,3.8,0,0,0-1.89.43,1.32,1.32,0,0,0-.59,1.18,1.15,1.15,0,0,0,.34.89A1.48,1.48,0,0,0,86.89,232.75Z" fill="#fff"/><path d="M103,228.18a5.69,5.69,0,0,1-1.57,4.32,6.3,6.3,0,0,1-4.52,1.5H93.7V222.58h3.53a5.85,5.85,0,0,1,4.24,1.47A5.49,5.49,0,0,1,103,228.18Zm-2,.06q0-4.1-3.84-4.1H95.56v8.29h1.33Q101,232.43,101,228.24Z" fill="#fff"/><path d="M105.44,222.58h3.39a6.44,6.44,0,0,1,3.41.69,2.41,2.41,0,0,1,1.05,2.17,2.63,2.63,0,0,1-.52,1.66,2.3,2.3,0,0,1-1.48.84V228a3,3,0,0,1,1.77.89,2.71,2.71,0,0,1,.57,1.81,2.93,2.93,0,0,1-1.07,2.41,4.62,4.62,0,0,1-3,.87h-4.12Zm1.87,4.72h1.8a3.07,3.07,0,0,0,1.71-.37,1.42,1.42,0,0,0,.54-1.26,1.27,1.27,0,0,0-.58-1.16,3.64,3.64,0,0,0-1.85-.36H107.3Zm0,1.52v3.62h2a2.92,2.92,0,0,0,1.77-.45,1.66,1.66,0,0,0,.6-1.42,1.51,1.51,0,0,0-.61-1.32,3.23,3.23,0,0,0-1.85-.43Z" fill="#fff"/><path d="M49,282V270.58h1.87v9.82h4.84V282Z" fill="#fff"/><path d="M65.15,277.66a4.72,4.72,0,0,1-1.09,3.3,3.89,3.89,0,0,1-3,1.19,4.14,4.14,0,0,1-2.14-.55A3.6,3.6,0,0,1,57.47,280a5.35,5.35,0,0,1-.5-2.37A4.69,4.69,0,0,1,58,274.38a3.91,3.91,0,0,1,3-1.18,3.81,3.81,0,0,1,3,1.21A4.66,4.66,0,0,1,65.15,277.66Zm-6.29,0q0,3,2.21,3t2.19-3q0-3-2.2-3a1.88,1.88,0,0,0-1.68.77A3.89,3.89,0,0,0,58.86,277.66Z" fill="#fff"/><path d="M70.74,282.16a3.78,3.78,0,0,1-3-1.14,5.8,5.8,0,0,1,0-6.64,4,4,0,0,1,3.08-1.17,5.79,5.79,0,0,1,2.46.51l-.55,1.48a5.57,5.57,0,0,0-1.92-.45q-2.24,0-2.24,3a3.57,3.57,0,0,0,.56,2.18,1.93,1.93,0,0,0,1.64.73,4.7,4.7,0,0,0,2.32-.61v1.6a3.6,3.6,0,0,1-1.05.41A6.32,6.32,0,0,1,70.74,282.16Z" fill="#fff"/><path d="M80.59,282l-.37-1.2h-.06a3.53,3.53,0,0,1-1.26,1.07,4,4,0,0,1-1.62.29,2.75,2.75,0,0,1-2-.69,2.57,2.57,0,0,1-.71-1.95,2.28,2.28,0,0,1,1-2,5.72,5.72,0,0,1,3-.74l1.49,0v-.46a1.75,1.75,0,0,0-.39-1.24,1.58,1.58,0,0,0-1.2-.41,4.16,4.16,0,0,0-1.27.2,9.77,9.77,0,0,0-1.17.46L75.45,274a6.43,6.43,0,0,1,1.54-.56,7.12,7.12,0,0,1,1.58-.19,3.74,3.74,0,0,1,2.49.72,2.82,2.82,0,0,1,.84,2.26V282Zm-2.73-1.25a2.27,2.27,0,0,0,1.61-.56,2,2,0,0,0,.61-1.57v-.75l-1.11,0a3.8,3.8,0,0,0-1.89.43,1.32,1.32,0,0,0-.59,1.18,1.15,1.15,0,0,0,.34.89A1.48,1.48,0,0,0,77.85,280.75Z" fill="#fff"/><path d="M86.3,282H84.46V269.84H86.3Z" fill="#fff"/><path d="M99.86,278.9a2.87,2.87,0,0,1-1.1,2.39,4.79,4.79,0,0,1-3,.87,7.25,7.25,0,0,1-3.17-.6v-1.77a8.59,8.59,0,0,0,1.66.58,7,7,0,0,0,1.64.21,2.6,2.6,0,0,0,1.64-.42A1.37,1.37,0,0,0,98,279a1.42,1.42,0,0,0-.48-1.09,7.29,7.29,0,0,0-2-1.05,5.28,5.28,0,0,1-2.2-1.45,3.06,3.06,0,0,1-.64-2,2.74,2.74,0,0,1,1-2.25,4.21,4.21,0,0,1,2.73-.82,8,8,0,0,1,3.27.72l-.59,1.52a7.14,7.14,0,0,0-2.72-.64,2.09,2.09,0,0,0-1.37.39,1.3,1.3,0,0,0-.47,1,1.47,1.47,0,0,0,.19.76,1.92,1.92,0,0,0,.62.6,10.34,10.34,0,0,0,1.55.74,8.5,8.5,0,0,1,1.84,1,2.88,2.88,0,0,1,.86,1A3.08,3.08,0,0,1,99.86,278.9Z" fill="#fff"/><path d="M105.09,280.67a4.46,4.46,0,0,0,1.34-.21v1.38a3.67,3.67,0,0,1-.79.22,5.44,5.44,0,0,1-1,.09q-2.61,0-2.61-2.75v-4.66h-1.18v-.81l1.27-.67.63-1.83h1.13v1.92h2.46v1.39h-2.46v4.63a1.3,1.3,0,0,0,.33,1A1.21,1.21,0,0,0,105.09,280.67Z" fill="#fff"/><path d="M115.83,277.66a4.72,4.72,0,0,1-1.09,3.3,3.89,3.89,0,0,1-3,1.19,4.14,4.14,0,0,1-2.14-.55,3.6,3.6,0,0,1-1.43-1.57,5.35,5.35,0,0,1-.5-2.37,4.69,4.69,0,0,1,1.08-3.28,3.91,3.91,0,0,1,3-1.18,3.81,3.81,0,0,1,3,1.21A4.66,4.66,0,0,1,115.83,277.66Zm-6.29,0q0,3,2.21,3t2.19-3q0-3-2.2-3a1.88,1.88,0,0,0-1.68.77A3.89,3.89,0,0,0,109.54,277.66Z" fill="#fff"/><path d="M122.32,273.2a4.44,4.44,0,0,1,.91.08l-.18,1.71a3.47,3.47,0,0,0-.81-.09,2.35,2.35,0,0,0-1.79.72,2.6,2.6,0,0,0-.68,1.87V282h-1.84v-8.64h1.44l.24,1.52h.09a3.43,3.43,0,0,1,1.12-1.23A2.67,2.67,0,0,1,122.32,273.2Z" fill="#fff"/><path d="M130.24,282l-.37-1.2h-.06a3.53,3.53,0,0,1-1.26,1.07,4,4,0,0,1-1.62.29,2.75,2.75,0,0,1-2-.69,2.57,2.57,0,0,1-.71-1.95,2.28,2.28,0,0,1,1-2,5.72,5.72,0,0,1,3-.74l1.49,0v-.46a1.75,1.75,0,0,0-.39-1.24,1.58,1.58,0,0,0-1.2-.41,4.16,4.16,0,0,0-1.27.2,9.77,9.77,0,0,0-1.17.46l-.59-1.31a6.43,6.43,0,0,1,1.54-.56,7.12,7.12,0,0,1,1.58-.19,3.74,3.74,0,0,1,2.49.72,2.82,2.82,0,0,1,.84,2.26V282Zm-2.73-1.25a2.27,2.27,0,0,0,1.61-.56,2,2,0,0,0,.61-1.57v-.75l-1.11,0a3.8,3.8,0,0,0-1.89.43,1.32,1.32,0,0,0-.59,1.18,1.15,1.15,0,0,0,.34.89A1.48,1.48,0,0,0,127.51,280.75Z" fill="#fff"/><path d="M141.41,273.36v1l-1.48.27a2.39,2.39,0,0,1,.34.67,2.64,2.64,0,0,1,.13.84,2.59,2.59,0,0,1-.92,2.1,3.86,3.86,0,0,1-2.54.77,4.08,4.08,0,0,1-.75-.06,1,1,0,0,0-.59.86.48.48,0,0,0,.28.45,2.39,2.39,0,0,0,1,.15h1.51a3.35,3.35,0,0,1,2.17.61,2.14,2.14,0,0,1,.74,1.76,2.56,2.56,0,0,1-1.21,2.27,6.38,6.38,0,0,1-3.5.8,4.83,4.83,0,0,1-2.7-.62,2,2,0,0,1-.93-1.78,1.9,1.9,0,0,1,.5-1.34,2.7,2.7,0,0,1,1.41-.75,1.37,1.37,0,0,1-.61-.5,1.3,1.3,0,0,1,0-1.55,3.17,3.17,0,0,1,.81-.66,2.4,2.4,0,0,1-1.09-.94,2.77,2.77,0,0,1-.42-1.53,2.74,2.74,0,0,1,.89-2.18,3.73,3.73,0,0,1,2.53-.77,6.28,6.28,0,0,1,.77.05,5,5,0,0,1,.61.11Zm-6.79,10a1,1,0,0,0,.54.91,2.94,2.94,0,0,0,1.5.32,4.55,4.55,0,0,0,2.23-.43,1.29,1.29,0,0,0,.73-1.14.86.86,0,0,0-.4-.8,3.23,3.23,0,0,0-1.5-.24h-1.39a2,2,0,0,0-1.25.37A1.22,1.22,0,0,0,134.63,283.34Zm.79-7.19a1.74,1.74,0,0,0,.42,1.25,1.58,1.58,0,0,0,1.2.44q1.59,0,1.59-1.7a1.93,1.93,0,0,0-.39-1.3,1.5,1.5,0,0,0-1.2-.46,1.55,1.55,0,0,0-1.21.45A1.91,1.91,0,0,0,135.41,276.16Z" fill="#fff"/><path d="M146.79,282.16a4.18,4.18,0,0,1-3.15-1.18,4.46,4.46,0,0,1-1.14-3.24,4.9,4.9,0,0,1,1.05-3.33,3.64,3.64,0,0,1,2.9-1.21,3.56,3.56,0,0,1,2.7,1,4,4,0,0,1,1,2.86v1h-5.76a2.84,2.84,0,0,0,.68,1.93,2.36,2.36,0,0,0,1.8.68,6.64,6.64,0,0,0,1.43-.14,7.37,7.37,0,0,0,1.42-.48v1.49a5.6,5.6,0,0,1-1.36.45A8.3,8.3,0,0,1,146.79,282.16Zm-.34-7.56a1.85,1.85,0,0,0-1.4.55,2.64,2.64,0,0,0-.63,1.62h3.92a2.4,2.4,0,0,0-.52-1.62A1.76,1.76,0,0,0,146.45,274.59Z" fill="#fff"/><path d="M19.94,22.64a2.44,2.44,0,0,1,.72.11,19.78,19.78,0,0,1,2.85-2.62,2.4,2.4,0,0,1,.06-1.34,17.94,17.94,0,0,0-3.76-2.07,11.55,11.55,0,0,0-3.23,3,18.09,18.09,0,0,0,2.3,3.2A2.43,2.43,0,0,1,19.94,22.64ZM17.5,25.09a2.44,2.44,0,0,1,.2-1,19.72,19.72,0,0,1-2.12-2.78,11.49,11.49,0,0,0,.39,11,19.49,19.49,0,0,1,2-5.82A2.43,2.43,0,0,1,17.5,25.09Zm8.4-8a2.43,2.43,0,0,1,1.67.66,19.49,19.49,0,0,1,4-1.24,11.5,11.5,0,0,0-9.78-.8,19.71,19.71,0,0,1,2.85,1.72A2.43,2.43,0,0,1,25.9,17.11Zm3.66,11.52a2.45,2.45,0,0,1,.64-.82,17.9,17.9,0,0,0-3.34-6,2.44,2.44,0,0,1-2.38-.26A18,18,0,0,0,22,23.8a2.44,2.44,0,0,1,.26,2A17.79,17.79,0,0,0,29.55,28.63Zm3.17,3.3q.05.69.05,1.4a19.83,19.83,0,0,1-.15,2.45A11.52,11.52,0,0,0,36.81,30a19.54,19.54,0,0,1-2.73.46A2.45,2.45,0,0,1,32.73,31.94ZM29,30.28a19.51,19.51,0,0,1-7.76-3.11,2.43,2.43,0,0,1-1.28.36,2.46,2.46,0,0,1-.5-.05,17.79,17.79,0,0,0-2,6.86,11.52,11.52,0,0,0,3.93,2.75A19.57,19.57,0,0,1,29,30.28ZM33.57,18a17.78,17.78,0,0,0-5.24,1.34,2.27,2.27,0,0,1,0,.24,2.44,2.44,0,0,1-.25,1.08,19.61,19.61,0,0,1,3.71,6.61A2.45,2.45,0,0,1,34,28.74a17.77,17.77,0,0,0,3.22-.63,11.62,11.62,0,0,0,.11-1.61A11.47,11.47,0,0,0,33.57,18ZM30.21,31.59a17.87,17.87,0,0,0-7.15,6.07,11.51,11.51,0,0,0,7.65-.73,17.89,17.89,0,0,0,.36-3.59c0-.44,0-.88-.05-1.32A2.45,2.45,0,0,1,30.21,31.59Z" fill="#0399ff"/><path d="M37.61,184.14c-1.36.71-8.41,3.61-9.91,4.39a3.35,3.35,0,0,1-3.52.21c-1.19-.57-8.69-3.6-10-4.24-.68-.32-1-.6-1-.85v-2.58s9.77-2.13,11.35-2.69a4,4,0,0,1,3.47-.09c1.34.49,9.37,1.94,10.69,2.43,0,0,0,2.3,0,2.54s-.31.53-1,.9" fill="#912626"/><path d="M37.61,181.58c-1.36.71-8.41,3.61-9.91,4.39a3.35,3.35,0,0,1-3.52.21c-1.19-.57-8.69-3.6-10-4.24s-1.38-1.09-.05-1.61,8.79-3.45,10.37-4a4,4,0,0,1,3.47-.09c1.34.49,8.35,3.28,9.68,3.77s1.38.89,0,1.6" fill="#c6302b"/><path d="M37.61,180c-1.36.71-8.41,3.61-9.91,4.39a3.35,3.35,0,0,1-3.52.21c-1.19-.57-8.69-3.6-10-4.24-.68-.32-1-.6-1-.85v-2.58s9.77-2.13,11.35-2.69a4,4,0,0,1,3.47-.09c1.34.49,9.37,1.94,10.69,2.43,0,0,0,2.3,0,2.54s-.31.53-1,.9" fill="#912626"/><path d="M37.61,177.41c-1.36.71-8.41,3.61-9.91,4.39a3.35,3.35,0,0,1-3.52.21c-1.19-.57-8.69-3.6-10-4.24s-1.38-1.09-.05-1.61,8.79-3.45,10.37-4a4,4,0,0,1,3.47-.09c1.34.49,8.35,3.28,9.68,3.77s1.38.89,0,1.6h0" fill="#c6302b"/><path d="M37.61,175.64c-1.36.71-8.41,3.61-9.91,4.39a3.35,3.35,0,0,1-3.52.21c-1.19-.57-8.69-3.6-10-4.24-.68-.32-1-.6-1-.85v-2.58s9.77-2.13,11.35-2.69a4,4,0,0,1,3.47-.09c1.34.49,9.37,1.94,10.69,2.43,0,0,0,2.3,0,2.54s-.31.53-1,.9" fill="#912626"/><path d="M37.61,173.08c-1.36.71-8.41,3.61-9.91,4.39a3.35,3.35,0,0,1-3.52.21c-1.19-.57-8.69-3.6-10-4.24s-1.38-1.09-.05-1.61,8.79-3.45,10.37-4a4,4,0,0,1,3.47-.09c1.34.49,8.35,3.28,9.68,3.77s1.38.89,0,1.6" fill="#c6302b"/><path d="M29,170.57l-2.19.23L26.28,172l-.79-1.32L23,170.44l1.89-.68-.57-1,1.77.69,1.67-.55-.45,1.08,1.7.64" fill="#fff"/><path d="M26.15,176.3l-4.09-1.7,5.86-.9-1.77,2.6" fill="#fff"/><path d="M20.48,171.23c1.73,0,3.13.54,3.13,1.22s-1.4,1.22-3.13,1.22-3.13-.54-3.13-1.22,1.4-1.22,3.13-1.22" fill="#fff"/><path d="M31.56,170.9,35,172.27l-3.47,1.37V170.9" fill="#621b1c"/><path d="M27.72,172.41l3.84-1.52v2.74l-.38.15-3.47-1.37" fill="#9a2928"/><path id="88c1a5cc-8684-41bf-9fb4-0d8e1d31d7a1" data-name="&lt;Контур&gt;" d="M41.39,216.28c-.5,0-.34.16-1.43.43a22,22,0,0,0-3.61.68c-3.52,1.48-4.23,6.53-7.43,8.34-2.39,1.35-4.81,1.46-7,2.14a12.77,12.77,0,0,0-4.28,2.48c-1,.87-1,1.63-2.08,2.71s-4.46,0-6,1.8c.49.49.7.63,1.66.5-.2.38-1.37.69-1.14,1.25s3.07,1,5.65-.58c1.2-.72,2.15-1.77,4-2,2.42-.32,5.2.21,8,.61a12.46,12.46,0,0,1-1.91,3c-.21.22.41.25,1.12.11a11.19,11.19,0,0,0,3.16-1.13c1.18-.69,1.36-2.45,2.81-2.84a3.25,3.25,0,0,0,4.37.54c-1.2-.34-1.53-2.89-1.12-4s.76-2.76,1.15-4.17.57-3.41,1.07-4.18a9.89,9.89,0,0,1,2.31-2.21A3.24,3.24,0,0,0,42.1,217c0-.48-.26-.75-.71-.73Z" fill="#002b64"/><path id="3cf05981-c855-4dd1-9bab-002f43887cc8" data-name="&lt;Контур&gt;" d="M10.64,236.5a7.22,7.22,0,0,0,4.42-.64c1.25-.54,2.46-1.66,3.94-2.14,2.17-.7,4.56,0,6.88.14a10,10,0,0,0,1.68,0c.87-.53.85-2.52,1.69-2.7a9.59,9.59,0,0,1-2.37,6.08,6.77,6.77,0,0,0,5-3.85,14.23,14.23,0,0,0,.81-1.89c.36.28.16,1.12.34,1.58,1.74-1,2.73-3.18,3.39-5.41.76-2.58,1.07-5.2,1.57-6A6.51,6.51,0,0,1,39.95,220a3,3,0,0,0,1.58-2.14c-.82-.08-1-.26-1.13-.68a2.44,2.44,0,0,1-1.21.29c-.37,0-.77,0-1.27,0-4.09.42-4.61,4.93-7.23,7.48a6.15,6.15,0,0,1-.61.52A12.89,12.89,0,0,1,27,227.08c-1.68.64-3.27.69-4.84,1.24A14.5,14.5,0,0,0,18.88,230c-.24.16-.46.33-.67.5a6.52,6.52,0,0,0-1.28,1.48,9.83,9.83,0,0,1-1.25,1.61c-.87.85-4.12.25-5.26,1a.93.93,0,0,0-.3.32c.62.28,1,.11,1.76.19.09.68-1.48,1.09-1.25,1.4Z" fill="#c49a6c"/><path id="98c197cd-5a41-4547-9ffd-7881c3f1c027" data-name="&lt;Контур&gt;" d="M35.42,231.59a5.94,5.94,0,0,0,.9,2.71,2.79,2.79,0,0,1-2.48-.68C34,232.82,34.94,232.09,35.42,231.59Z" fill="#c49a6c"/><path id="298b41ca-5755-43ba-a865-58d090a34f6f" data-name="&lt;Контур&gt;" d="M36.57,219.19a1,1,0,0,0,1.58-.9C37.24,218.22,36.72,218.52,36.57,219.19Z" fill="#002b64"/><path id="7559a29b-3fad-45db-9a8c-0cc98c31d275" data-name="&lt;Контур&gt;" d="M40.6,218a3,3,0,0,0-.45,1.56c0,.14-.11.24-.11,0a3.07,3.07,0,0,1,.45-1.61C40.6,217.81,40.66,217.89,40.6,218Z" fill="#002b64"/><path id="76b2aa8a-de54-4571-bfdb-53506ccdacb0" data-name="&lt;Контур&gt;" d="M40.45,217.9a3.71,3.71,0,0,0-.69,1.69c0,.14-.13.23-.11,0a3.79,3.79,0,0,1,.69-1.74C40.46,217.69,40.52,217.77,40.45,217.9Z" fill="#002b64"/><path id="67a522d9-e1a2-4864-9cab-17065cb9eaf9" data-name="&lt;Контур&gt;" d="M40.31,217.74a4.39,4.39,0,0,0-1,1.78c0,.14-.15.22-.11,0a4.56,4.56,0,0,1,1-1.82C40.34,217.53,40.39,217.62,40.31,217.74Z" fill="#002b64"/><path id="71418d8c-97e7-4dac-98c1-e05f758af73c" data-name="&lt;Контур&gt;" d="M40.18,217.56a6.06,6.06,0,0,0-1.3,1.9c0,.13-.18.19-.11,0a6,6,0,0,1,1.31-1.95c.16-.15.19-.05.1.06Z" fill="#002b64"/><path d="M25.85,274.61A2.39,2.39,0,1,0,28.24,277,2.39,2.39,0,0,0,25.85,274.61Zm0,4.07A1.68,1.68,0,1,1,27.53,277,1.68,1.68,0,0,1,25.85,278.67Z" fill="#7488a5"/><path d="M32.61,266.81H19.09a1.41,1.41,0,0,0-1.41,1.41v20.37A1.41,1.41,0,0,0,19.09,290H32.61A1.41,1.41,0,0,0,34,288.59V268.22A1.41,1.41,0,0,0,32.61,266.81Zm-12.69,1.53a.71.71,0,1,1-.71.71A.71.71,0,0,1,19.92,268.34Zm0,20.13a.71.71,0,1,1,.71-.71A.71.71,0,0,1,19.92,288.47Zm6.67-5.17v-2a.35.35,0,0,0-.71,0v2.93a.35.35,0,0,1-.1.24l-1.55,1.62a.35.35,0,0,1-.51-.49l1.46-1.52v-.74a6.35,6.35,0,1,1,1.41,0Zm5.2,5.17a.71.71,0,1,1,.71-.71A.71.71,0,0,1,31.78,288.47Zm0-18.72a.71.71,0,1,1,.71-.71A.71.71,0,0,1,31.78,269.75Z" fill="#7488a5"/><path d="M32.22,77.07H28.59V75.19a2.72,2.72,0,1,0-5.43,0v1.87H19.52V75.19a6.35,6.35,0,1,1,12.7,0Z" fill="#ffa400"/><path d="M33.71,77.07H18a1.21,1.21,0,0,0-1.22,1.22V89.88A1.21,1.21,0,0,0,18,91.11H33.71a1.21,1.21,0,0,0,1.22-1.22V78.29A1.26,1.26,0,0,0,33.71,77.07Zm-7.08,7.61v1.57a.8.8,0,1,1-1.61,0V84.68a1.58,1.58,0,0,1-.8-1.42,1.61,1.61,0,1,1,3.21,0A1.51,1.51,0,0,1,26.64,84.68Z" fill="#fff"/><path d="M16.42,75.35H12.63a1.11,1.11,0,1,1,0-2.22h3.79a1.11,1.11,0,1,1,0,2.22Z" fill="#ffa400"/><path d="M19.1,70.38a1,1,0,0,1-.69-.27l-3-2.45a1.11,1.11,0,0,1,1.42-1.72l3,2.45A1.13,1.13,0,0,1,20,70,1.27,1.27,0,0,1,19.1,70.38Z" fill="#ffa400"/><path d="M25.87,67.78a1.11,1.11,0,0,1-1.11-1.11V62.84a1.11,1.11,0,1,1,2.22,0v3.83A1.11,1.11,0,0,1,25.87,67.78Z" fill="#ffa400"/><path d="M32.6,70.38a1.07,1.07,0,0,1-.84-.42,1.14,1.14,0,0,1,.15-1.57l3-2.45a1.11,1.11,0,1,1,1.42,1.72l-3,2.45A1.07,1.07,0,0,1,32.6,70.38Z" fill="#ffa400"/><path d="M39.07,75.35H35.24a1.11,1.11,0,0,1,0-2.22h3.83a1.11,1.11,0,0,1,0,2.22Z" fill="#ffa400"/><path d="M32.34,121.8h-14a.81.81,0,0,0-.81.81v2.77a.81.81,0,0,0,.81.81h14a.81.81,0,0,0,.81-.81v-2.77A.81.81,0,0,0,32.34,121.8ZM19,123.73a.5.5,0,1,1,.5-.5A.5.5,0,0,1,19,123.73ZM31,125.17H27.47V124H31v1.18Z" fill="#95aace"/><path d="M32.34,126.64h-14a.81.81,0,0,0-.81.81v2.77a.81.81,0,0,0,.81.81h14a.81.81,0,0,0,.81-.81v-2.77A.81.81,0,0,0,32.34,126.64ZM19,128.57a.5.5,0,1,1,.5-.5A.5.5,0,0,1,19,128.57ZM31,130H27.47v-1.18H31V130Z" fill="#95aace"/><path d="M32.34,131.48h-14a.81.81,0,0,0-.81.81v2.77a.81.81,0,0,0,.81.81h14a.81.81,0,0,0,.81-.81v-2.77A.81.81,0,0,0,32.34,131.48ZM19,133.4a.5.5,0,1,1,.5-.5A.5.5,0,0,1,19,133.4ZM31,134.85H27.47v-1.18H31v1.18Z" fill="#95aace"/><polygon points="27.75 138.51 26.25 138.51 26.25 136.34 24.4 136.34 24.4 138.51 22.9 138.51 22.9 139.09 17.67 139.09 17.67 140.94 22.9 140.94 22.9 141.52 27.75 141.52 27.75 140.94 32.98 140.94 32.98 139.09 27.75 139.09 27.75 138.51" fill="#95aace"/><path d="M33.61,117.34a.7.7,0,0,1-.5-.28,6.06,6.06,0,0,0-4.85-2.46H27.9a.7.7,0,0,1-.46-.14A6.76,6.76,0,0,0,17.25,117a.7.7,0,0,1-.54.39,6,6,0,0,0-.4,11.87v-1.79a2,2,0,0,1,.11-.64,3.65,3.65,0,0,1,1.14-7.12l.3,0a1.19,1.19,0,0,0,1.25-.89,4.39,4.39,0,0,1,7.33-2.07,1.19,1.19,0,0,0,1.07.31,3.68,3.68,0,0,1,.75-.08A3.63,3.63,0,0,1,31.54,119a1.18,1.18,0,0,0,1.19.66l.37,0a3.65,3.65,0,0,1,1.14,7.12,2,2,0,0,1,.11.64v1.79a6,6,0,0,0-.74-11.9Z" fill="#0399ff"/></svg>
