<svg id="bd6942b8-aaf0-4494-94d3-41fa0412bbe5" data-name="—лой_1" xmlns="http://www.w3.org/2000/svg" xmlns:xlink="http://www.w3.org/1999/xlink" width="73" height="49.72" viewBox="0 0 73 49.72"><defs><linearGradient id="b49616d0-f363-43b4-ae48-8f0b400c8ed0" x1="20.57" y1="34.26" x2="29.54" y2="34.26" gradientUnits="userSpaceOnUse"><stop offset="0" stop-color="#0844dc"/><stop offset="0.14" stop-color="#0c49dd"/><stop offset="0.31" stop-color="#1757e0"/><stop offset="0.49" stop-color="#2a6fe6"/><stop offset="0.68" stop-color="#4590ee"/><stop offset="0.87" stop-color="#66baf7"/><stop offset="1" stop-color="#80dbff"/></linearGradient><linearGradient id="b9927cdf-5754-4997-afda-fe49413d9f08" x1="23.19" y1="27.26" x2="47.25" y2="27.26" xlink:href="#b49616d0-f363-43b4-ae48-8f0b400c8ed0"/><linearGradient id="b9b1e13d-0a2e-40f8-8875-73f11c3452b1" x1="32" y1="38.99" x2="41.78" y2="38.99" xlink:href="#b49616d0-f363-43b4-ae48-8f0b400c8ed0"/><linearGradient id="e42f5278-64d8-42e8-a167-eb55486e0588" x1="44.5" y1="33.4" x2="52.42" y2="33.4" xlink:href="#b49616d0-f363-43b4-ae48-8f0b400c8ed0"/><linearGradient id="f91cc7bb-5c27-48fc-b5d0-9a32283d8393" x1="17.93" y1="30.34" x2="55.06" y2="30.34" xlink:href="#b49616d0-f363-43b4-ae48-8f0b400c8ed0"/></defs><circle cx="14.22" cy="30.35" r="13.72" fill="none" stroke="#6a77a8" stroke-miterlimit="10" opacity="0.8"/><circle cx="58.78" cy="30.35" r="13.72" fill="none" stroke="#6a77a8" stroke-miterlimit="10" opacity="0.8"/><path d="M46.27,30.42a12.47,12.47,0,0,0,7,11.21L47.35,25.34A12.47,12.47,0,0,0,46.27,30.42Z" fill="#6a7ca2" opacity="0.8" style="isolation:isolate"/><path d="M67.15,29.79a6.61,6.61,0,0,0-1-3.44,5.89,5.89,0,0,1-1.23-2.92A2.16,2.16,0,0,1,67,21.21h.16a12.46,12.46,0,0,0-18.83,2.35h.8c1.3,0,3.32-.15,3.32-.15a.51.51,0,0,1,.08,1s-.67.08-1.42.12l4.54,13.5,2.72-8.18-1.94-5.32c-.67,0-1.31-.12-1.31-.12a.51.51,0,0,1,.08-1s2.06.15,3.29.15,3.32-.15,3.32-.15a.51.51,0,0,1,.08,1s-.68.08-1.43.12L65,38l1.25-4.15A15.14,15.14,0,0,0,67.15,29.79Z" fill="#6a7ca2" opacity="0.8" style="isolation:isolate"/><path d="M59,31.51,55.21,42.37a12.41,12.41,0,0,0,7.66-.2L62.78,42Z" fill="#6a7ca2" opacity="0.8" style="isolation:isolate"/><path d="M69.67,24.44a10.1,10.1,0,0,1,.08,1.28,11.76,11.76,0,0,1-.94,4.46L65,41.19a12.45,12.45,0,0,0,4.67-16.75Z" fill="#6a7ca2" opacity="0.8" style="isolation:isolate"/><path d="M1.79,30.42a12.46,12.46,0,0,0,7,11.21L2.87,25.34A12.47,12.47,0,0,0,1.79,30.42Z" fill="#6a7ca2" opacity="0.8" style="isolation:isolate"/><path d="M22.67,29.79a6.52,6.52,0,0,0-1-3.44,5.87,5.87,0,0,1-1.22-2.92,2.16,2.16,0,0,1,2.09-2.22h.16A12.46,12.46,0,0,0,3.84,23.57h.81C6,23.58,8,23.43,8,23.43a.51.51,0,0,1,.08,1s-.68.08-1.43.12l4.54,13.5,2.73-8.18L12,24.57c-.68,0-1.31-.12-1.31-.12a.51.51,0,0,1,.08-1s2.06.15,3.28.15,3.32-.15,3.32-.15a.51.51,0,0,1,.08,1s-.68.08-1.43.12L20.48,38l1.24-4.15A15.14,15.14,0,0,0,22.67,29.79Z" fill="#6a7ca2" opacity="0.8" style="isolation:isolate"/><path d="M14.48,31.51,10.74,42.37a12.41,12.41,0,0,0,7.66-.2.56.56,0,0,1-.09-.17Z" fill="#6a7ca2" opacity="0.8" style="isolation:isolate"/><path d="M25.19,24.44a8.47,8.47,0,0,1,.09,1.28,11.8,11.8,0,0,1-1,4.46l-3.81,11a12.45,12.45,0,0,0,6.2-10.77A12.31,12.31,0,0,0,25.19,24.44Z" fill="#6a7ca2"/><circle cx="36.5" cy="30.35" r="19.37" fill="#fff"/><path d="M20.57,30.33a15.93,15.93,0,0,0,9,14.34L22,23.85A15.79,15.79,0,0,0,20.57,30.33Z" fill="url(#b49616d0-f363-43b4-ae48-8f0b400c8ed0)"/><path d="M47.25,29.53a8.33,8.33,0,0,0-1.32-4.39c-.8-1.31-1.56-2.42-1.56-3.74A2.75,2.75,0,0,1,47,18.58h.21a15.92,15.92,0,0,0-24.06,3l1,0c1.67,0,4.25-.21,4.25-.21a.66.66,0,0,1,.1,1.32s-.86.1-1.82.15l5.8,17.25L36,29.67l-2.48-6.8c-.86-.05-1.67-.15-1.67-.15A.66.66,0,0,1,32,21.4s2.63.21,4.2.21,4.24-.21,4.24-.21a.66.66,0,0,1,.1,1.32s-.86.1-1.82.15L44.44,40,46,34.68A19.26,19.26,0,0,0,47.25,29.53Z" fill="url(#b9927cdf-5754-4997-afda-fe49413d9f08)"/><path d="M36.77,31.73,32,45.61a15.92,15.92,0,0,0,9.78-.25,1.51,1.51,0,0,1-.11-.22Z" fill="url(#b9b1e13d-0a2e-40f8-8875-73f11c3452b1)"/><path d="M50.47,22.69a12.09,12.09,0,0,1,.11,1.64A15.24,15.24,0,0,1,49.37,30L44.5,44.1a15.93,15.93,0,0,0,6-21.41Z" fill="url(#e42f5278-64d8-42e8-a167-eb55486e0588)"/><path d="M36.49,11.77A18.57,18.57,0,1,0,55.06,30.33,18.59,18.59,0,0,0,36.49,11.77Zm0,36.28A17.72,17.72,0,1,1,54.21,30.33,17.74,17.74,0,0,1,36.49,48.05Z" fill="url(#f91cc7bb-5c27-48fc-b5d0-9a32283d8393)"/><path d="M44.38,3.62a.61.61,0,0,1,0,.14L43.31,8a.47.47,0,0,1-.46.36l-6.34,0H30.18A.48.48,0,0,1,29.71,8L28.65,3.78a.76.76,0,0,1,0-.15,1,1,0,0,1,.3-2,1,1,0,0,1,.64,1.79l1.33,1.33a1.77,1.77,0,0,0,1.27.53,1.79,1.79,0,0,0,1.43-.71l2.17-2.88A1,1,0,0,1,35.49,1a1,1,0,1,1,2,0,1,1,0,0,1-.28.69h0l2.15,2.88a1.82,1.82,0,0,0,1.44.72,1.74,1.74,0,0,0,1.26-.52l1.34-1.33a1,1,0,1,1,1.63-.79A1,1,0,0,1,44.38,3.62ZM43.21,9.89a.48.48,0,0,0-.48-.48H30.31a.48.48,0,0,0-.48.48V11a.49.49,0,0,0,.48.48H42.73a.49.49,0,0,0,.48-.48Z" fill="#ffc107"/></svg>