<svg id="e406a90f-cf1a-430d-86fa-4c5d149d567f" data-name="—лой_1" xmlns="http://www.w3.org/2000/svg" xmlns:xlink="http://www.w3.org/1999/xlink" viewBox="0 0 146.18 93.01"><defs><linearGradient id="92588eba-8599-4afa-90b9-53779b80e9da" x1="43.53" y1="64.27" x2="60.21" y2="64.27" gradientUnits="userSpaceOnUse"><stop offset="0" stop-color="#0079e3"/><stop offset="0.16" stop-color="#057de4"/><stop offset="0.34" stop-color="#1388e7"/><stop offset="0.54" stop-color="#2b9aec"/><stop offset="0.74" stop-color="#4cb3f4"/><stop offset="0.96" stop-color="#76d4fd"/><stop offset="1" stop-color="#80dbff"/></linearGradient><linearGradient id="a0628f41-9290-4c13-b0ae-b210a3efe469" x1="48.4" y1="51.27" x2="93.11" y2="51.27" xlink:href="#92588eba-8599-4afa-90b9-53779b80e9da"/><linearGradient id="60698daa-9882-4c2c-9fd6-62d81f5f081d" x1="64.77" y1="73.07" x2="82.96" y2="73.07" xlink:href="#92588eba-8599-4afa-90b9-53779b80e9da"/><linearGradient id="d69ccb11-28e8-4869-b96c-05091b4e3830" x1="88" y1="62.67" x2="102.72" y2="62.67" xlink:href="#92588eba-8599-4afa-90b9-53779b80e9da"/><linearGradient id="405db075-ebe8-4c41-a4ef-e91021bb4174" x1="38.63" y1="56.98" x2="107.63" y2="56.98" xlink:href="#92588eba-8599-4afa-90b9-53779b80e9da"/></defs><title>WP_logo</title><g opacity="0.8"><circle cx="39.24" cy="57.01" r="25.5" fill="none" stroke="#6a7ca2" stroke-miterlimit="10" stroke-dasharray="2.97 2.97"/></g><g opacity="0.8"><circle cx="107.04" cy="57.01" r="25.5" fill="none" stroke="#6a7ca2" stroke-miterlimit="10" stroke-dasharray="2.97 2.97"/></g><path d="M86.29,57.13A23.17,23.17,0,0,0,99.34,78L88.3,47.7A23.07,23.07,0,0,0,86.29,57.13Z" fill="#6a7ca2" opacity="0.8"/><path d="M122.59,56a12.19,12.19,0,0,0-1.91-6.39c-1.17-1.91-2.27-3.52-2.27-5.43A4,4,0,0,1,122.29,40l.3,0a23.16,23.16,0,0,0-35,4.36l1.49,0c2.42,0,6.17-.29,6.17-.29A1,1,0,0,1,95.41,46s-1.26.15-2.65.22l8.43,25.09,5.07-15.2-3.61-9.89c-1.25-.07-2.43-.22-2.43-.22a1,1,0,0,1,.15-1.91s3.82.29,6.1.29,6.17-.29,6.17-.29A1,1,0,0,1,112.8,46s-1.26.15-2.65.22l8.37,24.9,2.31-7.72C121.83,60.24,122.59,57.94,122.59,56Z" fill="#6a7ca2" opacity="0.8"/><path d="M107.36,59.15l-6.95,20.19A23.16,23.16,0,0,0,114.64,79a1.91,1.91,0,0,1-.16-.32Z" fill="#6a7ca2" opacity="0.8"/><path d="M127.28,46a17.8,17.8,0,0,1,.16,2.38,21.85,21.85,0,0,1-1.76,8.3L118.6,77.15A23.17,23.17,0,0,0,127.28,46Z" fill="#6a7ca2" opacity="0.8"/><path d="M16.14,57.13A23.17,23.17,0,0,0,29.19,78l-11-30.27A23.07,23.07,0,0,0,16.14,57.13Z" fill="#6a7ca2" opacity="0.8"/><path d="M54.94,56A12.19,12.19,0,0,0,53,49.57c-1.17-1.91-2.27-3.52-2.27-5.43A4,4,0,0,1,54.64,40l.3,0A23.16,23.16,0,0,0,20,44.4l1.49,0c2.42,0,6.17-.29,6.17-.29A1,1,0,0,1,27.76,46s-1.26.15-2.65.22l8.43,25.09,5.07-15.2L35,46.27c-1.25-.07-2.43-.22-2.43-.22a1,1,0,0,1,.15-1.91s3.82.29,6.1.29S45,44.14,45,44.14A1,1,0,0,1,45.15,46s-1.26.15-2.65.22l8.37,24.9,2.31-7.72C54.18,60.24,54.94,57.94,54.94,56Z" fill="#6a7ca2" opacity="0.8"/><path d="M39.71,59.15,32.76,79.34A23.16,23.16,0,0,0,47,79a1.91,1.91,0,0,1-.16-.32Z" fill="#6a7ca2" opacity="0.8"/><path d="M52.13,46a17.8,17.8,0,0,1,.16,2.38,21.85,21.85,0,0,1-1.76,8.3L43.45,77.15A23.17,23.17,0,0,0,52.13,46Z" fill="#6a7ca2" opacity="0.8"/><circle cx="73.13" cy="57.01" r="36" fill="#2d343f"/><path d="M43.53,57A29.6,29.6,0,0,0,60.21,83.61L46.09,44.93A29.48,29.48,0,0,0,43.53,57Z" fill="url(#92588eba-8599-4afa-90b9-53779b80e9da)"/><path d="M93.11,55.48a15.58,15.58,0,0,0-2.44-8.16c-1.5-2.44-2.91-4.5-2.91-6.94a5.12,5.12,0,0,1,5-5.25l.38,0A29.59,29.59,0,0,0,48.4,40.72c.69,0,1.35,0,1.9,0,3.1,0,7.89-.38,7.89-.38a1.22,1.22,0,0,1,.19,2.44s-1.6.19-3.39.28L65.77,75.16l6.48-19.42L67.64,43.1c-1.59-.09-3.1-.28-3.1-.28a1.22,1.22,0,0,1,.19-2.44s4.89.38,7.8.38c3.1,0,7.89-.38,7.89-.38a1.22,1.22,0,0,1,.19,2.44S79,43,77.21,43.1L87.9,74.91l3-9.86C92.13,61,93.11,58,93.11,55.48Z" fill="url(#a0628f41-9290-4c13-b0ae-b210a3efe469)"/><path d="M73.65,59.56l-8.88,25.8A29.6,29.6,0,0,0,83,84.89a2.44,2.44,0,0,1-.21-.41Z" fill="url(#60698daa-9882-4c2c-9fd6-62d81f5f081d)"/><path d="M99.1,42.78a22.75,22.75,0,0,1,.2,3A27.92,27.92,0,0,1,97,56.42L88,82.56A29.6,29.6,0,0,0,99.1,42.78Z" fill="url(#d69ccb11-28e8-4869-b96c-05091b4e3830)"/><path d="M73.13,22.48A34.5,34.5,0,1,0,107.63,57,34.54,34.54,0,0,0,73.13,22.48Zm0,67.42A32.92,32.92,0,1,1,106,57,33,33,0,0,1,73.13,89.89Z" fill="url(#405db075-ebe8-4c41-a4ef-e91021bb4174)"/><path d="M86.26,6a.8.8,0,0,1,0,.24l-1.76,7a.8.8,0,0,1-.77.61L73.16,14H62.6a.8.8,0,0,1-.78-.61L60.07,6.3a.8.8,0,0,1,0-.24,1.68,1.68,0,1,1,1.57-.31L63.82,8a3,3,0,0,0,4.5-.3l3.62-4.8a1.68,1.68,0,1,1,2.4,0h0l3.59,4.81a3,3,0,0,0,2.39,1.2A3,3,0,0,0,82.44,8l2.22-2.22A1.68,1.68,0,1,1,86.26,6Zm-2,10.44a.8.8,0,0,0-.8-.8H62.83a.8.8,0,0,0-.8.8v1.92a.8.8,0,0,0,.8.8H83.51a.8.8,0,0,0,.8-.8Z" fill="#ffc107"/><path d="M10.23,56.16H3l2.28-2.28a.6.6,0,0,0,0-.84l-.35-.35a.59.59,0,0,0-.84,0l-3.9,3.9a.6.6,0,0,0,0,.84l3.9,3.9a.59.59,0,0,0,.84,0L5.27,61a.59.59,0,0,0,.17-.42.57.57,0,0,0-.17-.41L3,57.85h7.26a.61.61,0,0,0,.6-.61v-.5a.6.6,0,0,0-.61-.59" fill="#6a7ca2"/><path d="M135.94,56.16h7.24l-2.28-2.28a.6.6,0,0,1,0-.84l.35-.35a.59.59,0,0,1,.84,0l3.9,3.9a.6.6,0,0,1,0,.84l-3.9,3.9a.59.59,0,0,1-.84,0l-.35-.35a.59.59,0,0,1-.17-.42.57.57,0,0,1,.17-.41l2.3-2.29H136a.61.61,0,0,1-.6-.61v-.5a.6.6,0,0,1,.61-.59" fill="#6a7ca2"/></svg>